<svg width="45" height="24" viewBox="0 0 45 24" fill="none" xmlns="http://www.w3.org/2000/svg">
<g clip-path="url(#clip0_2825_3520)">
<path d="M13.1631 16.6121C14.4936 16.6122 15.6136 17.321 16.0605 18.5535H15.1357C14.7949 17.7765 14.0891 17.1902 13.1768 17.1902C12.4927 17.1903 11.9253 17.5648 11.5469 18.0818C11.1693 18.5976 10.9551 19.2815 10.9551 20.0007C10.9551 20.6911 11.1221 21.3757 11.4863 21.9031C11.8612 22.4459 12.4422 22.8113 13.1914 22.8113C14.0811 22.8113 14.7437 22.233 15.0498 21.5623H15.9971C15.5372 22.6422 14.5194 23.3757 13.2061 23.3757C11.554 23.3757 10.1647 22.1832 10.0889 20.2107V20.2097L10.085 20.0105C10.0936 17.9786 11.561 16.6121 13.1631 16.6121ZM4.5 13.8855C5.72033 13.8855 6.59113 14.2276 7.14941 14.7185C7.57613 15.0937 7.84167 15.5753 7.94238 16.114H7.04004C6.78458 15.1836 5.82475 14.4636 4.5 14.4636C3.86399 14.4636 3.26954 14.6319 2.81934 14.9304C2.3728 15.2266 2.01965 15.6908 2.01953 16.2693C2.01953 16.761 2.23241 17.1406 2.55078 17.4089C2.84973 17.6609 3.22972 17.8072 3.58203 17.9011L3.58984 17.9031C3.62692 17.9123 4.12807 18.0279 4.60938 18.1394C4.85337 18.1959 5.09615 18.2527 5.27734 18.2947C5.3678 18.3156 5.44346 18.3323 5.49609 18.3445C5.5222 18.3505 5.54259 18.3559 5.55664 18.3591C5.56369 18.3608 5.5696 18.3622 5.57324 18.363C5.57491 18.3634 5.57628 18.3638 5.57715 18.364H5.57812C6.38245 18.559 7.01854 18.8733 7.44824 19.3015C7.86687 19.7187 8.11907 20.2716 8.11914 21.0193C8.11914 21.7555 7.7161 22.3687 7.03613 22.8132C6.34981 23.2619 5.41519 23.5084 4.4834 23.489C2.32106 23.4313 1.19107 22.1864 0.947266 20.9744H1.82617C2.04549 21.8608 2.85066 22.7679 4.40039 22.8943V22.8953C5.07505 22.9528 5.75322 22.8205 6.28027 22.5193C6.80845 22.2174 7.23926 21.7057 7.23926 21.0193C7.23917 20.4898 7.0064 20.0789 6.65918 19.7869C6.32928 19.5096 5.90525 19.345 5.49707 19.2429L5.49609 19.2439C5.46168 19.2347 5.41955 19.2237 5.39355 19.2175C5.33549 19.2038 5.25515 19.1847 5.16113 19.1628C4.97297 19.119 4.72625 19.0621 4.48145 19.0056C4.2365 18.9491 3.99286 18.8933 3.81055 18.8513C3.71957 18.8304 3.64388 18.8127 3.59082 18.8005C3.56459 18.7945 3.5435 18.7901 3.5293 18.7869C3.52227 18.7853 3.51637 18.7838 3.5127 18.783C3.51108 18.7826 3.50971 18.7822 3.50879 18.782H3.50684L3.50586 18.781C2.73614 18.6054 2.14823 18.331 1.75586 17.9431C1.37772 17.5692 1.13965 17.0496 1.13965 16.2839C1.13965 15.6067 1.45841 15.024 2.03418 14.5955C2.61808 14.161 3.47236 13.8855 4.5 13.8855ZM29.2812 16.6121C30.9251 16.6121 32.4551 17.8199 32.4551 20.0007C32.4551 21.1047 32.0704 21.9375 31.5 22.4958C30.9264 23.0572 30.1368 23.3676 29.2812 23.3748C28.4321 23.3676 27.6458 23.0601 27.0742 22.5007C26.5062 21.9447 26.1221 21.1124 26.1221 20.0007C26.1221 17.8174 27.6399 16.6121 29.2812 16.6121ZM37.5498 16.6121C39.1935 16.6122 40.7236 17.82 40.7236 20.0007C40.7236 21.1047 40.339 21.9375 39.7686 22.4958C39.1947 23.0574 38.4048 23.3677 37.5488 23.3748C36.7 23.3674 35.9142 23.06 35.3428 22.5007C34.7747 21.9447 34.3897 21.1124 34.3896 20.0007C34.3896 17.8174 35.9085 16.6121 37.5498 16.6121ZM43.7676 14.1726V23.2175H42.9883V14.1726H43.7676ZM21.7773 16.6394C22.7961 16.5602 23.9512 17.3825 23.9512 18.7957V23.2175H23.1572V19.3982C23.1572 18.887 23.0593 18.3302 22.7451 17.8884C22.4108 17.4184 21.881 17.1473 21.1797 17.1472C21.0612 17.1472 20.9468 17.1578 20.8369 17.1736C21.1219 16.832 21.4632 16.6637 21.7764 16.6384L21.7773 16.6394ZM19.2012 14.1726V23.2175H18.4219V14.1726H19.2012ZM29.2734 17.1902C27.9883 17.2095 26.915 18.3173 26.915 20.0007C26.915 20.8755 27.1764 21.5778 27.624 22.0671C28.0712 22.5558 28.6742 22.7966 29.2812 22.7966C29.8935 22.7966 30.4993 22.5572 30.9492 22.0681C31.3997 21.5784 31.6611 20.8756 31.6611 20.0007C31.6611 18.3313 30.5875 17.2093 29.2881 17.1902H29.2734ZM37.542 17.1902C36.2568 17.2094 35.1836 18.3172 35.1836 20.0007C35.1836 20.8755 35.4449 21.5778 35.8926 22.0671C36.3398 22.5558 36.9427 22.7966 37.5498 22.7966C38.162 22.7965 38.7679 22.5572 39.2178 22.0681C39.6682 21.5784 39.9297 20.8756 39.9297 20.0007C39.9297 18.3313 38.8561 17.2093 37.5566 17.1902H37.542ZM15.4668 4.69409C15.7457 4.76137 15.967 4.85018 16.1084 4.95093C16.2374 5.0429 16.2567 5.10937 16.2568 5.16577V7.92163C16.2569 8.49904 16.739 8.98111 17.3164 8.9812H17.5195V9.55933H16.7998C16.0689 9.55925 15.4775 8.97719 15.4775 8.23706V5.03687C15.4775 4.91354 15.4633 4.79771 15.4424 4.68823C15.4505 4.69013 15.4587 4.69215 15.4668 4.69409ZM12.334 0.514404V9.55933H11.5547V0.514404H12.334ZM43.7891 8.36792V9.54565H20.4424V8.36792H43.7891ZM4.53418 0.514404L2.90527 5.54272L2.69336 6.19702H7.47461L7.25586 5.53979L5.58594 0.514404H6.50684L9.49121 9.54565H8.60352L7.78613 7.12964L7.67188 6.78979H2.5L2.38867 7.13647L1.61035 9.54565H0.722656L3.61621 0.514404H4.53418ZM16.2568 0.514404V3.15503H17.5195V3.54663H14.4014V3.15503H15.4775V0.514404H16.2568Z" fill="#BBBBBB" stroke="#BBBBBB"/>
</g>
<defs>
<clipPath id="clip0_2825_3520">
<rect width="44.2887" height="24" fill="white"/>
</clipPath>
</defs>
</svg>
