<svg width="486" height="486" viewBox="0 0 486 486" fill="none" xmlns="http://www.w3.org/2000/svg">
<g clip-path="url(#clip0_2825_3561)">
<rect width="486" height="486" rx="24" fill="#111114"/>
<path d="M44.4416 66.5038L42.7256 72.0966L44.0148 72.4919L45.7156 66.8947L44.4416 66.5038ZM47.2618 67.3681L45.5602 72.9663L58.2739 76.8655L59.9989 71.2736L47.2618 67.3681ZM61.5263 71.7947L59.8372 77.2878C61.3196 77.6292 63.1614 77.7819 64.8954 77.719C66.4677 77.6651 67.9501 77.4136 68.9653 77.0811C68.3095 76.2366 67.2134 75.1944 65.9556 74.269C64.554 73.2448 62.9458 72.3464 61.5263 71.7947ZM46.9411 78.1952C47.6382 80.0729 48.8448 82.3101 50.2868 84.2866C52.2634 86.9909 54.7161 89.228 56.5759 89.7401L58.0134 90.1444L53.8087 92.6331C57.088 93.0015 62.847 92.9296 65.6232 92.2468C64.2486 89.7671 63.3411 86.5507 62.9907 84.1788L60.9603 87.5569L60.6278 87.539C57.7169 87.3413 55.4798 85.5714 53.9525 83.4331C52.7935 81.8069 52.0118 79.9472 51.5626 78.2581C49.8915 79.1835 48.472 78.9409 46.9411 78.1952ZM74.4009 81.1151C70.87 81.1151 67.5997 82.2472 64.9404 84.1698C65.147 85.5804 65.3087 86.7663 65.5962 87.9073C65.6411 87.9073 65.6771 87.8983 65.722 87.8983H65.8837C66.6923 87.8894 67.4829 88.096 68.1837 88.5003C70.322 89.7401 71.0587 92.4983 69.8279 94.6366C68.588 96.7749 65.8298 97.5116 63.6915 96.2808C62.9278 95.8405 62.3439 95.1936 61.9575 94.4569C60.8165 94.5468 59.6306 94.5827 58.4626 94.5647C58.3189 95.4452 58.238 96.3526 58.238 97.278C58.238 101.582 59.9181 105.49 62.6583 108.383H70.1243C69.9986 107.969 69.9267 107.529 69.9267 107.071C69.9267 104.6 71.9482 102.579 74.4189 102.579C76.8896 102.579 78.9111 104.6 78.9111 107.071C78.9111 107.529 78.8392 107.969 78.7134 108.383H84.2837V106.433C83.1068 106.819 81.786 106.73 80.6361 106.065C78.4978 104.825 77.7611 102.067 78.9919 99.9284C79.7556 98.5987 81.1482 97.7542 82.6755 97.6823H82.8372C83.3314 97.6733 83.8165 97.7542 84.2837 97.9069V96.6311C82.3161 97.269 80.088 96.4694 79.0099 94.6097C77.779 92.4714 78.5157 89.7132 80.654 88.4733C81.3099 88.096 82.0466 87.8983 82.8013 87.8804H82.954C83.4122 87.8894 83.8614 87.9612 84.2837 88.096V84.4843C81.5525 82.3729 78.1204 81.1151 74.4009 81.1151ZM74.4009 82.9929C76.8716 82.9929 78.8931 85.0144 78.8931 87.4851C78.8931 89.9558 76.8716 91.9772 74.4009 91.9772C71.9302 91.9772 69.9087 89.9558 69.9087 87.4851C69.9087 85.0144 71.9302 82.9929 74.4009 82.9929ZM74.4009 84.6101C72.8017 84.6101 71.5259 85.8858 71.5259 87.4851C71.5259 89.0843 72.8017 90.3601 74.4009 90.3601C76.0001 90.3601 77.2759 89.0843 77.2759 87.4851C77.2759 85.8858 76.0001 84.6101 74.4009 84.6101ZM74.4009 86.0476C75.1915 86.0476 75.8384 86.6944 75.8384 87.4851C75.8384 88.2757 75.1915 88.9226 74.4009 88.9226C73.6103 88.9226 72.9634 88.2757 72.9634 87.4851C72.9634 86.6944 73.6103 86.0476 74.4009 86.0476ZM82.8372 89.4976C82.3521 89.5065 81.8759 89.6323 81.4626 89.8749C80.079 90.6745 79.6118 92.4175 80.4114 93.8011C81.2021 95.1667 82.9091 95.6429 84.2837 94.8792V92.7679C84.1849 93.1093 83.9603 93.4237 83.6189 93.6124C82.9271 94.0077 82.0556 93.7651 81.6603 93.0823C81.265 92.3995 81.4986 91.519 82.1814 91.1237C82.388 90.9979 82.6216 90.9351 82.8642 90.9261C83.3943 90.9081 83.8884 91.1866 84.1489 91.6448C84.2118 91.7526 84.2478 91.8604 84.2837 91.9683V89.8479C83.8525 89.6144 83.3493 89.4886 82.8372 89.4976ZM74.4009 95.8405C75.1915 95.8405 75.8384 96.4874 75.8384 97.278C75.8384 98.0686 75.1915 98.7155 74.4009 98.7155C73.6103 98.7155 72.9634 98.0686 72.9634 97.278C72.9634 96.4874 73.6103 95.8405 74.4009 95.8405ZM65.8118 97.6823H65.9646C67.5548 97.7003 69.0193 98.5538 69.8099 99.9284C71.0407 102.067 70.304 104.825 68.1657 106.065C66.0275 107.296 63.2693 106.559 62.0294 104.421C60.7986 102.282 61.5353 99.5241 63.6736 98.2843C64.3204 97.9069 65.0571 97.7003 65.8118 97.6823ZM65.8478 99.2995C65.3716 99.3085 64.8954 99.4433 64.4821 99.6858C63.0986 100.485 62.6314 102.228 63.431 103.612C64.2306 104.996 65.9736 105.463 67.3571 104.663C68.7407 103.864 69.2079 102.121 68.4083 100.737C67.8782 99.8206 66.8989 99.2726 65.8478 99.2995ZM82.7474 99.2995C81.7681 99.3444 80.8786 99.8835 80.3935 100.737C79.5939 102.121 80.0611 103.864 81.4446 104.663C82.361 105.193 83.4302 105.166 84.2837 104.69V102.489C84.2478 102.633 84.1939 102.767 84.122 102.893C83.7267 103.576 82.8462 103.81 82.1634 103.414C81.4806 103.019 81.238 102.148 81.6333 101.456C81.8759 101.033 82.3251 100.764 82.8103 100.737H82.9181C83.1607 100.746 83.3943 100.809 83.6009 100.926C83.9603 101.132 84.2028 101.474 84.2837 101.851V99.6679C83.8794 99.4343 83.4122 99.3085 82.954 99.2995H82.7474ZM65.8837 100.737C66.4048 100.728 66.8989 100.998 67.1595 101.456C67.5548 102.139 67.3212 103.019 66.6384 103.414C65.9556 103.819 65.0661 103.585 64.6708 102.893C64.2755 102.201 64.5091 101.321 65.2009 100.926C65.4075 100.809 65.6411 100.746 65.8837 100.737ZM74.4189 104.196C72.8196 104.196 71.5439 105.472 71.5439 107.071C71.5439 107.547 71.6607 107.987 71.8583 108.383H73.8349C73.3318 108.158 72.9814 107.655 72.9814 107.071C72.9814 106.28 73.6282 105.633 74.4189 105.633C75.2095 105.633 75.8564 106.28 75.8564 107.071C75.8564 107.655 75.506 108.158 75.0028 108.383H76.9794C77.1771 107.987 77.2939 107.547 77.2939 107.071C77.2939 105.472 76.0181 104.196 74.4189 104.196Z" fill="#F9F9F9"/>
<path d="M112.258 97L108.781 90.8452H105.717V97H101.108V77.68H109.112C114.411 77.68 116.647 80.4676 116.647 84.2488C116.647 86.9812 115.487 89.1892 112.893 90.2104L116.84 97H112.258ZM105.717 86.8156H108.946C111.016 86.8156 111.872 85.7668 111.872 84.2488C111.872 82.7584 111.016 81.7096 108.946 81.7096H105.717V86.8156ZM124.988 97.276C121.428 97.276 117.674 95.344 117.674 89.7688C117.674 84.4144 121.152 82.372 124.988 82.372C128.687 82.372 131.943 84.2212 131.943 89.824C131.943 90.3484 131.916 90.6244 131.861 90.9556H121.952C122.201 93.0532 123.305 93.8536 125.071 93.8536C126.92 93.8536 127.527 93.0808 127.776 92.1424H131.75C131.088 95.4544 128.521 97.276 124.988 97.276ZM121.98 88.3336H127.665C127.583 87.0916 126.948 85.7944 124.878 85.7944C123.194 85.7944 122.256 86.6776 121.98 88.3336ZM133.572 97V77.68H138.098V97H133.572ZM146.994 97.276C143.351 97.276 139.707 95.0956 139.707 89.824C139.707 84.5524 143.351 82.372 146.994 82.372C150.609 82.372 154.28 84.5524 154.28 89.824C154.28 95.0956 150.609 97.276 146.994 97.276ZM143.93 89.824C143.93 92.3632 145.227 93.5224 146.994 93.5224C148.733 93.5224 150.03 92.3632 150.03 89.824C150.03 87.2848 148.733 86.1256 146.994 86.1256C145.227 86.1256 143.93 87.2848 143.93 89.824ZM159.793 97.276C157.53 97.276 155.212 96.172 155.212 93.1636C155.212 89.7964 158.027 89.2168 160.401 88.858L162.553 88.5268C163.823 88.3336 164.209 88.168 164.209 87.2572V87.2296C164.209 85.9048 163.299 85.6012 162.333 85.6012C161.311 85.6012 160.18 85.8772 160.18 87.2848V87.5332L155.957 87.5884V86.8432C155.957 84.0556 157.779 82.372 162.443 82.372C166.887 82.372 168.653 83.9728 168.653 87.0088V97H164.32V94.516H164.127C163.906 95.2336 162.857 97.276 159.793 97.276ZM159.738 92.7496C159.738 93.412 160.097 94.0744 161.394 94.0744C162.94 94.0744 164.209 93.0808 164.209 91.9768V90.6244C163.961 90.928 163.243 91.0108 162.829 91.0936L161.035 91.4248C160.069 91.6456 159.738 92.17 159.738 92.7496ZM176.36 97.276C173.435 97.276 170.123 95.1508 170.123 89.824C170.123 84.5248 173.435 82.372 176.36 82.372C178.485 82.372 179.948 83.5036 180.335 84.58V77.68H184.861V97H180.335V95.068C179.948 96.1444 178.485 97.276 176.36 97.276ZM174.373 89.824C174.373 92.3632 175.891 93.5224 177.492 93.5224C179.065 93.5224 180.528 92.3632 180.528 89.824C180.528 87.2848 179.065 86.1256 177.492 86.1256C175.891 86.1256 174.373 87.2848 174.373 89.824Z" fill="#F9F9F9"/>
<line x1="267.2" y1="-35" x2="267.2" y2="521" stroke="#BBBBBB" stroke-opacity="0.5" stroke-width="0.4"/>
<line x1="-27" y1="134.8" x2="513" y2="134.8" stroke="#BBBBBB" stroke-opacity="0.5" stroke-width="0.4"/>
<path d="M67.5625 175.25H61.1875C60.6697 175.25 60.25 175.67 60.25 176.188V182.562C60.25 183.08 60.6697 183.5 61.1875 183.5H67.5625C68.0803 183.5 68.5 183.08 68.5 182.562V176.188C68.5 175.67 68.0803 175.25 67.5625 175.25Z" stroke="#F9F9F9" stroke-width="1.5" stroke-linecap="round" stroke-linejoin="round"/>
<path d="M78.8125 175.25H72.4375C71.9197 175.25 71.5 175.67 71.5 176.188V182.562C71.5 183.08 71.9197 183.5 72.4375 183.5H78.8125C79.3303 183.5 79.75 183.08 79.75 182.562V176.188C79.75 175.67 79.3303 175.25 78.8125 175.25Z" stroke="#F9F9F9" stroke-width="1.5" stroke-linecap="round" stroke-linejoin="round"/>
<path d="M67.5625 186.5H61.1875C60.6697 186.5 60.25 186.92 60.25 187.438V193.812C60.25 194.33 60.6697 194.75 61.1875 194.75H67.5625C68.0803 194.75 68.5 194.33 68.5 193.812V187.438C68.5 186.92 68.0803 186.5 67.5625 186.5Z" stroke="#F9F9F9" stroke-width="1.5" stroke-linecap="round" stroke-linejoin="round"/>
<path d="M78.8125 186.5H72.4375C71.9197 186.5 71.5 186.92 71.5 187.438V193.812C71.5 194.33 71.9197 194.75 72.4375 194.75H78.8125C79.3303 194.75 79.75 194.33 79.75 193.812V187.438C79.75 186.92 79.3303 186.5 78.8125 186.5Z" stroke="#F9F9F9" stroke-width="1.5" stroke-linecap="round" stroke-linejoin="round"/>
<path d="M94.04 192V178H99.34C103.7 178 105.96 180.5 105.96 185C105.96 189.5 103.7 192 99.34 192H94.04ZM97.04 189.4H99.04C101.9 189.4 102.9 188.08 102.9 185C102.9 181.92 101.9 180.6 99.04 180.6H97.04V189.4ZM110.057 192.2C108.357 192.2 106.717 191.38 106.717 189.24C106.717 186.94 108.597 186.44 110.397 186.18L112.157 185.92C113.117 185.78 113.417 185.62 113.417 185.04V184.9C113.417 183.8 112.697 183.5 111.797 183.5C110.857 183.5 110.017 183.8 110.017 184.88V185.06L107.277 185.08V184.6C107.277 182.56 108.637 181.4 111.877 181.4C115.017 181.4 116.277 182.52 116.277 184.78V192H113.497V190.16H113.377C113.177 190.72 112.337 192.2 110.057 192.2ZM109.637 189C109.637 189.64 110.057 190.12 111.057 190.12C112.437 190.12 113.417 189.2 113.417 188.38V187.22C113.257 187.46 112.757 187.54 112.297 187.62L110.837 187.88C109.937 188.02 109.637 188.46 109.637 189ZM121.834 192.2C119.054 192.2 117.354 190.98 117.334 188.58H119.954C120.054 189.56 120.714 190.02 121.854 190.02C122.834 190.02 123.494 189.68 123.494 188.94C123.494 188.46 123.174 188.16 122.494 188.02L120.574 187.62C118.394 187.12 117.614 185.96 117.614 184.58C117.614 182.56 119.354 181.4 121.874 181.4C124.654 181.4 126.114 182.76 126.154 185H123.714C123.594 183.96 122.914 183.58 121.914 183.58C120.914 183.58 120.454 183.94 120.454 184.5C120.454 185.02 120.834 185.36 121.534 185.5L123.494 185.92C125.134 186.28 126.494 187.04 126.494 188.88C126.494 191.2 124.354 192.2 121.834 192.2ZM127.557 192V178H130.477V183.78H130.597C130.777 182.8 131.777 181.4 133.917 181.4C135.937 181.4 137.497 182.7 137.497 185.4V192H134.577V186.1C134.577 184.52 133.877 183.82 132.657 183.82C131.437 183.82 130.477 184.52 130.477 186.1V192H127.557ZM145.132 192.2C143.592 192.2 142.452 191.4 142.072 190.5V192H139.152V178H142.072V183.1C142.452 182.2 143.592 181.4 145.132 181.4C147.312 181.4 149.692 182.98 149.692 186.8C149.692 190.62 147.312 192.2 145.132 192.2ZM141.952 186.8C141.952 188.84 143.152 189.78 144.432 189.78C145.732 189.78 146.932 188.84 146.932 186.8C146.932 184.76 145.732 183.82 144.432 183.82C143.152 183.82 141.952 184.76 141.952 186.8ZM155.682 192.2C153.062 192.2 150.462 190.58 150.462 186.8C150.462 183.02 153.062 181.4 155.682 181.4C158.302 181.4 160.902 183.02 160.902 186.8C160.902 190.58 158.302 192.2 155.682 192.2ZM153.202 186.8C153.202 188.86 154.282 189.78 155.682 189.78C157.082 189.78 158.162 188.86 158.162 186.8C158.162 184.74 157.082 183.82 155.682 183.82C154.282 183.82 153.202 184.74 153.202 186.8ZM164.909 192.2C163.209 192.2 161.569 191.38 161.569 189.24C161.569 186.94 163.449 186.44 165.249 186.18L167.009 185.92C167.969 185.78 168.269 185.62 168.269 185.04V184.9C168.269 183.8 167.549 183.5 166.649 183.5C165.709 183.5 164.869 183.8 164.869 184.88V185.06L162.129 185.08V184.6C162.129 182.56 163.489 181.4 166.729 181.4C169.869 181.4 171.129 182.52 171.129 184.78V192H168.349V190.16H168.229C168.029 190.72 167.189 192.2 164.909 192.2ZM164.489 189C164.489 189.64 164.909 190.12 165.909 190.12C167.289 190.12 168.269 189.2 168.269 188.38V187.22C168.109 187.46 167.609 187.54 167.149 187.62L165.689 187.88C164.789 188.02 164.489 188.46 164.489 189ZM175.803 187.4V192H172.883V181.6H175.803V184.12H175.883C176.243 182.6 177.223 181.52 178.883 181.52C179.123 181.52 179.383 181.54 179.683 181.62V184.08C179.363 184.04 179.123 184.02 178.863 184.02C177.303 184.02 175.803 184.88 175.803 187.4ZM184.417 192.2C182.237 192.2 179.857 190.62 179.857 186.8C179.857 182.98 182.237 181.4 184.417 181.4C185.957 181.4 187.097 182.2 187.477 183.1V178H190.397V192H187.477V190.5C187.097 191.4 185.957 192.2 184.417 192.2ZM182.617 186.8C182.617 188.84 183.817 189.78 185.117 189.78C186.397 189.78 187.597 188.84 187.597 186.8C187.597 184.76 186.397 183.82 185.117 183.82C183.817 183.82 182.617 184.76 182.617 186.8Z" fill="#F9F9F9"/>
<path d="M115.364 300.5V289.3H119.428C122.932 289.3 124.724 291.316 124.724 294.9C124.724 298.484 122.932 300.5 119.428 300.5H115.364ZM117.46 298.66H119.22C121.668 298.66 122.58 297.508 122.58 294.9C122.58 292.292 121.668 291.14 119.22 291.14H117.46V298.66ZM129.503 300.66C127.343 300.66 125.391 299.428 125.391 296.324C125.391 293.252 127.295 292.02 129.471 292.02C131.615 292.02 133.375 293.204 133.375 296.244C133.375 296.532 133.359 296.692 133.327 296.868H127.327C127.455 298.42 128.239 299.092 129.551 299.092C130.591 299.092 131.199 298.692 131.439 297.892H133.263C132.815 299.78 131.359 300.66 129.503 300.66ZM127.343 295.62H131.439C131.391 294.452 130.783 293.588 129.439 293.588C128.239 293.588 127.487 294.26 127.343 295.62ZM134.266 303.54V292.18H136.314V293.38C136.714 292.596 137.674 292.02 138.89 292.02C140.682 292.02 142.554 293.3 142.554 296.34C142.554 299.38 140.682 300.66 138.89 300.66C137.674 300.66 136.714 300.084 136.314 299.3V303.54H134.266ZM136.218 296.34C136.218 298.132 137.29 298.948 138.41 298.948C139.562 298.948 140.634 298.132 140.634 296.34C140.634 294.548 139.562 293.732 138.41 293.732C137.29 293.732 136.218 294.548 136.218 296.34ZM143.459 300.5V289.3H145.507V300.5H143.459ZM150.536 300.66C148.44 300.66 146.408 299.348 146.408 296.34C146.408 293.332 148.44 292.02 150.536 292.02C152.616 292.02 154.664 293.332 154.664 296.34C154.664 299.348 152.616 300.66 150.536 300.66ZM148.328 296.34C148.328 298.148 149.32 298.948 150.536 298.948C151.736 298.948 152.728 298.148 152.728 296.34C152.728 294.532 151.736 293.732 150.536 293.732C149.32 293.732 148.328 294.532 148.328 296.34ZM155.273 301.924C156.809 302.132 157.273 301.556 157.513 300.964C157.689 300.532 157.689 300.276 157.513 299.844L154.441 292.18H156.537L158.665 297.94L160.809 292.18H162.921L159.465 300.724C158.489 303.124 157.449 303.908 155.273 303.668V301.924Z" fill="#F9F9F9"/>
<path d="M119.684 340.66C116.82 340.66 115.124 339.284 115.124 336.948H117.284C117.348 338.036 118.02 338.9 119.7 338.9C121.124 338.9 121.908 338.292 121.908 337.284C121.908 336.372 121.284 335.972 120.164 335.748L118.628 335.444C116.804 335.092 115.428 334.244 115.428 332.356C115.428 330.292 117.076 329.156 119.636 329.156C122.212 329.156 123.828 330.324 123.828 332.484H121.668C121.668 331.46 120.868 330.916 119.588 330.916C118.164 330.916 117.636 331.588 117.636 332.356C117.636 332.98 118.02 333.524 119.14 333.764L120.58 334.052C123.076 334.548 124.132 335.524 124.132 337.268C124.132 339.572 122.244 340.66 119.684 340.66ZM128.91 340.66C126.75 340.66 124.798 339.428 124.798 336.324C124.798 333.252 126.702 332.02 128.878 332.02C131.022 332.02 132.782 333.204 132.782 336.244C132.782 336.532 132.766 336.692 132.734 336.868H126.734C126.862 338.42 127.646 339.092 128.958 339.092C129.998 339.092 130.606 338.692 130.846 337.892H132.67C132.222 339.78 130.766 340.66 128.91 340.66ZM126.75 335.62H130.846C130.798 334.452 130.19 333.588 128.846 333.588C127.646 333.588 126.894 334.26 126.75 335.62ZM135.72 336.628V340.5H133.672V332.18H135.72V334.164H135.768C136.04 333.044 136.824 332.116 138.232 332.116C138.424 332.116 138.648 332.132 138.872 332.196V333.924C138.632 333.892 138.44 333.876 138.232 333.876C136.856 333.876 135.72 334.676 135.72 336.628ZM142.127 340.5L139.055 332.18H141.135L143.375 338.548H143.455L145.695 332.18H147.791L144.703 340.5H142.127ZM151.676 340.66C149.516 340.66 147.564 339.428 147.564 336.324C147.564 333.252 149.468 332.02 151.644 332.02C153.788 332.02 155.548 333.204 155.548 336.244C155.548 336.532 155.532 336.692 155.5 336.868H149.5C149.628 338.42 150.412 339.092 151.724 339.092C152.764 339.092 153.372 338.692 153.612 337.892H155.436C154.988 339.78 153.532 340.66 151.676 340.66ZM149.516 335.62H153.612C153.564 334.452 152.956 333.588 151.612 333.588C150.412 333.588 149.66 334.26 149.516 335.62ZM158.486 336.628V340.5H156.438V332.18H158.486V334.164H158.534C158.806 333.044 159.59 332.116 160.998 332.116C161.19 332.116 161.414 332.132 161.638 332.196V333.924C161.398 333.892 161.206 333.876 160.998 333.876C159.622 333.876 158.486 334.676 158.486 336.628ZM165.297 340.66C163.169 340.66 161.777 339.748 161.761 337.876H163.585C163.697 338.756 164.369 339.108 165.329 339.108C166.209 339.108 166.833 338.804 166.833 338.1C166.833 337.588 166.497 337.332 165.857 337.204L164.321 336.868C162.641 336.484 161.985 335.604 161.985 334.484C161.985 332.916 163.329 332.02 165.329 332.02C167.441 332.02 168.641 333.028 168.673 334.788H166.977C166.849 333.876 166.241 333.572 165.345 333.572C164.433 333.572 163.969 333.876 163.969 334.452C163.969 334.932 164.305 335.236 164.977 335.364L166.561 335.716C167.873 336.02 168.945 336.596 168.945 338.052C168.945 339.892 167.249 340.66 165.297 340.66Z" fill="#F9F9F9"/>
<path d="M80.5 271V288.5C80.5 292.918 84.0817 296.5 88.5 296.5H107" stroke="#BBBBBB" stroke-opacity="0.5" stroke-width="0.4"/>
<path d="M80.5 271.5V328.5C80.5 332.918 84.0817 336.5 88.5 336.5H107.5" stroke="#BBBBBB" stroke-opacity="0.5" stroke-width="0.4"/>
<path d="M70 246.75C74.9706 246.75 79 245.071 79 243C79 240.929 74.9706 239.25 70 239.25C65.0294 239.25 61 240.929 61 243C61 245.071 65.0294 246.75 70 246.75Z" stroke="#F9F9F9" stroke-width="1.5" stroke-miterlimit="10" stroke-linecap="round"/>
<path d="M79 247.031C79 249.102 74.9688 250.781 70 250.781C65.0312 250.781 61 249.102 61 247.031M79 251.062C79 253.133 74.9688 254.812 70 254.812C65.0312 254.812 61 253.133 61 251.062" stroke="#F9F9F9" stroke-width="1.5" stroke-miterlimit="10" stroke-linecap="round"/>
<path d="M61 242.964V255.036C61 257.087 65.0312 258.75 70 258.75C74.9688 258.75 79 257.087 79 255.036V242.964" stroke="#F9F9F9" stroke-width="1.5" stroke-miterlimit="10" stroke-linecap="round"/>
<path d="M94.04 256V242H99.7C103.42 242 105.04 243.94 105.04 246.68C105.04 249.4 103.42 251.34 99.7 251.34H97.04V256H94.04ZM97.04 248.74H99.6C101.24 248.74 101.96 247.92 101.96 246.68C101.96 245.42 101.24 244.6 99.6 244.6H97.04V248.74ZM109.122 251.4V256H106.202V245.6H109.122V248.12H109.202C109.562 246.6 110.542 245.52 112.202 245.52C112.442 245.52 112.702 245.54 113.002 245.62V248.08C112.682 248.04 112.442 248.02 112.182 248.02C110.622 248.02 109.122 248.88 109.122 251.4ZM118.396 256.2C115.776 256.2 113.176 254.58 113.176 250.8C113.176 247.02 115.776 245.4 118.396 245.4C121.016 245.4 123.616 247.02 123.616 250.8C123.616 254.58 121.016 256.2 118.396 256.2ZM115.916 250.8C115.916 252.86 116.996 253.78 118.396 253.78C119.796 253.78 120.876 252.86 120.876 250.8C120.876 248.74 119.796 247.82 118.396 247.82C116.996 247.82 115.916 248.74 115.916 250.8ZM124.523 259.9C123.943 259.9 123.403 259.9 122.823 259.84V257.56H123.843C124.723 257.56 125.023 257.02 125.023 256.2V245.6H127.943V256.64C127.943 258.96 126.583 259.9 124.523 259.9ZM124.883 242.78C124.883 241.86 125.643 241.16 126.483 241.16C127.323 241.16 128.083 241.86 128.083 242.78C128.083 243.68 127.323 244.38 126.483 244.38C125.643 244.38 124.883 243.68 124.883 242.78ZM134.341 256.2C131.701 256.2 129.101 254.74 129.101 250.78C129.101 246.9 131.561 245.4 134.321 245.4C137.001 245.4 139.261 246.8 139.261 250.74C139.261 251.12 139.241 251.32 139.201 251.54H131.881C132.041 253.28 132.941 253.98 134.381 253.98C135.721 253.98 136.301 253.44 136.541 252.6H139.121C138.601 254.98 136.761 256.2 134.341 256.2ZM131.881 249.82H136.501C136.461 248.62 135.841 247.62 134.241 247.62C132.881 247.62 132.081 248.38 131.881 249.82ZM145.253 256.2C142.693 256.2 140.013 254.7 140.013 250.82C140.013 246.94 142.693 245.4 145.253 245.4C147.073 245.4 149.633 246.12 150.013 249.62H147.373C147.113 248.36 146.353 247.84 145.233 247.84C143.573 247.84 142.773 249.1 142.773 250.82C142.773 252.54 143.573 253.76 145.233 253.76C146.393 253.76 147.113 253.18 147.373 251.94H150.013C149.693 255.44 147.093 256.2 145.253 256.2ZM155.749 256.14C153.669 256.14 152.289 255.2 152.289 252.88V247.86H150.529V245.6H152.289V242.92H155.209V245.6H157.269V247.86H155.209V252.46C155.209 253.26 155.449 253.8 156.529 253.8C156.749 253.8 156.929 253.8 157.349 253.76V255.94C156.889 256.06 156.329 256.14 155.749 256.14Z" fill="#F9F9F9"/>
<path d="M232.375 246.188L238 251.812L243.625 246.188" stroke="#F9F9F9" stroke-width="1.875" stroke-linecap="round" stroke-linejoin="round"/>
<path d="M284.08 94V80H289.58C293.18 80 294.82 81.86 294.82 84.58C294.82 87.28 293.18 89.14 289.58 89.14H286.7V94H284.08ZM286.7 86.84H289.48C291.28 86.84 292.1 85.98 292.1 84.58C292.1 83.16 291.28 82.3 289.48 82.3H286.7V86.84ZM298.606 89.16V94H296.046V83.6H298.606V86.08H298.666C299.006 84.68 299.986 83.52 301.746 83.52C301.986 83.52 302.266 83.54 302.546 83.62V85.78C302.246 85.74 302.006 85.72 301.746 85.72C300.026 85.72 298.606 86.72 298.606 89.16ZM307.946 94.2C305.326 94.2 302.786 92.56 302.786 88.8C302.786 85.04 305.326 83.4 307.946 83.4C310.546 83.4 313.106 85.04 313.106 88.8C313.106 92.56 310.546 94.2 307.946 94.2ZM305.186 88.8C305.186 91.06 306.426 92.06 307.946 92.06C309.446 92.06 310.686 91.06 310.686 88.8C310.686 86.54 309.446 85.54 307.946 85.54C306.426 85.54 305.186 86.54 305.186 88.8ZM313.935 97.86C313.415 97.86 312.915 97.86 312.395 97.8V95.8H313.315C314.275 95.8 314.595 95.3 314.595 94.4V83.6H317.155V94.8C317.155 97 315.855 97.86 313.935 97.86ZM314.435 80.7C314.435 79.88 315.115 79.26 315.875 79.26C316.635 79.26 317.315 79.88 317.315 80.7C317.315 81.52 316.635 82.14 315.875 82.14C315.115 82.14 314.435 81.52 314.435 80.7ZM323.539 94.2C320.839 94.2 318.399 92.66 318.399 88.78C318.399 84.94 320.779 83.4 323.499 83.4C326.179 83.4 328.379 84.88 328.379 88.68C328.379 89.04 328.359 89.24 328.319 89.46H320.819C320.979 91.4 321.959 92.24 323.599 92.24C324.899 92.24 325.659 91.74 325.959 90.74H328.239C327.679 93.1 325.859 94.2 323.539 94.2ZM320.839 87.9H325.959C325.899 86.44 325.139 85.36 323.459 85.36C321.959 85.36 321.019 86.2 320.839 87.9ZM334.373 94.2C331.773 94.2 329.193 92.66 329.193 88.82C329.193 84.98 331.773 83.4 334.373 83.4C336.193 83.4 338.653 84.14 339.033 87.5H336.713C336.453 86.1 335.533 85.56 334.353 85.56C332.573 85.56 331.593 86.86 331.593 88.82C331.593 90.78 332.573 92.04 334.353 92.04C335.573 92.04 336.453 91.46 336.713 90.08H339.033C338.713 93.42 336.213 94.2 334.373 94.2ZM344.573 94.14C342.613 94.14 341.333 93.28 341.333 91.08V85.6H339.593V83.6H341.333V80.94H343.893V83.6H345.933V85.6H343.893V90.68C343.893 91.58 344.173 92.08 345.253 92.08C345.493 92.08 345.673 92.08 346.053 92.04V93.96C345.613 94.08 345.113 94.14 344.573 94.14Z" fill="#F9F9F9"/>
<rect x="283.15" y="214.15" width="186.7" height="35.7" rx="7.85" stroke="#BBBBBB" stroke-opacity="0.4" stroke-width="0.3"/>
<path d="M326.844 238V226.56H330.22C331.479 226.56 332.46 227.077 333.164 228.112C333.868 229.136 334.22 230.533 334.22 232.304C334.22 234.075 333.868 235.467 333.164 236.48C332.46 237.493 331.479 238 330.22 238H326.844ZM328.012 236.976H330.124C330.807 236.976 331.367 236.757 331.804 236.32C332.252 235.883 332.561 235.333 332.732 234.672C332.913 234 333.004 233.211 333.004 232.304C333.004 230.896 332.775 229.76 332.316 228.896C331.868 228.021 331.148 227.584 330.156 227.584H328.012V236.976ZM339.605 238.224C338.496 238.224 337.621 237.824 336.981 237.024C336.341 236.224 336.021 235.189 336.021 233.92C336.021 232.629 336.347 231.595 336.997 230.816C337.659 230.027 338.533 229.632 339.621 229.632C340.688 229.632 341.52 229.995 342.117 230.72C342.715 231.445 343.013 232.389 343.013 233.552C343.013 233.851 343.008 234.043 342.997 234.128H337.109C337.12 235.013 337.344 235.771 337.781 236.4C338.229 237.019 338.848 237.328 339.637 237.328C340.288 237.328 340.789 237.141 341.141 236.768C341.504 236.395 341.739 235.973 341.845 235.504H342.901C342.709 236.304 342.336 236.96 341.781 237.472C341.237 237.973 340.512 238.224 339.605 238.224ZM337.109 233.216H341.909C341.909 232.448 341.701 231.808 341.285 231.296C340.88 230.784 340.309 230.528 339.573 230.528C338.869 230.528 338.293 230.784 337.845 231.296C337.397 231.797 337.152 232.437 337.109 233.216ZM345.343 240.832V229.84H346.383V231.152H346.431C346.975 230.139 347.849 229.632 349.055 229.632C350.025 229.632 350.831 230.021 351.471 230.8C352.121 231.568 352.447 232.608 352.447 233.92C352.447 235.221 352.121 236.261 351.471 237.04C350.831 237.808 350.025 238.192 349.055 238.192C347.817 238.192 346.943 237.669 346.431 236.624H346.383V240.832H345.343ZM346.399 233.92C346.399 234.933 346.628 235.749 347.087 236.368C347.556 236.976 348.164 237.28 348.911 237.28C349.668 237.28 350.265 236.96 350.703 236.32C351.14 235.68 351.359 234.88 351.359 233.92C351.359 232.949 351.14 232.144 350.703 231.504C350.265 230.864 349.668 230.544 348.911 230.544C348.164 230.544 347.556 230.853 347.087 231.472C346.628 232.08 346.399 232.896 346.399 233.92ZM354.36 238V237.088H357.32V227.472H354.36V226.56H358.36V237.088H361.304V238H354.36ZM369.586 237.04C368.956 237.829 368.098 238.224 367.01 238.224C365.922 238.224 365.058 237.829 364.418 237.04C363.788 236.251 363.474 235.216 363.474 233.936C363.474 232.645 363.794 231.605 364.434 230.816C365.074 230.027 365.938 229.632 367.026 229.632C368.114 229.632 368.972 230.027 369.602 230.816C370.231 231.605 370.546 232.645 370.546 233.936C370.546 235.216 370.226 236.251 369.586 237.04ZM364.562 233.936C364.562 234.917 364.775 235.728 365.202 236.368C365.628 236.997 366.231 237.312 367.01 237.312C367.799 237.312 368.402 236.997 368.818 236.368C369.244 235.728 369.458 234.917 369.458 233.936C369.458 232.944 369.244 232.133 368.818 231.504C368.402 230.864 367.799 230.544 367.01 230.544C366.231 230.544 365.628 230.864 365.202 231.504C364.775 232.133 364.562 232.944 364.562 233.936ZM373.899 240.864C373.643 240.864 373.366 240.843 373.067 240.8V239.904C373.28 239.936 373.504 239.952 373.739 239.952C374.155 239.952 374.512 239.792 374.811 239.472C375.11 239.163 375.403 238.635 375.691 237.888L372.363 229.84H373.531L376.219 236.656H376.251L378.891 229.84H380.011L376.651 238.24C376.246 239.232 375.84 239.915 375.435 240.288C375.03 240.672 374.518 240.864 373.899 240.864ZM390.814 238V226.56H392.27L394.526 234.144H394.558L396.814 226.56H398.27V238H397.102V228.352H397.086L395.07 235.344H393.998L391.998 228.352H391.982V238H390.814ZM402.711 238.208C401.9 238.208 401.266 238 400.807 237.584C400.348 237.168 400.119 236.581 400.119 235.824C400.119 235.013 400.375 234.432 400.887 234.08C401.41 233.728 402.226 233.451 403.335 233.248C403.655 233.195 403.863 233.157 403.959 233.136C404.055 233.115 404.22 233.077 404.455 233.024C404.7 232.971 404.86 232.917 404.935 232.864C405.01 232.811 405.111 232.741 405.239 232.656C405.367 232.56 405.447 232.448 405.479 232.32C405.522 232.192 405.543 232.048 405.543 231.888C405.543 230.992 404.908 230.544 403.639 230.544C402.924 230.544 402.412 230.693 402.103 230.992C401.794 231.291 401.623 231.728 401.591 232.304H400.503C400.546 231.504 400.834 230.859 401.367 230.368C401.9 229.877 402.679 229.632 403.703 229.632C404.567 229.632 405.26 229.835 405.783 230.24C406.306 230.645 406.567 231.307 406.567 232.224V236.496C406.567 236.795 406.61 237.003 406.695 237.12C406.78 237.227 406.93 237.28 407.143 237.28C407.271 237.28 407.383 237.264 407.479 237.232V237.984C407.298 238.048 407.063 238.08 406.775 238.08C406.402 238.08 406.108 237.984 405.895 237.792C405.692 237.6 405.58 237.259 405.559 236.768H405.527C404.919 237.728 403.98 238.208 402.711 238.208ZM401.207 235.824C401.207 236.325 401.34 236.699 401.607 236.944C401.884 237.179 402.322 237.296 402.919 237.296C403.719 237.296 404.354 237.088 404.823 236.672C405.303 236.256 405.543 235.685 405.543 234.96V233.408C405.394 233.579 405.191 233.707 404.935 233.792C404.69 233.867 404.22 233.973 403.527 234.112C402.631 234.293 402.018 234.491 401.687 234.704C401.367 234.917 401.207 235.291 401.207 235.824ZM410.032 238V237.088H412.688V230.752H410.032V229.84H413.728V237.088H416.064V238H410.032ZM412.24 228.208V226.592H413.888V228.208H412.24ZM418.89 238V229.84H419.93V231.024H419.962C420.591 230.107 421.53 229.648 422.778 229.648C423.578 229.648 424.212 229.877 424.682 230.336C425.162 230.784 425.402 231.456 425.402 232.352V238H424.362V232.576C424.362 231.232 423.743 230.56 422.506 230.56C421.738 230.56 421.114 230.784 420.634 231.232C420.164 231.68 419.93 232.219 419.93 232.848V238H418.89Z" fill="#F9F9F9"/>
<rect x="283.15" y="262.15" width="186.7" height="35.7" rx="7.85" stroke="#BBBBBB" stroke-opacity="0.4" stroke-width="0.3"/>
<path d="M327.068 286V274.56H333.996V275.584H328.236V279.52H333.372V280.544H328.236V284.976H334.156V286H327.068ZM336.293 286V277.84H337.333V279.024H337.365C337.995 278.107 338.933 277.648 340.181 277.648C340.981 277.648 341.616 277.877 342.085 278.336C342.565 278.784 342.805 279.456 342.805 280.352V286H341.765V280.576C341.765 279.232 341.147 278.56 339.909 278.56C339.141 278.56 338.517 278.784 338.037 279.232C337.568 279.68 337.333 280.219 337.333 280.848V286H336.293ZM348.063 286L344.943 277.84H346.095L348.655 284.944H348.687L351.247 277.84H352.367L349.263 286H348.063ZM354.968 286V285.088H357.624V278.752H354.968V277.84H358.664V285.088H361V286H354.968ZM357.176 276.208V274.592H358.824V276.208H357.176ZM366.594 281.44V285.088H369.57V286H363.538V285.088H365.554V278.752H363.538V277.84H366.594V279.504H366.642C366.919 278.949 367.346 278.501 367.922 278.16C368.508 277.819 369.159 277.648 369.874 277.648C370.3 277.648 370.658 277.664 370.946 277.696V278.72C370.722 278.688 370.37 278.672 369.89 278.672C369.047 278.672 368.284 278.944 367.602 279.488C366.93 280.021 366.594 280.672 366.594 281.44ZM378.763 285.04C378.134 285.829 377.275 286.224 376.187 286.224C375.099 286.224 374.235 285.829 373.595 285.04C372.966 284.251 372.651 283.216 372.651 281.936C372.651 280.645 372.971 279.605 373.611 278.816C374.251 278.027 375.115 277.632 376.203 277.632C377.291 277.632 378.15 278.027 378.779 278.816C379.408 279.605 379.723 280.645 379.723 281.936C379.723 283.216 379.403 284.251 378.763 285.04ZM373.739 281.936C373.739 282.917 373.952 283.728 374.379 284.368C374.806 284.997 375.408 285.312 376.187 285.312C376.976 285.312 377.579 284.997 377.995 284.368C378.422 283.728 378.635 282.917 378.635 281.936C378.635 280.944 378.422 280.133 377.995 279.504C377.579 278.864 376.976 278.544 376.187 278.544C375.408 278.544 374.806 278.864 374.379 279.504C373.952 280.133 373.739 280.944 373.739 281.936ZM382.18 286V277.84H383.22V279.024H383.252C383.882 278.107 384.82 277.648 386.068 277.648C386.868 277.648 387.503 277.877 387.972 278.336C388.452 278.784 388.692 279.456 388.692 280.352V286H387.652V280.576C387.652 279.232 387.034 278.56 385.796 278.56C385.028 278.56 384.404 278.784 383.924 279.232C383.455 279.68 383.22 280.219 383.22 280.848V286H382.18ZM394.046 280.48C394.046 279.2 393.71 278.56 393.038 278.56C392.643 278.56 392.328 278.784 392.094 279.232C391.859 279.68 391.742 280.219 391.742 280.848V286H390.734V277.84H391.742V278.944H391.758C392.152 278.08 392.702 277.648 393.406 277.648C394.174 277.648 394.664 278.155 394.878 279.168H394.894C395.342 278.155 395.934 277.648 396.67 277.648C397.214 277.648 397.63 277.877 397.918 278.336C398.206 278.795 398.35 279.44 398.35 280.272V286H397.342V280.48C397.342 279.2 397.011 278.56 396.35 278.56C395.955 278.56 395.635 278.784 395.39 279.232C395.155 279.669 395.038 280.208 395.038 280.848V286H394.046V280.48ZM403.847 286.224C402.738 286.224 401.863 285.824 401.223 285.024C400.583 284.224 400.263 283.189 400.263 281.92C400.263 280.629 400.588 279.595 401.239 278.816C401.9 278.027 402.775 277.632 403.863 277.632C404.93 277.632 405.762 277.995 406.359 278.72C406.956 279.445 407.255 280.389 407.255 281.552C407.255 281.851 407.25 282.043 407.239 282.128H401.351C401.362 283.013 401.586 283.771 402.023 284.4C402.471 285.019 403.09 285.328 403.879 285.328C404.53 285.328 405.031 285.141 405.383 284.768C405.746 284.395 405.98 283.973 406.087 283.504H407.143C406.951 284.304 406.578 284.96 406.023 285.472C405.479 285.973 404.754 286.224 403.847 286.224ZM401.351 281.216H406.151C406.151 280.448 405.943 279.808 405.527 279.296C405.122 278.784 404.551 278.528 403.815 278.528C403.111 278.528 402.535 278.784 402.087 279.296C401.639 279.797 401.394 280.437 401.351 281.216ZM409.712 286V277.84H410.752V279.024H410.784C411.414 278.107 412.352 277.648 413.6 277.648C414.4 277.648 415.035 277.877 415.504 278.336C415.984 278.784 416.224 279.456 416.224 280.352V286H415.184V280.576C415.184 279.232 414.566 278.56 413.328 278.56C412.56 278.56 411.936 278.784 411.456 279.232C410.987 279.68 410.752 280.219 410.752 280.848V286H409.712ZM423.69 286.064C422.655 286.064 421.919 285.915 421.482 285.616C421.055 285.317 420.842 284.741 420.842 283.888V278.752H418.122V277.84H420.842V275.12H421.882V277.84H425.498V278.752H421.882V283.904C421.882 284.405 422.015 284.741 422.282 284.912C422.548 285.072 423.055 285.152 423.802 285.152C424.57 285.152 425.135 285.141 425.498 285.12V286C425.071 286.043 424.468 286.064 423.69 286.064Z" fill="#F9F9F9"/>
<rect x="283" y="413" width="187" height="40" rx="8" fill="#282828"/>
<path d="M346.58 440V426H351.66C356.04 426 358.28 428.52 358.28 433C358.28 437.48 356.04 440 351.66 440H346.58ZM349.2 437.7H351.4C354.46 437.7 355.6 436.26 355.6 433C355.6 429.74 354.46 428.3 351.4 428.3H349.2V437.7ZM364.358 440.2C361.658 440.2 359.218 438.66 359.218 434.78C359.218 430.94 361.598 429.4 364.318 429.4C366.998 429.4 369.198 430.88 369.198 434.68C369.198 435.04 369.178 435.24 369.138 435.46H361.638C361.798 437.4 362.778 438.24 364.418 438.24C365.718 438.24 366.478 437.74 366.778 436.74H369.058C368.498 439.1 366.678 440.2 364.358 440.2ZM361.658 433.9H366.778C366.718 432.44 365.958 431.36 364.278 431.36C362.778 431.36 361.838 432.2 361.658 433.9ZM370.415 443.8V429.6H372.975V431.1C373.475 430.12 374.675 429.4 376.195 429.4C378.435 429.4 380.775 431 380.775 434.8C380.775 438.6 378.435 440.2 376.195 440.2C374.675 440.2 373.475 439.48 372.975 438.5V443.8H370.415ZM372.855 434.8C372.855 437.04 374.195 438.06 375.595 438.06C377.035 438.06 378.375 437.04 378.375 434.8C378.375 432.56 377.035 431.54 375.595 431.54C374.195 431.54 372.855 432.56 372.855 434.8ZM382.011 440V426H384.571V440H382.011ZM390.961 440.2C388.341 440.2 385.801 438.56 385.801 434.8C385.801 431.04 388.341 429.4 390.961 429.4C393.561 429.4 396.121 431.04 396.121 434.8C396.121 438.56 393.561 440.2 390.961 440.2ZM388.201 434.8C388.201 437.06 389.441 438.06 390.961 438.06C392.461 438.06 393.701 437.06 393.701 434.8C393.701 432.54 392.461 431.54 390.961 431.54C389.441 431.54 388.201 432.54 388.201 434.8ZM396.987 441.78C398.907 442.04 399.487 441.32 399.787 440.58C400.007 440.04 400.007 439.72 399.787 439.18L395.947 429.6H398.567L401.227 436.8L403.907 429.6H406.547L402.227 440.28C401.007 443.28 399.707 444.26 396.987 443.96V441.78Z" fill="#F9F9F9"/>
</g>
<defs>
<clipPath id="clip0_2825_3561">
<rect width="486" height="486" rx="24" fill="white"/>
</clipPath>
</defs>
</svg>
