<svg width="33" height="32" viewBox="0 0 33 32" fill="none" xmlns="http://www.w3.org/2000/svg">
<path d="M12.8431 31.0005C12.6756 31.0006 12.51 30.964 12.3581 30.8934C12.2062 30.8227 12.0716 30.7196 11.9638 30.5914C11.856 30.4631 11.7776 30.3128 11.734 30.151C11.6905 29.9892 11.683 29.8199 11.7119 29.6548V29.648L13.4688 20.0005H6.66689C6.47809 20.0004 6.29315 19.947 6.13347 19.8462C5.97378 19.7455 5.84588 19.6016 5.76454 19.4312C5.68321 19.2609 5.65177 19.0709 5.67386 18.8834C5.69596 18.6959 5.77068 18.5185 5.88939 18.3717L19.5875 1.43796C19.7434 1.24003 19.9599 1.09863 20.2038 1.03536C20.4477 0.972091 20.7056 0.990445 20.938 1.08762C21.1705 1.18478 21.3647 1.35542 21.4911 1.57343C21.6174 1.79144 21.6688 2.04482 21.6375 2.29483C21.6375 2.31358 21.6325 2.33171 21.6294 2.35046L19.8663 12.0005H26.6669C26.8557 12.0005 27.0406 12.0539 27.2003 12.1547C27.36 12.2554 27.4879 12.3993 27.5692 12.5697C27.6506 12.74 27.682 12.93 27.6599 13.1175C27.6378 13.305 27.5631 13.4824 27.4444 13.6292L13.7444 30.563C13.6367 30.699 13.4998 30.8089 13.3438 30.8847C13.1877 30.9604 13.0166 31 12.8431 31.0005Z" fill="#F9F9F9"/>
</svg>
