<svg width="33" height="33" viewBox="0 0 33 33" fill="none" xmlns="http://www.w3.org/2000/svg">
<g clip-path="url(#clip0_2825_3732)">
<path d="M29.9211 13.7211C29.0461 13.0724 27.9711 12.5961 26.8361 12.3393C26.6498 12.2973 26.4792 12.2033 26.3443 12.068C26.2094 11.9328 26.1157 11.762 26.0743 11.5755C25.5868 9.40363 24.5374 7.54113 22.9949 6.12988C21.2018 4.48676 18.8305 3.58301 16.3174 3.58301C14.108 3.58301 12.0674 4.27551 10.4193 5.58613C9.30227 6.47579 8.40317 7.60875 7.79051 8.89863C7.72408 9.03977 7.62556 9.1634 7.50283 9.25966C7.38009 9.35592 7.23653 9.42214 7.08363 9.45301C5.41176 9.79051 3.90238 10.5074 2.74988 11.523C1.15863 12.9293 0.317383 14.7986 0.317383 16.933C0.317383 19.0905 1.22301 21.058 2.86676 22.4805C4.43676 23.8361 6.55051 24.583 8.81738 24.583H15.3174V14.9974L13.0243 17.2905C12.9285 17.3862 12.8143 17.4615 12.6887 17.5118C12.563 17.5621 12.4284 17.5863 12.293 17.5831C12.1577 17.5798 12.0244 17.5491 11.9013 17.4928C11.7782 17.4365 11.6678 17.3557 11.5768 17.2555C11.2143 16.8574 11.2493 16.2368 11.6299 15.8561L15.6105 11.8761C15.798 11.6887 16.0523 11.5835 16.3174 11.5835C16.5825 11.5835 16.8367 11.6887 17.0243 11.8761L21.0049 15.8549C21.3974 16.248 21.4199 16.8924 21.0293 17.2868C20.9366 17.3804 20.8263 17.4547 20.7048 17.5056C20.5833 17.5565 20.453 17.5828 20.3213 17.5832C20.1896 17.5835 20.0591 17.5578 19.9373 17.5076C19.8156 17.4574 19.7049 17.3836 19.6118 17.2905L17.3174 14.9974V24.583H25.0674C27.0261 24.583 28.8118 24.033 30.0955 23.0349C31.5493 21.9036 32.3174 20.2849 32.3174 18.358C32.3174 16.4868 31.4886 14.8824 29.9211 13.7211ZM15.3174 28.6093C15.3174 28.8745 15.4227 29.1288 15.6103 29.3164C15.7978 29.5039 16.0522 29.6093 16.3174 29.6093C16.5826 29.6093 16.837 29.5039 17.0245 29.3164C17.212 29.1288 17.3174 28.8745 17.3174 28.6093V24.583H15.3174V28.6093Z" fill="#F9F9F9"/>
</g>
<defs>
<clipPath id="clip0_2825_3732">
<rect width="32" height="32" fill="white" transform="translate(0.317383 0.596191)"/>
</clipPath>
</defs>
</svg>
