<svg width="48" height="48" viewBox="0 0 48 48" fill="none" xmlns="http://www.w3.org/2000/svg">
<rect width="48" height="48" rx="24" fill="#111114"/>
<g clip-path="url(#clip0_2825_3610)">
<path d="M38.87 15.5858C38.7967 15.4348 38.6883 15.3035 38.5539 15.2029C38.4195 15.1023 38.263 15.0353 38.0974 15.0075C37.9319 14.9797 37.762 14.9918 37.6021 15.043C37.4422 15.0941 37.2969 15.1827 37.1782 15.3014L33.9813 18.4983C33.8509 18.6269 33.6751 18.699 33.4919 18.699C33.3088 18.699 33.1329 18.6269 33.0025 18.4983L31.5975 17.0933C31.469 16.9627 31.397 16.7868 31.397 16.6036C31.397 16.4204 31.469 16.2445 31.5975 16.1139L34.7775 12.9333C34.8992 12.8116 34.9892 12.662 35.0397 12.4975C35.0902 12.333 35.0996 12.1586 35.0671 11.9897C35.0346 11.8207 34.9612 11.6623 34.8533 11.5282C34.7454 11.3942 34.6063 11.2886 34.4482 11.2208C31.9663 10.1583 28.8807 10.7552 26.9482 12.6764C25.2725 14.3395 24.7713 16.9264 25.5732 19.7827C25.6077 19.9052 25.6076 20.035 25.5727 20.1575C25.5378 20.28 25.4696 20.3904 25.3757 20.4764L14.5694 30.517C14.2114 30.8391 13.9227 31.2307 13.721 31.6679C13.5192 32.1052 13.4085 32.5789 13.3958 33.0603C13.383 33.5417 13.4684 34.0206 13.6467 34.4679C13.825 34.9153 14.0925 35.3216 14.4329 35.6622C14.7734 36.0028 15.1796 36.2705 15.6268 36.449C16.074 36.6276 16.5529 36.7132 17.0343 36.7006C17.5157 36.6881 17.9895 36.5777 18.4269 36.3762C18.8642 36.1746 19.2559 35.8861 19.5782 35.5283L29.7088 24.7033C29.7936 24.6114 29.9018 24.5445 30.0219 24.5095C30.1419 24.4746 30.2692 24.4731 30.39 24.5052C33.2025 25.2552 35.765 24.7552 37.4169 23.1302C38.3669 22.1927 39.03 20.8695 39.285 19.3983C39.5244 18.0108 39.3732 16.6208 38.87 15.5858Z" fill="#F9F9F9"/>
<path d="M34.7296 31.3489C33.8583 30.6245 31.9971 28.9489 30.1002 27.2101L25.9708 31.6232C27.7358 33.4982 29.3333 35.2389 30.0333 36.0532L30.0377 36.0582C30.2058 36.2507 30.4115 36.4067 30.6422 36.5168C30.8728 36.6269 31.1236 36.6886 31.3789 36.6982H31.4477C31.9387 36.6968 32.4097 36.5034 32.7602 36.1595L32.7646 36.1551L34.8539 34.0695C35.0354 33.8884 35.1771 33.6714 35.2699 33.4324C35.3627 33.1934 35.4045 32.9377 35.3928 32.6816C35.381 32.4254 35.3159 32.1746 35.2016 31.9451C35.0872 31.7156 34.9263 31.5125 34.7289 31.3489H34.7296ZM14.8052 21.1076C14.8062 20.8704 14.7413 20.6376 14.6177 20.4351C14.6004 20.4077 14.5911 20.376 14.591 20.3436C14.5909 20.3112 14.5998 20.2795 14.6169 20.2519C14.634 20.2244 14.6585 20.2023 14.6876 20.188C14.7167 20.1738 14.7492 20.168 14.7814 20.1714H14.7852C14.8377 20.177 15.1183 20.2176 15.5164 20.4595C15.8121 20.6389 16.6558 21.2145 18.1246 22.6807C18.1089 23.1801 18.2686 23.6692 18.5758 24.0632L22.7152 20.2164C22.3486 19.8692 21.8695 19.6652 21.3652 19.6414C21.3605 19.6362 21.3561 19.6308 21.3521 19.6251L21.3114 19.582L19.7777 17.467C19.6072 17.2355 19.4954 16.966 19.4518 16.6818C19.4083 16.3976 19.4343 16.1071 19.5277 15.8351C19.6684 15.4301 19.9243 15.0749 20.2639 14.8132C20.6196 14.5376 21.4221 14.2057 22.1039 14.1495C22.4216 14.1232 22.7413 14.143 23.0533 14.2082C23.2028 14.2443 23.3501 14.2888 23.4946 14.3414C23.5383 14.3577 23.5833 14.3709 23.6289 14.3807C23.8273 14.4247 24.0344 14.4072 24.2226 14.3305C24.4107 14.2538 24.5711 14.1216 24.6823 13.9515C24.7935 13.7815 24.8502 13.5815 24.8449 13.3784C24.8396 13.1753 24.7726 12.9786 24.6527 12.8145C24.6364 12.7926 24.5702 12.7026 24.4721 12.5814C24.289 12.3505 24.0884 12.134 23.8721 11.9339C23.3627 11.4739 22.0427 10.6982 20.3096 10.6982C19.3177 10.6975 18.3351 10.8885 17.4158 11.2607C15.0177 12.2264 13.4489 13.547 12.7277 14.2476L12.7221 14.2532C12.2368 14.7324 11.7874 15.2468 11.3777 15.792C11.2228 16.0104 11.1221 16.2626 11.0839 16.5276C11.0661 16.6404 11.0068 16.7424 10.9177 16.8138C10.8285 16.8851 10.716 16.9206 10.6021 16.9132H10.5339C10.1932 16.911 9.86543 17.0435 9.62206 17.282L7.78144 19.0764L7.76144 19.0964C7.5299 19.3369 7.39932 19.657 7.39653 19.9909C7.39374 20.3247 7.51896 20.647 7.74644 20.8914C7.75831 20.9039 7.76956 20.9157 7.78206 20.9276L10.7508 23.8232C10.9954 24.0629 11.324 24.1975 11.6664 24.1982C12.0072 24.2005 12.3349 24.068 12.5783 23.8295L14.4196 22.0301C14.5424 21.91 14.6398 21.7665 14.706 21.608C14.7723 21.4495 14.806 21.2794 14.8052 21.1076Z" fill="#F9F9F9"/>
</g>
<defs>
<clipPath id="clip0_2825_3610">
<rect width="32" height="32" fill="white" transform="translate(7.39648 7.69824)"/>
</clipPath>
</defs>
</svg>
