<svg width="131" height="24" viewBox="0 0 131 24" fill="none" xmlns="http://www.w3.org/2000/svg">
<g clip-path="url(#clip0_2825_3506)">
<path d="M27.1934 19.8076H19.5957C19.7173 17.8378 20.5515 15.9729 21.9551 14.5693C23.3587 13.1657 25.2236 12.3306 27.1934 12.209V19.8076Z" fill="#BBBBBB" stroke="#BBBBBB"/>
<path d="M10.0391 12.209C10.9336 12.2639 11.8142 12.4658 12.6445 12.8096C13.5059 13.1663 14.2987 13.6682 14.9883 14.293L15.2773 14.5684C16.0309 15.322 16.6293 16.2165 17.0371 17.2012C17.381 18.0316 17.5815 18.9127 17.6367 19.8076H10.0391V12.209Z" fill="#BBBBBB" stroke="#BBBBBB"/>
<path d="M8.11523 12.1923V19.79C7.22071 19.735 6.33998 19.5341 5.50977 19.1904C4.5253 18.7827 3.63049 18.1852 2.87695 17.4316C2.12348 16.6781 1.52601 15.7834 1.11816 14.7988C0.774199 13.9682 0.572814 13.0873 0.517578 12.1923H8.11523Z" fill="#BBBBBB" stroke="#BBBBBB"/>
<path d="M69.0264 4.19238L72.8984 14.9102L73.3662 16.2061L73.8379 14.9111L77.7441 4.19238H80.1982L72.8818 23.5H70.5635L72.1328 19.1992L72.1963 19.0244L72.1309 18.8506L66.5703 4.19238H69.0264Z" fill="#BBBBBB" stroke="#BBBBBB"/>
<mask id="path-5-inside-1_2825_3506" fill="white">
<path d="M129.387 3.69233C129.626 3.69269 129.861 3.74756 130.07 3.85168C130.286 3.95552 130.464 4.11296 130.582 4.30498C130.705 4.49232 130.769 4.70511 130.769 4.92175C130.769 5.1384 130.705 5.35119 130.582 5.53853C130.465 5.72978 130.288 5.88708 130.073 5.99184C129.862 6.09804 129.624 6.15386 129.382 6.15386C129.14 6.15386 128.902 6.09804 128.692 5.99184C128.478 5.88635 128.301 5.72923 128.182 5.53853C128.062 5.35105 127.999 5.13889 128 4.92313C128.001 4.7063 128.065 4.49334 128.185 4.30498C128.304 4.11219 128.483 3.95457 128.701 3.85168C128.91 3.74652 129.147 3.6916 129.387 3.69233ZM129.387 3.9341C129.196 3.93391 129.007 3.97743 128.84 4.06048C128.666 4.14459 128.522 4.27138 128.426 4.42586C128.329 4.57731 128.277 4.74856 128.275 4.92313C128.275 5.09665 128.326 5.26713 128.423 5.41764C128.519 5.57138 128.661 5.69803 128.834 5.78304C129.003 5.86934 129.194 5.91476 129.389 5.91476C129.583 5.91476 129.774 5.86934 129.943 5.78304C130.115 5.69721 130.257 5.57076 130.354 5.41764C130.451 5.26713 130.502 5.09665 130.502 4.92313C130.501 4.74856 130.448 4.57731 130.351 4.42586C130.26 4.26985 130.12 4.14022 129.949 4.05223C129.776 3.97022 129.583 3.92951 129.387 3.9341ZM128.769 5.58249V4.27751H129.538C129.618 4.27916 129.696 4.29702 129.767 4.32971C129.825 4.35915 129.873 4.40184 129.906 4.45335C129.943 4.51106 129.962 4.57647 129.962 4.64291C129.963 4.73261 129.926 4.81938 129.857 4.88468C129.779 4.95446 129.676 4.99813 129.566 5.00829C129.603 5.0189 129.638 5.03568 129.668 5.05774C129.705 5.08728 129.738 5.12048 129.767 5.15666C129.767 5.1704 129.813 5.22259 129.875 5.31599L130.048 5.59073H129.68L129.557 5.37919C129.508 5.27726 129.439 5.18413 129.353 5.10446C129.292 5.06679 129.22 5.04752 129.146 5.04951H129.069V5.59898L128.769 5.58249ZM129.078 4.84071H129.199C129.302 4.84416 129.405 4.83864 129.507 4.82423C129.547 4.8123 129.581 4.79032 129.606 4.76105C129.629 4.73086 129.64 4.69551 129.64 4.6594C129.642 4.6248 129.63 4.59077 129.606 4.56323C129.581 4.53355 129.545 4.51228 129.504 4.5028C129.403 4.48541 129.299 4.47895 129.195 4.48356H129.075L129.078 4.84071Z"/>
</mask>
<path d="M129.387 3.69233C129.626 3.69269 129.861 3.74756 130.07 3.85168C130.286 3.95552 130.464 4.11296 130.582 4.30498C130.705 4.49232 130.769 4.70511 130.769 4.92175C130.769 5.1384 130.705 5.35119 130.582 5.53853C130.465 5.72978 130.288 5.88708 130.073 5.99184C129.862 6.09804 129.624 6.15386 129.382 6.15386C129.14 6.15386 128.902 6.09804 128.692 5.99184C128.478 5.88635 128.301 5.72923 128.182 5.53853C128.062 5.35105 127.999 5.13889 128 4.92313C128.001 4.7063 128.065 4.49334 128.185 4.30498C128.304 4.11219 128.483 3.95457 128.701 3.85168C128.91 3.74652 129.147 3.6916 129.387 3.69233ZM129.387 3.9341C129.196 3.93391 129.007 3.97743 128.84 4.06048C128.666 4.14459 128.522 4.27138 128.426 4.42586C128.329 4.57731 128.277 4.74856 128.275 4.92313C128.275 5.09665 128.326 5.26713 128.423 5.41764C128.519 5.57138 128.661 5.69803 128.834 5.78304C129.003 5.86934 129.194 5.91476 129.389 5.91476C129.583 5.91476 129.774 5.86934 129.943 5.78304C130.115 5.69721 130.257 5.57076 130.354 5.41764C130.451 5.26713 130.502 5.09665 130.502 4.92313C130.501 4.74856 130.448 4.57731 130.351 4.42586C130.26 4.26985 130.12 4.14022 129.949 4.05223C129.776 3.97022 129.583 3.92951 129.387 3.9341ZM128.769 5.58249V4.27751H129.538C129.618 4.27916 129.696 4.29702 129.767 4.32971C129.825 4.35915 129.873 4.40184 129.906 4.45335C129.943 4.51106 129.962 4.57647 129.962 4.64291C129.963 4.73261 129.926 4.81938 129.857 4.88468C129.779 4.95446 129.676 4.99813 129.566 5.00829C129.603 5.0189 129.638 5.03568 129.668 5.05774C129.705 5.08728 129.738 5.12048 129.767 5.15666C129.767 5.1704 129.813 5.22259 129.875 5.31599L130.048 5.59073H129.68L129.557 5.37919C129.508 5.27726 129.439 5.18413 129.353 5.10446C129.292 5.06679 129.22 5.04752 129.146 5.04951H129.069V5.59898L128.769 5.58249ZM129.078 4.84071H129.199C129.302 4.84416 129.405 4.83864 129.507 4.82423C129.547 4.8123 129.581 4.79032 129.606 4.76105C129.629 4.73086 129.64 4.69551 129.64 4.6594C129.642 4.6248 129.63 4.59077 129.606 4.56323C129.581 4.53355 129.545 4.51228 129.504 4.5028C129.403 4.48541 129.299 4.47895 129.195 4.48356H129.075L129.078 4.84071Z" fill="#BBBBBB"/>
<path d="M129.387 3.69233L129.384 4.69233L129.385 4.69233L129.387 3.69233ZM130.07 3.85168L129.624 4.74684L129.637 4.75294L130.07 3.85168ZM130.582 4.30498L129.73 4.82854L129.738 4.8413L129.746 4.85382L130.582 4.30498ZM130.582 5.53853L129.746 4.98969L129.737 5.00305L129.729 5.01667L130.582 5.53853ZM130.073 5.99184L129.635 5.0928L129.623 5.0986L130.073 5.99184ZM128.692 5.99184L129.143 5.09941L129.134 5.09489L128.692 5.99184ZM128.182 5.53853L129.03 5.0091L129.024 4.99943L128.182 5.53853ZM128 4.92313L129 4.92776L129 4.92774L128 4.92313ZM128.185 4.30498L129.028 4.84228L129.032 4.83628L129.036 4.83023L128.185 4.30498ZM128.701 3.85168L129.128 4.75601L129.139 4.75064L129.15 4.74498L128.701 3.85168ZM129.387 3.9341L129.386 4.9341L129.398 4.93411L129.41 4.93382L129.387 3.9341ZM128.84 4.06048L129.275 4.96086L129.285 4.95587L128.84 4.06048ZM128.426 4.42586L129.268 4.96525L129.275 4.95368L128.426 4.42586ZM128.275 4.92313L127.275 4.91167V4.92313H128.275ZM128.423 5.41764L129.271 4.88799L129.267 4.88193L129.264 4.87592L128.423 5.41764ZM128.834 5.78304L129.289 4.89244L129.282 4.88894L129.275 4.88554L128.834 5.78304ZM129.943 5.78304L129.496 4.88822L129.488 4.89244L129.943 5.78304ZM130.354 5.41764L129.513 4.8759L129.509 4.88249L130.354 5.41764ZM130.502 4.92313H131.502L131.502 4.9174L130.502 4.92313ZM130.351 4.42586L129.487 4.92971L129.498 4.94768L129.509 4.9652L130.351 4.42586ZM129.949 4.05223L130.407 3.16304L130.392 3.15559L130.377 3.14862L129.949 4.05223ZM128.769 5.58249H127.769V6.52903L128.714 6.58098L128.769 5.58249ZM128.769 4.27751V3.27751H127.769V4.27751H128.769ZM129.538 4.27751L129.559 3.27772L129.548 3.27751H129.538V4.27751ZM129.767 4.32971L130.22 3.438L130.203 3.42936L130.185 3.42136L129.767 4.32971ZM129.906 4.45335L129.064 4.99279L129.064 4.99308L129.906 4.45335ZM129.962 4.64291H128.962L128.962 4.65406L129.962 4.64291ZM129.857 4.88468L130.524 5.62997L130.534 5.62062L130.544 5.61099L129.857 4.88468ZM129.566 5.00829L129.474 4.01253L129.29 5.96955L129.566 5.00829ZM129.668 5.05774L130.292 4.27625L130.276 4.26387L130.26 4.2521L129.668 5.05774ZM129.767 5.15666H130.767V4.80535L130.547 4.53123L129.767 5.15666ZM129.875 5.31599L130.721 4.78313L130.715 4.77296L130.708 4.76294L129.875 5.31599ZM130.048 5.59073V6.59073H131.859L130.894 5.05787L130.048 5.59073ZM129.68 5.59073L128.815 6.09334L129.105 6.59073H129.68V5.59073ZM129.557 5.37919L128.656 5.81245L128.673 5.84785L128.693 5.8818L129.557 5.37919ZM129.353 5.10446L130.033 4.37087L129.961 4.30475L129.878 4.25362L129.353 5.10446ZM129.146 5.04951V6.04951H129.159L129.173 6.04915L129.146 5.04951ZM129.069 5.04951V4.04951H128.069V5.04951H129.069ZM129.069 5.59898L129.014 6.59747L130.069 6.65545V5.59898H129.069ZM129.078 4.84071L128.078 4.84913L128.086 5.84071H129.078V4.84071ZM129.199 4.84071L129.232 3.84127L129.216 3.84071H129.199V4.84071ZM129.507 4.82423L129.647 5.8144L129.721 5.80392L129.793 5.78252L129.507 4.82423ZM129.606 4.76105L130.366 5.41051L130.385 5.38928L130.401 5.36706L129.606 4.76105ZM129.64 4.6594L128.642 4.60169L128.64 4.63052V4.6594H129.64ZM129.606 4.56323L128.841 5.20746L128.847 5.21389L128.852 5.22022L129.606 4.56323ZM129.504 4.5028L129.729 3.5285L129.702 3.52211L129.674 3.5173L129.504 4.5028ZM129.195 4.48356V5.48356H129.217L129.239 5.48258L129.195 4.48356ZM129.075 4.48356V3.48356H128.067L128.075 4.49198L129.075 4.48356ZM129.387 3.69233L129.385 4.69233C129.474 4.69246 129.556 4.713 129.624 4.74676L130.07 3.85168L130.516 2.9566C130.166 2.78212 129.778 2.69292 129.389 2.69233L129.387 3.69233ZM130.07 3.85168L129.637 4.75294C129.692 4.7794 129.719 4.81093 129.73 4.82854L130.582 4.30498L131.434 3.78142C131.209 3.41499 130.88 3.13163 130.503 2.95042L130.07 3.85168ZM130.582 4.30498L129.746 4.85382C129.765 4.88201 129.769 4.90473 129.769 4.92175H130.769H131.769C131.769 4.50549 131.645 4.10263 131.418 3.75614L130.582 4.30498ZM130.769 4.92175H129.769C129.769 4.93878 129.765 4.96151 129.746 4.98969L130.582 5.53853L131.418 6.08737C131.645 5.74087 131.769 5.33802 131.769 4.92175H130.769ZM130.582 5.53853L129.729 5.01667C129.719 5.03326 129.692 5.06531 129.635 5.09288L130.073 5.99184L130.511 6.8908C130.884 6.70885 131.211 6.4263 131.435 6.06038L130.582 5.53853ZM130.073 5.99184L129.623 5.0986C129.555 5.13288 129.472 5.15386 129.382 5.15386V6.15386V7.15386C129.776 7.15386 130.169 7.0632 130.523 6.88508L130.073 5.99184ZM129.382 6.15386V5.15386C129.292 5.15386 129.209 5.13273 129.143 5.09946L128.692 5.99184L128.241 6.88422C128.595 7.06335 128.988 7.15386 129.382 7.15386V6.15386ZM128.692 5.99184L129.134 5.09489C129.076 5.06612 129.044 5.03149 129.03 5.00913L128.182 5.53853L127.334 6.06793C127.558 6.42697 127.88 6.70658 128.25 6.88878L128.692 5.99184ZM128.182 5.53853L129.024 4.99943C129.004 4.96774 129 4.94332 129 4.92776L128 4.92313L127 4.91849C126.998 5.33446 127.12 5.73436 127.34 6.07762L128.182 5.53853ZM128 4.92313L129 4.92774C129 4.90679 129.006 4.87751 129.028 4.84228L128.185 4.30498L127.342 3.76767C127.124 4.10916 127.002 4.5058 127 4.91852L128 4.92313ZM128.185 4.30498L129.036 4.83023C129.047 4.81187 129.074 4.78125 129.128 4.75601L128.701 3.85168L128.274 2.94734C127.892 3.12788 127.561 3.41251 127.334 3.77973L128.185 4.30498ZM128.701 3.85168L129.15 4.74498C129.215 4.71255 129.296 4.69206 129.384 4.69232L129.387 3.69233L129.39 2.69233C128.998 2.69114 128.605 2.78049 128.252 2.95838L128.701 3.85168ZM129.387 3.9341L129.388 2.9341C129.047 2.93376 128.704 3.01104 128.395 3.16509L128.84 4.06048L129.285 4.95587C129.31 4.94382 129.345 4.93406 129.386 4.9341L129.387 3.9341ZM128.84 4.06048L128.405 3.16015C128.073 3.32073 127.78 3.5714 127.577 3.89804L128.426 4.42586L129.275 4.95368C129.27 4.96268 129.266 4.96649 129.265 4.96674C129.265 4.96697 129.268 4.96431 129.275 4.96081L128.84 4.06048ZM128.426 4.42586L127.584 3.88652C127.389 4.19067 127.279 4.54397 127.275 4.91167L128.275 4.92313L129.275 4.93459C129.275 4.94312 129.273 4.95059 129.272 4.95638C129.27 4.96212 129.268 4.96499 129.268 4.9652L128.426 4.42586ZM128.275 4.92313H127.275C127.275 5.29508 127.385 5.65271 127.582 5.95936L128.423 5.41764L129.264 4.87592C129.265 4.87823 129.268 4.88364 129.271 4.8923C129.273 4.90101 129.275 4.91156 129.275 4.92313H128.275ZM128.423 5.41764L127.575 5.94729C127.775 6.26795 128.062 6.51794 128.393 6.68054L128.834 5.78304L129.275 4.88554C129.26 4.87812 129.263 4.87481 129.271 4.88799L128.423 5.41764ZM128.834 5.78304L128.379 6.67364C128.693 6.83367 129.04 6.91476 129.389 6.91476V5.91476V4.91476C129.348 4.91476 129.313 4.90501 129.289 4.89244L128.834 5.78304ZM129.389 5.91476V6.91476C129.738 6.91476 130.085 6.83347 130.398 6.67364L129.943 5.78304L129.488 4.89244C129.463 4.90521 129.429 4.91476 129.389 4.91476V5.91476ZM129.943 5.78304L130.39 6.67782C130.715 6.51537 130.999 6.26855 131.199 5.95279L130.354 5.41764L129.509 4.88249C129.515 4.87297 129.515 4.87905 129.496 4.88826L129.943 5.78304ZM130.354 5.41764L131.195 5.95936C131.392 5.65266 131.502 5.29502 131.502 4.92313H130.502H129.502C129.502 4.91159 129.504 4.90106 129.506 4.89234C129.509 4.88367 129.512 4.87825 129.513 4.87592L130.354 5.41764ZM130.502 4.92313L131.502 4.9174C131.5 4.54199 131.386 4.18725 131.193 3.88652L130.351 4.42586L129.509 4.9652C129.51 4.96737 129.502 4.95513 129.502 4.92886L130.502 4.92313ZM130.351 4.42586L131.215 3.92201C131.021 3.58898 130.734 3.3313 130.407 3.16304L129.949 4.05223L129.491 4.94142C129.498 4.94491 129.501 4.94726 129.5 4.94634C129.499 4.94539 129.493 4.94038 129.487 4.92971L130.351 4.42586ZM129.949 4.05223L130.377 3.14862C130.061 2.99843 129.712 2.9262 129.364 2.93437L129.387 3.9341L129.41 4.93382C129.454 4.93282 129.491 4.94201 129.521 4.95584L129.949 4.05223ZM128.769 5.58249H129.769V4.27751H128.769H127.769V5.58249H128.769ZM128.769 4.27751V5.27751H129.538V4.27751V3.27751H128.769V4.27751ZM129.538 4.27751L129.517 5.2773C129.462 5.27616 129.405 5.26381 129.349 5.23805L129.767 4.32971L130.185 3.42136C129.987 3.33023 129.774 3.28216 129.559 3.27772L129.538 4.27751ZM129.767 4.32971L129.314 5.22141C129.224 5.17557 129.133 5.10096 129.064 4.99279L129.906 4.45335L130.748 3.91391C130.613 3.70272 130.426 3.54272 130.22 3.438L129.767 4.32971ZM129.906 4.45335L129.064 4.99308C128.999 4.89091 128.962 4.76922 128.962 4.64291H129.962H130.962C130.962 4.38371 130.887 4.1312 130.748 3.91362L129.906 4.45335ZM129.962 4.64291L128.962 4.65406C128.96 4.45484 129.044 4.27742 129.17 4.15837L129.857 4.88468L130.544 5.61099C130.808 5.36134 130.966 5.01038 130.962 4.63176L129.962 4.64291ZM129.857 4.88468L129.19 4.13939C129.282 4.05749 129.384 4.02085 129.474 4.01253L129.566 5.00829L129.658 6.00405C129.968 5.97541 130.276 5.85142 130.524 5.62997L129.857 4.88468ZM129.566 5.00829L129.29 5.96955C129.222 5.9499 129.148 5.91658 129.076 5.86338L129.668 5.05774L130.26 4.2521C130.128 4.15477 129.984 4.0879 129.842 4.04703L129.566 5.00829ZM129.668 5.05774L129.044 5.83923C129.022 5.82149 129.003 5.80204 128.987 5.78209L129.767 5.15666L130.547 4.53123C130.473 4.43892 130.388 4.35306 130.292 4.27625L129.668 5.05774ZM129.767 5.15666H128.767C128.767 5.28913 128.793 5.39297 128.811 5.45015C128.829 5.51164 128.85 5.55992 128.865 5.59011C128.892 5.64857 128.92 5.6928 128.932 5.71178C128.957 5.7505 128.983 5.78609 128.989 5.79505C129.013 5.82741 129.025 5.84431 129.042 5.86904L129.875 5.31599L130.708 4.76294C130.663 4.69427 130.621 4.63837 130.606 4.61785C130.593 4.60037 130.604 4.61451 130.618 4.63665C130.625 4.64735 130.649 4.68452 130.674 4.73713C130.686 4.76439 130.706 4.81006 130.724 4.86922C130.741 4.92408 130.767 5.0259 130.767 5.15666H129.767ZM129.875 5.31599L129.029 5.84885L129.202 6.12359L130.048 5.59073L130.894 5.05787L130.721 4.78313L129.875 5.31599ZM130.048 5.59073V4.59073H129.68V5.59073V6.59073H130.048V5.59073ZM129.68 5.59073L130.545 5.08812L130.422 4.87658L129.557 5.37919L128.693 5.8818L128.815 6.09334L129.68 5.59073ZM129.557 5.37919L130.458 4.94593C130.353 4.72767 130.208 4.5334 130.033 4.37087L129.353 5.10446L128.673 5.83805C128.67 5.83485 128.663 5.82685 128.656 5.81245L129.557 5.37919ZM129.353 5.10446L129.878 4.25362C129.648 4.11133 129.383 4.04276 129.119 4.04987L129.146 5.04951L129.173 6.04915C129.057 6.05227 128.936 6.02225 128.828 5.9553L129.353 5.10446ZM129.146 5.04951V4.04951H129.069V5.04951V6.04951H129.146V5.04951ZM129.069 5.04951H128.069V5.59898H129.069H130.069V5.04951H129.069ZM129.069 5.59898L129.124 4.60049L128.824 4.584L128.769 5.58249L128.714 6.58098L129.014 6.59747L129.069 5.59898ZM129.078 4.84071V5.84071H129.199V4.84071V3.84071H129.078V4.84071ZM129.199 4.84071L129.166 5.84015C129.327 5.84554 129.488 5.83691 129.647 5.8144L129.507 4.82423L129.367 3.83406C129.322 3.84037 129.277 3.84278 129.232 3.84127L129.199 4.84071ZM129.507 4.82423L129.793 5.78252C130.008 5.71847 130.21 5.59397 130.366 5.41051L129.606 4.76105L128.846 4.11159C128.952 3.98667 129.086 3.90613 129.221 3.86594L129.507 4.82423ZM129.606 4.76105L130.401 5.36706C130.564 5.15364 130.64 4.90278 130.64 4.6594H129.64H128.64C128.64 4.48824 128.694 4.30808 128.811 4.15504L129.606 4.76105ZM129.64 4.6594L130.638 4.71711C130.656 4.40724 130.546 4.11988 130.36 3.90624L129.606 4.56323L128.852 5.22022C128.714 5.06166 128.628 4.84236 128.642 4.60169L129.64 4.6594ZM129.606 4.56323L130.371 3.919C130.194 3.70858 129.961 3.58204 129.729 3.5285L129.504 4.5028L129.279 5.47709C129.129 5.44252 128.968 5.35852 128.841 5.20746L129.606 4.56323ZM129.504 4.5028L129.674 3.5173C129.501 3.48753 129.325 3.47681 129.151 3.48454L129.195 4.48356L129.239 5.48258C129.273 5.48109 129.305 5.48329 129.334 5.4883L129.504 4.5028ZM129.195 4.48356V3.48356H129.075V4.48356V5.48356H129.195V4.48356ZM129.075 4.48356L128.075 4.49198L128.078 4.84913L129.078 4.84071L130.078 4.83229L130.075 4.47514L129.075 4.48356Z" fill="#BBBBBB" mask="url(#path-5-inside-1_2825_3506)"/>
<path d="M117.818 3.88379H117.826C118.8 3.86904 119.767 4.0641 120.653 4.45508C121.541 4.8462 122.328 5.42316 122.957 6.14355L123.833 7.14746V4.23828H126.271V18.5244H123.833V15.6387L122.958 16.6318C122.326 17.3491 121.538 17.9233 120.651 18.3125C119.764 18.7018 118.799 18.8961 117.825 18.8818H117.818C113.687 18.8818 110.654 15.5801 110.654 11.3828C110.654 7.18615 113.698 3.88379 117.818 3.88379ZM118.502 5.87793C115.411 5.87811 113.153 8.33324 113.153 11.374C113.153 14.4174 115.449 16.8709 118.502 16.8711C121.555 16.8711 123.833 14.3999 123.833 11.374C123.833 8.3508 121.595 5.87793 118.502 5.87793Z" fill="#BBBBBB" stroke="#BBBBBB"/>
<path d="M88.1367 3.88379H88.1445C89.0983 3.8692 90.0437 4.06428 90.9121 4.45508C91.7804 4.84588 92.5506 5.42292 93.167 6.14355L94.0469 7.17188V4.23828H96.4229V18.5273H94.0469V15.623L93.1689 16.6377C92.549 17.3536 91.7773 17.9254 90.9092 18.3135C90.0409 18.7014 89.097 18.8955 88.1445 18.8818H88.1367C84.1067 18.8818 81.1154 15.602 81.1152 11.3818C81.1152 7.16172 84.1064 3.88386 88.1367 3.88379ZM88.8047 5.87793C85.7747 5.87818 83.5488 8.35815 83.5488 11.376C83.549 14.3952 85.7963 16.8728 88.8047 16.873C91.8143 16.873 94.0467 14.4084 94.0469 11.376C94.0469 8.34482 91.8359 5.87793 88.8047 5.87793Z" fill="#BBBBBB" stroke="#BBBBBB"/>
<path d="M59.1182 3.88281C60.8437 3.88298 62.2369 4.45644 63.1982 5.43359C64.1604 6.41168 64.7324 7.83744 64.7324 9.61719V18.5752H62.3613V9.90332C62.3613 8.75243 61.9698 7.74233 61.2637 7.01758C60.5565 6.29185 59.564 5.8839 58.4248 5.88379C56.0361 5.88379 53.9639 7.86696 53.9639 10.6289V18.5752H51.5781V4.23828H53.9639V7.33301L54.8691 6.07031C55.3538 5.3952 55.9921 4.84515 56.7305 4.46484C57.469 4.08461 58.2876 3.88496 59.1182 3.88281Z" fill="#BBBBBB" stroke="#BBBBBB"/>
<path d="M40.9287 3.88281C45.1989 3.88295 48.2289 6.93112 48.4141 10.7119L48.4229 11.0801C48.4218 11.3565 48.3993 11.6321 48.3584 11.9053H35.5127L35.5898 12.4727C35.9561 15.1756 38.2175 17.1113 41.1836 17.1113C43.3335 17.1113 44.9133 16.3929 46.3916 15.0576L47.5234 16.1475C45.9647 17.7855 44.0388 18.8828 41.2266 18.8828C36.3229 18.8827 33.1152 15.5459 33.1152 11.3828C33.1152 7.21228 36.438 3.88281 40.9287 3.88281ZM40.9111 5.67188C39.7103 5.67918 38.5457 6.0822 37.6025 6.81836C36.6593 7.55465 35.9914 8.58175 35.707 9.7373L35.5547 10.3574H45.9941L45.873 9.75781C45.3968 7.40042 43.4675 5.67193 40.9141 5.67188V5.6709L40.9111 5.67188Z" fill="#BBBBBB" stroke="#BBBBBB"/>
<path d="M27.1934 2.65234V10.25C25.2236 10.1284 23.3587 9.29419 21.9551 7.89062C20.5515 6.48701 19.7173 4.62215 19.5957 2.65234H27.1934Z" fill="#BBBBBB" stroke="#BBBBBB"/>
<path d="M17.6367 2.65234C17.5815 3.54726 17.381 4.42835 17.0371 5.25879C16.6803 6.1204 16.1775 6.91298 15.5527 7.60254L15.2773 7.8916C14.6179 8.55096 13.8508 9.09149 13.0098 9.48926L12.6445 9.65039C11.8142 9.99418 10.9336 10.195 10.0391 10.25V2.65234H17.6367Z" fill="#BBBBBB" stroke="#BBBBBB"/>
<path d="M8.11523 10.2676H0.517578C0.572829 9.37272 0.774222 8.49157 1.11816 7.66113C1.52602 6.67653 2.12349 5.78181 2.87695 5.02832C3.63051 4.27476 4.52528 3.6772 5.50977 3.26953C6.34 2.92577 7.22068 2.72391 8.11523 2.66895V10.2676Z" fill="#BBBBBB" stroke="#BBBBBB"/>
<path d="M104.617 0.5V4.17285H108.538V6.13672H104.605V13.9141C104.606 14.826 104.803 15.6175 105.371 16.1699C105.935 16.7189 106.764 16.9326 107.788 16.9326H108.729V18.8848H106.764C105.226 18.8847 104.119 18.4749 103.391 17.7217C102.66 16.9655 102.233 15.7814 102.233 14.0664V6.13965H99.2695V4.17578H102.224V0.5H104.617Z" fill="#BBBBBB" stroke="#BBBBBB"/>
</g>
<defs>
<clipPath id="clip0_2825_3506">
<rect width="131" height="24" fill="white"/>
</clipPath>
</defs>
</svg>
