<svg width="33" height="33" viewBox="0 0 33 33" fill="none" xmlns="http://www.w3.org/2000/svg">
<path d="M28.4094 8.01025C27.9625 8.0104 27.5217 8.11473 27.1222 8.31496C26.7226 8.51519 26.3753 8.80582 26.1077 9.16375C25.8401 9.52169 25.6596 9.93708 25.5806 10.377C25.5016 10.8168 25.5262 11.2691 25.6525 11.6978L21.1919 16.1578C20.6036 15.9618 19.9676 15.9618 19.3794 16.1578L16.0725 12.8509C16.1813 12.4263 16.1916 11.9824 16.1026 11.5532C16.0135 11.124 15.8275 10.7208 15.5588 10.3745C15.29 10.0282 14.9457 9.74798 14.552 9.55518C14.1584 9.36239 13.7258 9.26216 13.2875 9.26216C12.8491 9.26216 12.4166 9.36239 12.023 9.55518C11.6293 9.74798 11.2849 10.0282 11.0162 10.3745C10.7475 10.7208 10.5615 11.124 10.4724 11.5532C10.3834 11.9824 10.3937 12.4263 10.5025 12.8509L4.97186 18.3778C4.35784 18.196 3.70076 18.2241 3.10447 18.4575C2.50819 18.691 2.00671 19.1165 1.67931 19.6668C1.3519 20.2172 1.21725 20.8609 1.29663 21.4963C1.37601 22.1317 1.6649 22.7226 2.11762 23.1754C2.57035 23.6283 3.1611 23.9174 3.79649 23.997C4.43188 24.0766 5.07568 23.9421 5.62611 23.6149C6.17655 23.2877 6.60223 22.7863 6.83587 22.1901C7.06952 21.5939 7.09779 20.9368 6.91624 20.3228L12.3769 14.8628C12.9651 15.0589 13.6011 15.0589 14.1894 14.8628L17.4969 18.1703C17.388 18.5949 17.3778 19.0387 17.4668 19.4679C17.5558 19.8971 17.7418 20.3003 18.0106 20.6466C18.2793 20.9929 18.6237 21.2732 19.0173 21.4659C19.411 21.6587 19.8435 21.759 20.2819 21.759C20.7202 21.759 21.1527 21.6587 21.5464 21.4659C21.9401 21.2732 22.2844 20.9929 22.5532 20.6466C22.8219 20.3003 23.0079 19.8971 23.0969 19.4679C23.186 19.0387 23.1757 18.5949 23.0669 18.1703L27.5969 13.6428C27.9923 13.7594 28.4083 13.7897 28.8165 13.7314C29.2247 13.6732 29.6155 13.5278 29.9626 13.3052C30.3097 13.0826 30.6048 12.7879 30.8279 12.4412C31.0511 12.0945 31.1971 11.7038 31.2559 11.2957C31.3148 10.8876 31.2852 10.4716 31.1691 10.076C31.0531 9.68034 30.8533 9.31428 30.5833 9.00265C30.3133 8.69102 29.9794 8.44111 29.6043 8.26988C29.2292 8.09865 28.8217 8.01011 28.4094 8.01025Z" fill="#F9F9F9"/>
</svg>
