<svg width="32" height="32" viewBox="0 0 32 32" fill="none" xmlns="http://www.w3.org/2000/svg">
<path d="M29.9414 6.96001C29.9273 6.73662 29.8386 6.52444 29.6896 6.35741C29.5406 6.19039 29.3399 6.07818 29.1195 6.03876C23.7133 5.06876 21.4564 4.36751 16.4114 2.08876C16.282 2.03026 16.1416 2 15.9995 2C15.8575 2 15.7171 2.03026 15.5877 2.08876C10.5427 4.36751 8.28579 5.06876 2.87954 6.03876C2.65921 6.07818 2.45847 6.19039 2.30946 6.35741C2.16045 6.52444 2.07179 6.73662 2.05766 6.96001C1.81704 10.7794 2.33016 14.3381 3.58454 17.5375C4.61174 20.1472 6.13192 22.5346 8.06204 24.5694C11.4039 28.115 14.952 29.655 15.6289 29.9275C15.8694 30.0248 16.1384 30.0248 16.3789 29.9275C17.0558 29.655 20.6039 28.115 23.9458 24.5694C25.8728 22.5339 27.39 20.1465 28.4145 17.5375C29.6689 14.3381 30.182 10.7794 29.9414 6.96001ZM21.7539 11.6544L14.8289 19.6544C14.7399 19.7575 14.6307 19.8414 14.508 19.9009C14.3854 19.9603 14.2519 19.994 14.1158 20H14.0745C13.8128 20.0001 13.5615 19.8975 13.3745 19.7144L10.2995 16.7019C10.2057 16.61 10.1309 16.5005 10.0794 16.3796C10.0279 16.2588 10.0008 16.129 9.99942 15.9977C9.99673 15.7324 10.0995 15.477 10.2852 15.2875C10.4708 15.098 10.7241 14.9901 10.9894 14.9874C11.2546 14.9847 11.5101 15.0875 11.6995 15.2731L14.012 17.5413L20.2433 10.3456C20.3292 10.2463 20.4339 10.1649 20.5513 10.106C20.6687 10.0472 20.7965 10.012 20.9275 10.0025C21.0585 9.99309 21.1901 10.0095 21.3147 10.0509C21.4393 10.0923 21.5546 10.1578 21.6539 10.2438C21.7532 10.3297 21.8346 10.4343 21.8935 10.5517C21.9524 10.6691 21.9875 10.797 21.997 10.928C22.0065 11.059 21.99 11.1905 21.9486 11.3152C21.9073 11.4398 21.8417 11.5551 21.7558 11.6544H21.7539Z" fill="#F9F9F9"/>
</svg>
