<svg width="32" height="32" viewBox="0 0 32 32" fill="none" xmlns="http://www.w3.org/2000/svg">
<path d="M25.6985 6.09062C23.0279 3.49062 19.4935 2 16.001 2C12.5085 2 8.9741 3.49062 6.30348 6.09062C3.5291 8.79187 2.00098 12.25 2.00098 16C2.00098 19.75 3.67848 23.4056 4.83973 25.5156C6.00098 27.6256 7.56348 30 9.00098 30C11.001 30 15.001 28 15.001 28L8.00098 15L4.59973 16.9831C4.55786 16.592 4.537 16.199 4.53723 15.8056C4.53723 12.77 5.74473 9.92438 8.0466 7.68062C10.266 5.52125 13.126 4.375 16.001 4.375C18.876 4.375 21.7341 5.52125 23.9554 7.68313C26.2572 9.92438 27.4641 12.77 27.4641 15.8081C27.4643 16.201 27.4435 16.5937 27.4016 16.9844L24.001 15L17.001 28C17.001 28 21.001 30 23.001 30C24.4385 30 26.001 27.625 27.1622 25.5156C28.3235 23.4062 30.001 19.75 30.001 16C30.001 12.25 28.4729 8.79187 25.6985 6.09062Z" fill="#F9F9F9"/>
</svg>
