<svg width="25" height="24" viewBox="0 0 25 24" fill="none" xmlns="http://www.w3.org/2000/svg">
<g clip-path="url(#clip0_2825_4482)">
<path d="M12.3369 0C7.32704 0 5.86183 0.00517032 5.57702 0.0287999C4.54891 0.114284 3.90916 0.276208 3.21218 0.623305C2.67505 0.890106 2.25143 1.19936 1.83336 1.63287C1.07197 2.42346 0.610515 3.3961 0.443466 4.55226C0.362254 5.11354 0.338625 5.228 0.333826 8.09496C0.331985 9.05061 0.333826 10.3083 0.333826 11.9953C0.333826 17.0025 0.339359 18.4666 0.363361 18.7509C0.446423 19.7516 0.603312 20.3812 0.93556 21.0699C1.57052 22.3882 2.78321 23.3778 4.21187 23.7471C4.70655 23.8745 5.2529 23.9446 5.95431 23.9778C6.25149 23.9908 9.28045 24 12.3113 24C15.3421 24 18.3729 23.9963 18.6627 23.9815C19.4748 23.9433 19.9464 23.88 20.4679 23.7452C21.9058 23.3741 23.0963 22.3992 23.7442 21.0625C24.07 20.3905 24.2352 19.7369 24.3099 18.7884C24.3262 18.5816 24.333 15.2847 24.333 11.9922C24.333 8.69907 24.3256 5.40821 24.3094 5.20142C24.2337 4.23765 24.0685 3.5896 23.7322 2.90461C23.4563 2.34388 23.1499 1.92514 22.705 1.49699C21.9111 0.738523 20.9402 0.276943 19.7833 0.110039C19.2227 0.0289815 19.111 0.00497991 16.2427 0H12.3369Z" fill="url(#paint0_radial_2825_4482)"/>
<path d="M12.3369 0C7.32704 0 5.86183 0.00517032 5.57702 0.0287999C4.54891 0.114284 3.90916 0.276208 3.21218 0.623305C2.67505 0.890106 2.25143 1.19936 1.83336 1.63287C1.07197 2.42346 0.610515 3.3961 0.443466 4.55226C0.362254 5.11354 0.338625 5.228 0.333826 8.09496C0.331985 9.05061 0.333826 10.3083 0.333826 11.9953C0.333826 17.0025 0.339359 18.4666 0.363361 18.7509C0.446423 19.7516 0.603312 20.3812 0.93556 21.0699C1.57052 22.3882 2.78321 23.3778 4.21187 23.7471C4.70655 23.8745 5.2529 23.9446 5.95431 23.9778C6.25149 23.9908 9.28045 24 12.3113 24C15.3421 24 18.3729 23.9963 18.6627 23.9815C19.4748 23.9433 19.9464 23.88 20.4679 23.7452C21.9058 23.3741 23.0963 22.3992 23.7442 21.0625C24.07 20.3905 24.2352 19.7369 24.3099 18.7884C24.3262 18.5816 24.333 15.2847 24.333 11.9922C24.333 8.69907 24.3256 5.40821 24.3094 5.20142C24.2337 4.23765 24.0685 3.5896 23.7322 2.90461C23.4563 2.34388 23.1499 1.92514 22.705 1.49699C21.9111 0.738523 20.9402 0.276943 19.7833 0.110039C19.2227 0.0289815 19.111 0.00497991 16.2427 0H12.3369Z" fill="url(#paint1_radial_2825_4482)"/>
<path d="M12.3369 0C7.32704 0 5.86183 0.00517032 5.57702 0.0287999C4.54891 0.114284 3.90916 0.276208 3.21218 0.623305C2.67505 0.890106 2.25143 1.19936 1.83336 1.63287C1.07197 2.42346 0.610515 3.3961 0.443466 4.55226C0.362254 5.11354 0.338625 5.228 0.333826 8.09496C0.331985 9.05061 0.333826 10.3083 0.333826 11.9953C0.333826 17.0025 0.339359 18.4666 0.363361 18.7509C0.446423 19.7516 0.603312 20.3812 0.93556 21.0699C1.57052 22.3882 2.78321 23.3778 4.21187 23.7471C4.70655 23.8745 5.2529 23.9446 5.95431 23.9778C6.25149 23.9908 9.28045 24 12.3113 24C15.3421 24 18.3729 23.9963 18.6627 23.9815C19.4748 23.9433 19.9464 23.88 20.4679 23.7452C21.9058 23.3741 23.0963 22.3992 23.7442 21.0625C24.07 20.3905 24.2352 19.7369 24.3099 18.7884C24.3262 18.5816 24.333 15.2847 24.333 11.9922C24.333 8.69907 24.3256 5.40821 24.3094 5.20142C24.2337 4.23765 24.0685 3.5896 23.7322 2.90461C23.4563 2.34388 23.1499 1.92514 22.705 1.49699C21.9111 0.738523 20.9402 0.276943 19.7833 0.110039C19.2227 0.0289815 19.111 0.00497991 16.2427 0H12.3369Z" fill="url(#paint2_radial_2825_4482)"/>
<path d="M12.3369 0C7.32704 0 5.86183 0.00517032 5.57702 0.0287999C4.54891 0.114284 3.90916 0.276208 3.21218 0.623305C2.67505 0.890106 2.25143 1.19936 1.83336 1.63287C1.07197 2.42346 0.610515 3.3961 0.443466 4.55226C0.362254 5.11354 0.338625 5.228 0.333826 8.09496C0.331985 9.05061 0.333826 10.3083 0.333826 11.9953C0.333826 17.0025 0.339359 18.4666 0.363361 18.7509C0.446423 19.7516 0.603312 20.3812 0.93556 21.0699C1.57052 22.3882 2.78321 23.3778 4.21187 23.7471C4.70655 23.8745 5.2529 23.9446 5.95431 23.9778C6.25149 23.9908 9.28045 24 12.3113 24C15.3421 24 18.3729 23.9963 18.6627 23.9815C19.4748 23.9433 19.9464 23.88 20.4679 23.7452C21.9058 23.3741 23.0963 22.3992 23.7442 21.0625C24.07 20.3905 24.2352 19.7369 24.3099 18.7884C24.3262 18.5816 24.333 15.2847 24.333 11.9922C24.333 8.69907 24.3256 5.40821 24.3094 5.20142C24.2337 4.23765 24.0685 3.5896 23.7322 2.90461C23.4563 2.34388 23.1499 1.92514 22.705 1.49699C21.9111 0.738523 20.9402 0.276943 19.7833 0.110039C19.2227 0.0289815 19.111 0.00497991 16.2427 0H12.3369Z" fill="url(#paint3_radial_2825_4482)"/>
<path d="M12.3382 3.08105C9.91475 3.08105 9.61061 3.09164 8.65877 3.13493C7.70881 3.17839 7.06038 3.32868 6.493 3.54919C5.9061 3.77694 5.40825 4.08159 4.91226 4.57739C4.4159 5.07303 4.11101 5.5705 3.88235 6.15678C3.66113 6.72392 3.51054 7.37206 3.46779 8.32095C3.42522 9.27207 3.41406 9.57617 3.41406 11.9978C3.41406 14.4195 3.42485 14.7224 3.46797 15.6735C3.51166 16.6228 3.66206 17.2708 3.88254 17.8377C4.11064 18.4242 4.41552 18.9217 4.9117 19.4173C5.40751 19.9133 5.90536 20.2187 6.49188 20.4464C7.05963 20.6669 7.70826 20.8172 8.65803 20.8607C9.60986 20.904 9.91381 20.9146 12.3371 20.9146C14.7607 20.9146 15.0639 20.904 16.0157 20.8607C16.9657 20.8172 17.6149 20.6669 18.1826 20.4464C18.7693 20.2187 19.2664 19.9133 19.7623 19.4173C20.2586 18.9217 20.5635 18.4242 20.7922 17.8379C21.0115 17.2708 21.1621 16.6226 21.2067 15.6737C21.2495 14.7226 21.2606 14.4194 21.2606 11.9978C21.2606 9.57616 21.2495 9.27226 21.2067 8.32113C21.1621 7.37187 21.0115 6.72392 20.7922 6.15697C20.5635 5.5705 20.2586 5.07302 19.7623 4.57739C19.2659 4.0814 18.7695 3.77674 18.1821 3.54918C17.6132 3.32868 16.9644 3.17839 16.0144 3.13493C15.0626 3.09164 14.7596 3.08105 12.3354 3.08105H12.3382ZM11.5377 4.68793C11.7753 4.68756 12.0404 4.68793 12.3382 4.68793C14.7207 4.68793 15.0031 4.69648 15.944 4.7392C16.814 4.77896 17.2862 4.92422 17.6007 5.04627C18.0172 5.20788 18.3141 5.40108 18.6262 5.71317C18.9385 6.02526 19.1318 6.32248 19.294 6.73859C19.4161 7.05253 19.5617 7.52438 19.6013 8.39377C19.644 9.33374 19.6533 9.61611 19.6533 11.9958C19.6533 14.3754 19.644 14.6578 19.6013 15.5978C19.5615 16.4671 19.4161 16.939 19.294 17.2529C19.1322 17.6691 18.9385 17.9654 18.6262 18.2772C18.3139 18.5893 18.0174 18.7825 17.6007 18.9441C17.2866 19.0668 16.814 19.2116 15.944 19.2514C15.0033 19.2941 14.7207 19.3034 12.3382 19.3034C9.95546 19.3034 9.67307 19.2941 8.73239 19.2514C7.86237 19.2113 7.39018 19.066 7.07544 18.944C6.65901 18.7823 6.36156 18.5891 6.04925 18.2771C5.73693 17.965 5.54359 17.6685 5.38148 17.2522C5.25934 16.9382 5.11378 16.4664 5.07419 15.597C5.03143 14.657 5.02287 14.3747 5.02287 11.9935C5.02287 9.6124 5.03143 9.33151 5.07419 8.39154C5.11397 7.52215 5.25934 7.05031 5.38148 6.736C5.54321 6.31988 5.73693 6.02266 6.04925 5.71057C6.36156 5.39848 6.65901 5.20529 7.07544 5.0433C7.38999 4.92069 7.86237 4.7758 8.73239 4.73585C9.55558 4.6987 9.87459 4.68756 11.5377 4.68569L11.5377 4.68793ZM17.1014 6.16848C16.5102 6.16848 16.0306 6.6472 16.0306 7.23811C16.0306 7.82886 16.5102 8.30813 17.1014 8.30813C17.6926 8.30813 18.1722 7.82886 18.1722 7.23811C18.1722 6.64738 17.6926 6.16812 17.1014 6.16812L17.1014 6.16848ZM12.3382 7.41868C9.80747 7.41868 7.75566 9.46898 7.75566 11.9978C7.75566 14.5266 9.80747 16.576 12.3382 16.576C14.8689 16.576 16.92 14.5266 16.92 11.9978C16.92 9.46898 14.8687 7.41868 12.338 7.41868H12.3382ZM12.3382 9.02556C13.9808 9.02556 15.3126 10.3562 15.3126 11.9978C15.3126 13.6392 13.9808 14.9701 12.3382 14.9701C10.6954 14.9701 9.36373 13.6392 9.36373 11.9978C9.36373 10.3562 10.6954 9.02556 12.3382 9.02556Z" fill="#F9F9F9"/>
</g>
<defs>
<radialGradient id="paint0_radial_2825_4482" cx="0" cy="0" r="1" gradientUnits="userSpaceOnUse" gradientTransform="translate(23.5581 11.2491) rotate(164.25) scale(15.3346 11.0479)">
<stop stop-color="#FF005F"/>
<stop offset="1" stop-color="#FC01D8"/>
</radialGradient>
<radialGradient id="paint1_radial_2825_4482" cx="0" cy="0" r="1" gradientUnits="userSpaceOnUse" gradientTransform="translate(6.70782 25.8485) rotate(-90) scale(19.1573 20.3254)">
<stop stop-color="#FFCC00"/>
<stop offset="0.1242" stop-color="#FFCC00"/>
<stop offset="0.5672" stop-color="#FE4A05"/>
<stop offset="0.6942" stop-color="#FF0F3F"/>
<stop offset="1" stop-color="#FE0657" stop-opacity="0"/>
</radialGradient>
<radialGradient id="paint2_radial_2825_4482" cx="0" cy="0" r="1" gradientUnits="userSpaceOnUse" gradientTransform="translate(12.9395 23.6615) rotate(-59.8703) scale(7.92169 10.3132)">
<stop stop-color="#FFCC00"/>
<stop offset="1" stop-color="#FFCC00" stop-opacity="0"/>
</radialGradient>
<radialGradient id="paint3_radial_2825_4482" cx="0" cy="0" r="1" gradientUnits="userSpaceOnUse" gradientTransform="translate(3.58929 0.977273) rotate(164.274) scale(15.1645 5.16655)">
<stop stop-color="#780CFF"/>
<stop offset="1" stop-color="#820BFF" stop-opacity="0"/>
</radialGradient>
<clipPath id="clip0_2825_4482">
<rect width="24" height="24" fill="white" transform="translate(0.333008)"/>
</clipPath>
</defs>
</svg>
