<svg width="323" height="772" viewBox="0 0 323 772" fill="none" xmlns="http://www.w3.org/2000/svg">
<mask id="mask0_2825_3895" style="mask-type:alpha" maskUnits="userSpaceOnUse" x="-1" y="-335" width="324" height="1442">
<g opacity="0.4">
<path d="M0 547.286L322.527 1106" stroke="#B3B3B3" stroke-width="0.403217"/>
<path d="M0 517.962L322.527 890.231" stroke="#B3B3B3" stroke-width="0.403217"/>
<path d="M0 488.637L322.527 742.311" stroke="#B3B3B3" stroke-width="0.403217"/>
<path d="M0 459.311L322.527 625.609" stroke="#B3B3B3" stroke-width="0.403217"/>
<path d="M0 429.986L322.527 524.702" stroke="#B3B3B3" stroke-width="0.403217"/>
<path d="M0 400.662L322.527 431.464" stroke="#B3B3B3" stroke-width="0.403217"/>
<path d="M0 371.337L322.527 340.535" stroke="#B3B3B3" stroke-width="0.403217"/>
<path d="M0 342.013L322.527 247.297" stroke="#B3B3B3" stroke-width="0.403217"/>
<path d="M0 312.688L322.527 146.39" stroke="#B3B3B3" stroke-width="0.403217"/>
<path d="M0 283.362L322.527 29.6879" stroke="#B3B3B3" stroke-width="0.403217"/>
<path d="M0 254.037L322.527 -118.232" stroke="#B3B3B3" stroke-width="0.403217"/>
<path d="M0 224.713L322.527 -334" stroke="#B3B3B3" stroke-width="0.403217"/>
<path d="M0 547.286L0 224.713" stroke="#B3B3B3" stroke-width="0.403217"/>
<path d="M0 547.286L0 224.713" stroke="#B3B3B3" stroke-width="0.403217"/>
<path d="M0 547.286L0 224.713" stroke="#B3B3B3" stroke-width="0.403217"/>
<path d="M0 547.286L0 224.713" stroke="#B3B3B3" stroke-width="0.403217"/>
<path d="M0 547.286L0 224.713" stroke="#B3B3B3" stroke-width="0.403217"/>
<path d="M0 547.286L0 224.711" stroke="#B3B3B3" stroke-width="0.403217"/>
<path d="M0.00195312 547.289L0.00195313 224.711" stroke="#B3B3B3" stroke-width="0.403217"/>
<path d="M0.00390625 547.294L0.00390625 224.706" stroke="#B3B3B3" stroke-width="0.403217"/>
<path d="M0.00976562 547.305L0.00976563 224.695" stroke="#B3B3B3" stroke-width="0.403217"/>
<path d="M0.0234375 547.327L0.0234375 224.671" stroke="#B3B3B3" stroke-width="0.403217"/>
<path d="M0.0507812 547.373L0.0507813 224.626" stroke="#B3B3B3" stroke-width="0.403217"/>
<path d="M0.0976562 547.455L0.0976563 224.543" stroke="#B3B3B3" stroke-width="0.403217"/>
<path d="M0.179688 547.598L0.179688 224.402" stroke="#B3B3B3" stroke-width="0.403217"/>
<path d="M0.316406 547.831L0.316406 224.168" stroke="#B3B3B3" stroke-width="0.403217"/>
<path d="M0.529297 548.201L0.529297 223.797" stroke="#B3B3B3" stroke-width="0.403217"/>
<path d="M0.857422 548.77L0.857422 223.229" stroke="#B3B3B3" stroke-width="0.403217"/>
<path d="M1.34375 549.617L1.34375 222.382" stroke="#B3B3B3" stroke-width="0.403217"/>
<path d="M2.05469 550.849L2.05469 221.149" stroke="#B3B3B3" stroke-width="0.403217"/>
<path d="M3.06836 552.603L3.06836 219.396" stroke="#B3B3B3" stroke-width="0.403217"/>
<path d="M4.48047 555.048L4.48047 216.95" stroke="#B3B3B3" stroke-width="0.403217"/>
<path d="M6.41602 558.401L6.41602 213.597" stroke="#B3B3B3" stroke-width="0.403217"/>
<path d="M9.0293 562.927L9.0293 209.073" stroke="#B3B3B3" stroke-width="0.403217"/>
<path d="M12.5039 568.946L12.5039 203.052" stroke="#B3B3B3" stroke-width="0.403217"/>
<path d="M17.0664 576.854L17.0664 195.146" stroke="#B3B3B3" stroke-width="0.403217"/>
<path d="M22.9922 587.115L22.9922 184.885" stroke="#B3B3B3" stroke-width="0.403217"/>
<path d="M30.5957 600.289L30.5957 171.712" stroke="#B3B3B3" stroke-width="0.403217"/>
<path d="M40.2637 617.033L40.2637 154.966" stroke="#B3B3B3" stroke-width="0.403217"/>
<path d="M52.4375 638.122L52.4375 133.876" stroke="#B3B3B3" stroke-width="0.403217"/>
<path d="M67.6387 664.457L67.6387 107.542" stroke="#B3B3B3" stroke-width="0.403217"/>
<path d="M86.4707 697.081L86.4707 74.9168" stroke="#B3B3B3" stroke-width="0.403217"/>
<path d="M109.633 737.203L109.633 34.7978" stroke="#B3B3B3" stroke-width="0.403217"/>
<path d="M137.918 786.201L137.918 -14.2034" stroke="#B3B3B3" stroke-width="0.403217"/>
<path d="M172.242 845.662L172.242 -73.6614" stroke="#B3B3B3" stroke-width="0.403217"/>
<path d="M213.643 917.379L213.643 -145.379" stroke="#B3B3B3" stroke-width="0.403217"/>
<path d="M263.295 1003.39L263.295 -231.392" stroke="#B3B3B3" stroke-width="0.403217"/>
<path d="M322.527 1106L322.527 -334" stroke="#B3B3B3" stroke-width="0.403217"/>
</g>
</mask>
<g mask="url(#mask0_2825_3895)">
<g filter="url(#filter0_f_2825_3895)">
<ellipse cx="182.629" cy="399.161" rx="338.299" ry="84.2602" transform="rotate(-90 182.629 399.161)" fill="#DDDDDD"/>
</g>
</g>
<defs>
<filter id="filter0_f_2825_3895" x="17.7258" y="-19.781" width="329.807" height="837.884" filterUnits="userSpaceOnUse" color-interpolation-filters="sRGB">
<feFlood flood-opacity="0" result="BackgroundImageFix"/>
<feBlend mode="normal" in="SourceGraphic" in2="BackgroundImageFix" result="shape"/>
<feGaussianBlur stdDeviation="40.3217" result="effect1_foregroundBlur_2825_3895"/>
</filter>
</defs>
</svg>
