<svg width="29" height="24" viewBox="0 0 29 24" fill="none" xmlns="http://www.w3.org/2000/svg">
<g clip-path="url(#clip0_2825_4496)">
<path d="M27.577 22.4509C27.6392 22.4515 27.7009 22.4397 27.7582 22.4162C27.8155 22.3927 27.8673 22.358 27.9102 22.3143C27.9532 22.2706 27.9864 22.2188 28.0078 22.1621C28.0293 22.1054 28.0385 22.045 28.0349 21.9847C28.0349 21.6541 27.8294 21.4961 27.4078 21.4961H26.7266V23.2272H26.9828V22.4726H27.2976L27.3048 22.4818L27.7935 23.2272H28.0675L27.5418 22.4557L27.577 22.4509ZM27.2806 22.2775H26.9835V21.6923H27.3601C27.5546 21.6923 27.7764 21.7231 27.7764 21.9704C27.7764 22.2548 27.552 22.2775 27.2791 22.2775" fill="#0064E0"/>
<path d="M20.8935 20.2814H17.2602V14.7581C17.2602 13.441 17.236 11.7456 15.3705 11.7456C13.4781 11.7456 13.1886 13.1806 13.1886 14.6622V20.2811H9.55525V8.92291H13.0432V10.4751H13.0921C13.4411 9.89577 13.9456 9.41916 14.5516 9.09607C15.1576 8.77297 15.8426 8.61549 16.5335 8.64039C20.2161 8.64039 20.895 10.9917 20.895 14.0505L20.8935 20.2814ZM5.45566 7.37033C5.03864 7.3704 4.63096 7.25043 4.28418 7.0256C3.93741 6.80076 3.66712 6.48115 3.50747 6.10719C3.34781 5.73323 3.30597 5.32171 3.38725 4.92467C3.46854 4.52763 3.66929 4.16291 3.96411 3.87662C4.25893 3.59033 4.63459 3.39533 5.04358 3.31629C5.45256 3.23724 5.8765 3.2777 6.2618 3.43254C6.6471 3.58739 6.97645 3.84966 7.20819 4.1862C7.43993 4.52274 7.56367 4.91844 7.56375 5.32324C7.5638 5.59202 7.5093 5.85817 7.40339 6.10651C7.29747 6.35485 7.14222 6.58051 6.94647 6.7706C6.75071 6.96069 6.51829 7.11149 6.2625 7.21439C6.00671 7.31729 5.73255 7.37028 5.45566 7.37033ZM7.27232 20.2814H3.63521V8.92291H7.27232V20.2814ZM22.7049 0.00162171H1.80947C1.33521 -0.00357365 0.878195 0.174219 0.538901 0.49593C0.199607 0.817642 0.00578816 1.25695 0 1.71732V22.085C0.00559006 22.5456 0.199296 22.9852 0.538578 23.3072C0.87786 23.6293 1.33497 23.8074 1.80947 23.8025H22.7049C23.1803 23.8083 23.6387 23.6307 23.9793 23.3086C24.3199 22.9866 24.5149 22.5465 24.5215 22.085V1.71586C24.5147 1.25457 24.3196 0.814759 23.979 0.493056C23.6383 0.171352 23.1801 -0.00593224 22.7049 0.000151565" fill="#0064E0"/>
<path d="M27.3113 20.7246C26.8692 20.7287 26.4468 20.9026 26.1365 21.2082C25.8262 21.5139 25.6532 21.9263 25.6553 22.3555C25.6574 22.7846 25.8345 23.1954 26.1479 23.4981C26.4612 23.8008 26.8853 23.9708 27.3274 23.9708C27.7694 23.9708 28.1935 23.8008 28.5069 23.4981C28.8202 23.1954 28.9973 22.7846 28.9994 22.3555C29.0016 21.9263 28.8286 21.5139 28.5182 21.2082C28.2079 20.9026 27.7855 20.7287 27.3434 20.7246H27.3113ZM27.3113 23.7849C27.0213 23.7896 26.7365 23.7108 26.4927 23.5583C26.249 23.4058 26.0572 23.1866 25.9418 22.9284C25.8264 22.6701 25.7925 22.3845 25.8443 22.1075C25.8961 21.8305 26.0314 21.5747 26.233 21.3724C26.4346 21.17 26.6935 21.0303 26.9769 20.9708C27.2604 20.9113 27.5556 20.9347 27.8254 21.0381C28.0951 21.1415 28.3272 21.3202 28.4923 21.5516C28.6574 21.783 28.748 22.0567 28.7529 22.3382C28.7529 22.3463 28.7529 22.354 28.7529 22.3621C28.761 22.7313 28.6177 23.0885 28.3545 23.3552C28.0914 23.6219 27.7299 23.7762 27.3495 23.7842H27.3117" fill="#0064E0"/>
</g>
<defs>
<clipPath id="clip0_2825_4496">
<rect width="29" height="24" fill="white"/>
</clipPath>
</defs>
</svg>
