<svg width="129" height="40" viewBox="0 0 129 40" fill="none" xmlns="http://www.w3.org/2000/svg">
<path d="M4.44922 2.17725L2.95703 7.04053L4.07812 7.38428L5.55703 2.51709L4.44922 2.17725ZM6.90156 2.92881L5.42187 7.79678L16.4773 11.1874L17.9773 6.3249L6.90156 2.92881ZM19.3055 6.77803L17.8367 11.5546C19.1258 11.8515 20.7273 11.9843 22.2352 11.9296C23.6023 11.8827 24.8914 11.664 25.7742 11.3749C25.2039 10.6405 24.2508 9.73428 23.157 8.92959C21.9383 8.03896 20.5398 7.25771 19.3055 6.77803ZM6.62266 12.3437C7.22891 13.9765 8.27812 15.9218 9.53203 17.6405C11.2508 19.9921 13.3836 21.9374 15.0008 22.3827L16.2508 22.7343L12.5945 24.8983C15.4461 25.2187 20.4539 25.1562 22.868 24.5624C21.6727 22.4062 20.8836 19.6093 20.5789 17.5468L18.8133 20.4843L18.5242 20.4687C15.993 20.2968 14.0477 18.7577 12.7195 16.8983C11.7117 15.4843 11.032 13.8671 10.6414 12.3983C9.18828 13.203 7.95391 12.9921 6.62266 12.3437ZM30.5008 14.8827C27.4305 14.8827 24.5867 15.8671 22.2742 17.539C22.4539 18.7655 22.5945 19.7968 22.8445 20.789C22.8836 20.789 22.9148 20.7812 22.9539 20.7812H23.0945C23.7977 20.7733 24.4852 20.953 25.0945 21.3046C26.9539 22.3827 27.5945 24.7812 26.5242 26.6405C25.4461 28.4999 23.0477 29.1405 21.1883 28.0702C20.5242 27.6874 20.0164 27.1249 19.6805 26.4843C18.6883 26.5624 17.657 26.5937 16.6414 26.578C16.5164 27.3437 16.4461 28.1327 16.4461 28.9374C16.4461 32.6796 17.907 36.078 20.2898 38.5937H26.782C26.6727 38.2343 26.6102 37.8515 26.6102 37.453C26.6102 35.3046 28.368 33.5468 30.5164 33.5468C32.6648 33.5468 34.4227 35.3046 34.4227 37.453C34.4227 37.8515 34.3602 38.2343 34.2508 38.5937H39.0945V36.8983C38.0711 37.2343 36.9227 37.1562 35.9227 36.578C34.0633 35.4999 33.4227 33.1015 34.493 31.2421C35.157 30.0858 36.368 29.3515 37.6961 29.289H37.8367C38.2664 29.2811 38.6883 29.3515 39.0945 29.4843V28.3749C37.3836 28.9296 35.4461 28.2343 34.5086 26.6171C33.4383 24.7577 34.0789 22.3593 35.9383 21.2812C36.5086 20.953 37.1492 20.7812 37.8055 20.7655H37.9383C38.3367 20.7733 38.7273 20.8358 39.0945 20.953V17.8124C36.7195 15.9765 33.7352 14.8827 30.5008 14.8827ZM30.5008 16.5155C32.6492 16.5155 34.407 18.2733 34.407 20.4218C34.407 22.5702 32.6492 24.328 30.5008 24.328C28.3523 24.328 26.5945 22.5702 26.5945 20.4218C26.5945 18.2733 28.3523 16.5155 30.5008 16.5155ZM30.5008 17.9218C29.1102 17.9218 28.0008 19.0312 28.0008 20.4218C28.0008 21.8124 29.1102 22.9218 30.5008 22.9218C31.8914 22.9218 33.0008 21.8124 33.0008 20.4218C33.0008 19.0312 31.8914 17.9218 30.5008 17.9218ZM30.5008 19.1718C31.1883 19.1718 31.7508 19.7343 31.7508 20.4218C31.7508 21.1093 31.1883 21.6718 30.5008 21.6718C29.8133 21.6718 29.2508 21.1093 29.2508 20.4218C29.2508 19.7343 29.8133 19.1718 30.5008 19.1718ZM37.8367 22.1718C37.4148 22.1796 37.0008 22.289 36.6414 22.4999C35.4383 23.1952 35.032 24.7108 35.7273 25.914C36.4148 27.1015 37.8992 27.5155 39.0945 26.8515V25.0155C39.0086 25.3124 38.8133 25.5858 38.5164 25.7499C37.9148 26.0937 37.157 25.8827 36.8133 25.289C36.4695 24.6952 36.6727 23.9296 37.2664 23.5858C37.4461 23.4765 37.6492 23.4218 37.8602 23.414C38.3211 23.3983 38.7508 23.6405 38.9773 24.039C39.032 24.1327 39.0633 24.2265 39.0945 24.3202V22.4765C38.7195 22.2733 38.282 22.164 37.8367 22.1718ZM30.5008 27.6874C31.1883 27.6874 31.7508 28.2499 31.7508 28.9374C31.7508 29.6249 31.1883 30.1874 30.5008 30.1874C29.8133 30.1874 29.2508 29.6249 29.2508 28.9374C29.2508 28.2499 29.8133 27.6874 30.5008 27.6874ZM23.032 29.289H23.1648C24.5477 29.3046 25.8211 30.0468 26.5086 31.2421C27.5789 33.1015 26.9383 35.4999 25.0789 36.578C23.2195 37.6483 20.8211 37.0077 19.743 35.1483C18.6727 33.289 19.3133 30.8905 21.1727 29.8124C21.7352 29.4843 22.3758 29.3046 23.032 29.289ZM23.0633 30.6952C22.6492 30.703 22.2352 30.8202 21.8758 31.0312C20.6727 31.7265 20.2664 33.2421 20.9617 34.4452C21.657 35.6483 23.1727 36.0546 24.3758 35.3593C25.5789 34.664 25.9852 33.1483 25.2898 31.9452C24.8289 31.1483 23.9773 30.6718 23.0633 30.6952ZM37.7586 30.6952C36.907 30.7343 36.1336 31.203 35.7117 31.9452C35.0164 33.1483 35.4227 34.664 36.6258 35.3593C37.4227 35.8202 38.3523 35.7968 39.0945 35.3827V33.4686C39.0633 33.5936 39.0164 33.7108 38.9539 33.8202C38.6102 34.414 37.8445 34.6171 37.2508 34.2733C36.657 33.9296 36.4461 33.1718 36.7898 32.5702C37.0008 32.203 37.3914 31.9686 37.8133 31.9452H37.907C38.118 31.953 38.3211 32.0077 38.5008 32.1093C38.8133 32.289 39.0242 32.5858 39.0945 32.914V31.0155C38.743 30.8124 38.3367 30.703 37.9383 30.6952H37.7586ZM23.0945 31.9452C23.5477 31.9374 23.9773 32.1718 24.2039 32.5702C24.5477 33.164 24.3445 33.9296 23.7508 34.2733C23.157 34.6249 22.3836 34.4218 22.0398 33.8202C21.6961 33.2186 21.8992 32.453 22.5008 32.1093C22.6805 32.0077 22.8836 31.953 23.0945 31.9452ZM30.5164 34.953C29.1258 34.953 28.0164 36.0624 28.0164 37.453C28.0164 37.8671 28.118 38.2499 28.2898 38.5937H30.0086C29.5711 38.3983 29.2664 37.9608 29.2664 37.453C29.2664 36.7655 29.8289 36.203 30.5164 36.203C31.2039 36.203 31.7664 36.7655 31.7664 37.453C31.7664 37.9608 31.4617 38.3983 31.0242 38.5937H32.743C32.9148 38.2499 33.0164 37.8671 33.0164 37.453C33.0164 36.0624 31.907 34.953 30.5164 34.953Z" fill="#F9F9F9"/>
<path d="M63.42 28L60.396 22.648H57.732V28H53.724V11.2H60.684C65.292 11.2 67.236 13.624 67.236 16.912C67.236 19.288 66.228 21.208 63.972 22.096L67.404 28H63.42ZM57.732 19.144H60.54C62.34 19.144 63.084 18.232 63.084 16.912C63.084 15.616 62.34 14.704 60.54 14.704H57.732V19.144ZM74.4895 28.24C71.3935 28.24 68.1295 26.56 68.1295 21.712C68.1295 17.056 71.1535 15.28 74.4895 15.28C77.7055 15.28 80.5375 16.888 80.5375 21.76C80.5375 22.216 80.5135 22.456 80.4655 22.744H71.8495C72.0655 24.568 73.0255 25.264 74.5615 25.264C76.1695 25.264 76.6975 24.592 76.9135 23.776H80.3695C79.7935 26.656 77.5615 28.24 74.4895 28.24ZM71.8735 20.464H76.8175C76.7455 19.384 76.1935 18.256 74.3935 18.256C72.9295 18.256 72.1135 19.024 71.8735 20.464ZM81.9538 28V11.2H85.8898V28H81.9538ZM93.6249 28.24C90.4569 28.24 87.2889 26.344 87.2889 21.76C87.2889 17.176 90.4569 15.28 93.6249 15.28C96.7689 15.28 99.9609 17.176 99.9609 21.76C99.9609 26.344 96.7689 28.24 93.6249 28.24ZM90.9609 21.76C90.9609 23.968 92.0889 24.976 93.6249 24.976C95.1369 24.976 96.2649 23.968 96.2649 21.76C96.2649 19.552 95.1369 18.544 93.6249 18.544C92.0889 18.544 90.9609 19.552 90.9609 21.76ZM104.755 28.24C102.787 28.24 100.771 27.28 100.771 24.664C100.771 21.736 103.219 21.232 105.283 20.92L107.155 20.632C108.259 20.464 108.595 20.32 108.595 19.528V19.504C108.595 18.352 107.803 18.088 106.963 18.088C106.075 18.088 105.091 18.328 105.091 19.552V19.768L101.419 19.816V19.168C101.419 16.744 103.003 15.28 107.059 15.28C110.923 15.28 112.459 16.672 112.459 19.312V28H108.691V25.84H108.523C108.331 26.464 107.419 28.24 104.755 28.24ZM104.707 24.304C104.707 24.88 105.019 25.456 106.147 25.456C107.491 25.456 108.595 24.592 108.595 23.632V22.456C108.379 22.72 107.755 22.792 107.395 22.864L105.835 23.152C104.995 23.344 104.707 23.8 104.707 24.304ZM119.161 28.24C116.617 28.24 113.737 26.392 113.737 21.76C113.737 17.152 116.617 15.28 119.161 15.28C121.009 15.28 122.281 16.264 122.617 17.2V11.2H126.553V28H122.617V26.32C122.281 27.256 121.009 28.24 119.161 28.24ZM117.433 21.76C117.433 23.968 118.753 24.976 120.145 24.976C121.513 24.976 122.785 23.968 122.785 21.76C122.785 19.552 121.513 18.544 120.145 18.544C118.753 18.544 117.433 19.552 117.433 21.76Z" fill="#F9F9F9"/>
</svg>
