<svg width="125" height="24" viewBox="0 0 125 24" fill="none" xmlns="http://www.w3.org/2000/svg">
<g clip-path="url(#clip0_2825_3532)">
<path fill-rule="evenodd" clip-rule="evenodd" d="M9.99601 1.68823L15.8366 5.91618V9.75601L1.64672 21.5886L1.62305 16.4818L9.99601 1.68823Z" fill="#BBBBBB" stroke="#BBBBBB" stroke-width="3.68836"/>
<path fill-rule="evenodd" clip-rule="evenodd" d="M6.88809 1.68835L1.62305 5.9163V9.75614L15.813 21.5887L15.8366 16.4819L6.88809 1.68835Z" fill="#BBBBBB" stroke="#BBBBBB" stroke-width="3.68836"/>
<path d="M58.2979 7.7251C62.6969 7.7251 65.8144 11.0568 65.8145 15.5298C65.8145 20.0339 62.6966 23.3657 58.2979 23.3657C53.899 23.3657 50.7822 20.0338 50.7822 15.5298C50.7823 11.0568 53.8989 7.72512 58.2979 7.7251ZM118.451 7.7251C120.658 7.7251 122.18 8.35417 123.15 9.3335C124.121 10.3132 124.549 11.6525 124.549 13.0903V20.5317C124.549 21.7465 124.658 22.5031 124.723 22.9019H122.025C121.965 22.5339 121.881 21.9851 121.881 20.9644V20.7222L121.754 20.9282C121.116 21.9621 119.656 23.3657 117.033 23.3657C114.046 23.3657 112.138 21.2931 112.138 18.9878C112.138 17.6786 112.616 16.6626 113.407 15.9272C114.2 15.1907 115.31 14.7322 116.58 14.5483L120.588 13.9604C121.045 13.8973 121.348 13.7468 121.536 13.5337C121.724 13.3203 121.788 13.0546 121.788 12.7817C121.788 12.0409 121.544 11.3576 121.007 10.8599C120.47 10.3625 119.65 10.0581 118.513 10.0581C117.481 10.0582 116.669 10.38 116.092 10.9263C115.532 11.4561 115.2 12.1925 115.095 13.0376L112.453 12.4204C112.786 9.65451 115.294 7.72521 118.451 7.7251ZM72.3818 0.685059V10.2192L72.5107 10.2515C73.2067 8.94867 74.9085 7.75635 77.3525 7.75635C79.5838 7.75642 81.2676 8.61173 82.3945 9.99951C83.523 11.3892 84.0977 13.3183 84.0977 15.4683C84.0976 17.6635 83.4767 19.6234 82.3135 21.0327C81.1514 22.4405 79.4443 23.3042 77.2598 23.3042C75.0921 23.3042 73.4211 22.3568 72.5098 20.7749L72.3818 20.5532V22.9019H69.6514V0.685059H72.3818ZM107.992 8.18799V22.9019H105.262V8.18799H107.992ZM95.2656 7.75635C97.0204 7.75635 98.3262 8.38902 99.1943 9.42529C100.064 10.4634 100.5 11.9137 100.5 13.5542V22.9019H97.7393V14.0474C97.7392 13.0055 97.5216 12.0541 96.9688 11.3618C96.4134 10.6666 95.5282 10.2437 94.2178 10.2437C93.0566 10.2437 92.1726 10.7082 91.5811 11.4624C90.9913 12.2146 90.6954 13.2495 90.6953 14.3872V22.9019H87.9346V8.18799H90.6338V10.5034L90.7617 10.2847C91.8264 8.45697 93.5586 7.75635 95.2656 7.75635ZM42.2031 7.75635C43.4829 7.75635 44.7453 8.19083 45.6865 9.10303C46.6268 10.0144 47.2529 11.4081 47.2529 13.3374V22.9019H44.5225V13.646C44.5224 12.6634 44.2812 11.7964 43.7549 11.1743C43.2269 10.5504 42.4201 10.1822 41.3096 10.1821C39.2303 10.1821 37.8184 11.8246 37.8184 13.9858V22.9019H35.0576V13.646C35.0575 12.6793 34.8238 11.813 34.3018 11.187C33.7777 10.5589 32.9701 10.1821 31.8438 10.1821C30.7931 10.1822 29.9108 10.5746 29.292 11.2534C28.6736 11.9318 28.3223 12.8913 28.3223 14.0171V22.9019H25.5918V8.18799H28.2295V10.356L28.3574 10.1294C29.2672 8.52001 31.0908 7.75635 32.7998 7.75635C34.6278 7.75635 36.3879 8.63998 37.1768 10.5239L37.2314 10.6548L37.2998 10.5298C38.4562 8.42738 40.3404 7.75646 42.2031 7.75635ZM121.709 15.8638L117.177 16.5425C116.551 16.6365 115.997 16.8648 115.599 17.2437C115.199 17.6241 114.961 18.1522 114.961 18.8335C114.961 19.985 115.918 21.0628 117.434 21.063C118.63 21.063 119.721 20.7757 120.513 20.0698C121.306 19.3626 121.788 18.2453 121.788 16.6108V15.8521L121.709 15.8638ZM58.2979 10.1821C57.0471 10.1821 55.8724 10.6521 55.0107 11.5581C54.1491 12.4643 53.6045 13.8017 53.6045 15.5298C53.6045 17.2733 54.149 18.6187 55.0107 19.5288C55.8724 20.4388 57.0472 20.9087 58.2979 20.9087C59.5486 20.9087 60.7232 20.4388 61.585 19.5288C62.4468 18.6187 62.9912 17.2733 62.9912 15.5298C62.9912 13.8017 62.4467 12.4643 61.585 11.5581C60.7232 10.6521 59.5486 10.1821 58.2979 10.1821ZM76.8281 10.1821C75.5297 10.1821 74.4082 10.6913 73.6123 11.6099C72.817 12.5279 72.3506 13.8498 72.3506 15.4683C72.3506 17.0865 72.8167 18.4307 73.6113 19.3716C74.4068 20.3133 75.5285 20.8472 76.8281 20.8472C78.1734 20.8471 79.2878 20.3141 80.0645 19.3716C80.84 18.4302 81.2744 17.0854 81.2744 15.4683C81.2744 13.8513 80.8475 12.5294 80.0752 11.6108C79.3018 10.6911 78.1876 10.1821 76.8281 10.1821ZM106.612 0.469238C107.746 0.469463 108.64 1.36516 108.64 2.50049C108.64 3.60429 107.746 4.50026 106.612 4.50049C105.509 4.50049 104.614 3.60517 104.614 2.50049C104.614 1.36428 105.51 0.469238 106.612 0.469238Z" fill="#BBBBBB" stroke="#BBBBBB" stroke-width="0.136986"/>
</g>
<defs>
<clipPath id="clip0_2825_3532">
<rect width="124.356" height="24" fill="white" transform="translate(0.488281)"/>
</clipPath>
</defs>
</svg>
