<svg width="77" height="24" viewBox="0 0 77 24" fill="none" xmlns="http://www.w3.org/2000/svg">
<g clip-path="url(#clip0_2825_3537)">
<mask id="path-1-inside-1_2825_3537" fill="white">
<path fill-rule="evenodd" clip-rule="evenodd" d="M64.7354 23.4536C64.8216 23.4536 64.8937 23.4789 64.9558 23.5336C64.9841 23.5572 65.007 23.5867 65.0228 23.6201C65.0386 23.6534 65.0469 23.6899 65.0471 23.7268C65.0471 23.8024 65.0135 23.8654 64.9558 23.92C64.8952 23.9737 64.8164 24.0023 64.7354 24C64.6544 24.0023 64.5754 23.9737 64.5147 23.92C64.486 23.8967 64.4629 23.8672 64.4471 23.8338C64.4314 23.8003 64.4234 23.7637 64.4237 23.7268C64.4237 23.6511 64.4526 23.5838 64.5147 23.5336C64.5754 23.4798 64.6544 23.4512 64.7354 23.4536ZM68.4509 22.0328L68.1728 22.184C67.928 21.9025 67.5975 21.7639 67.1757 21.7639C66.8399 21.7639 66.5571 21.8562 66.3363 22.0455C66.116 22.2343 66.001 22.4616 66.001 22.7305C66.001 22.9071 66.0535 23.071 66.1545 23.2267C66.2595 23.3833 66.4054 23.5084 66.5763 23.5882C66.7642 23.6743 66.969 23.7173 67.1757 23.7141C67.5831 23.7141 67.9136 23.5755 68.1728 23.294L68.4509 23.4536C68.3214 23.6302 68.144 23.7604 67.9232 23.857C67.6981 23.9537 67.4441 24 67.1612 24C66.7249 24 66.3652 23.882 66.0775 23.6385C65.7899 23.3945 65.646 23.1047 65.646 22.7554C65.646 22.5246 65.7134 22.306 65.8476 22.1084C65.9839 21.9043 66.1749 21.7426 66.3988 21.642C66.6336 21.5283 66.8976 21.4737 67.1901 21.4737C67.3719 21.4737 67.5494 21.4946 67.7173 21.5454C67.8709 21.583 68.0169 21.6469 68.1488 21.7342C68.2684 21.8126 68.3711 21.9141 68.4509 22.0328ZM70.4356 21.4737C70.8574 21.4737 71.2119 21.6039 71.49 21.8732C71.7444 22.1211 71.869 22.4066 71.869 22.7432C71.869 23.0798 71.7396 23.3736 71.4712 23.6262C71.2023 23.8737 70.8574 24 70.4356 24C70.0137 24 69.6683 23.8741 69.3999 23.6258C69.1315 23.3736 68.9973 23.0793 68.9973 22.7427C68.9973 22.4109 69.1219 22.1211 69.3759 21.8772C69.6539 21.6083 70.0089 21.4737 70.4356 21.4737ZM70.4356 21.7762C70.1383 21.7762 69.8891 21.8689 69.678 22.0621C69.4624 22.2514 69.3566 22.4826 69.3566 22.7515C69.3566 22.9237 69.4095 23.0837 69.5053 23.235C69.5996 23.3854 69.7343 23.5062 69.8939 23.5838C70.0627 23.6656 70.248 23.7073 70.4356 23.7058C70.6318 23.7058 70.8093 23.6638 70.9724 23.5838C71.1334 23.5065 71.2695 23.3857 71.3654 23.235C71.4594 23.0912 71.5093 22.9232 71.5092 22.7515C71.5092 22.4826 71.4039 22.2514 71.1883 22.0621C70.9772 21.8689 70.728 21.7762 70.4356 21.7762ZM72.5208 21.5327H72.8758V21.9489C73.0004 21.7932 73.1249 21.6796 73.2543 21.6122C73.4289 21.5209 73.623 21.4734 73.82 21.4737C73.9542 21.4737 74.0788 21.4946 74.1986 21.541C74.3076 21.58 74.4073 21.6416 74.4911 21.7215C74.5788 21.8159 74.6458 21.9276 74.6878 22.0494C74.7965 21.8718 74.9482 21.7245 75.1289 21.621C75.3028 21.5225 75.4996 21.4717 75.6994 21.4737C75.8913 21.4737 76.0587 21.5156 76.2025 21.6C76.3449 21.6796 76.4588 21.8015 76.5287 21.9489C76.6008 22.1001 76.634 22.327 76.634 22.6295V23.941H76.2747V22.6251C76.2747 22.369 76.2506 22.1924 76.2074 22.0962C76.1657 21.9945 76.0893 21.9108 75.9918 21.8601C75.8913 21.8015 75.7711 21.7722 75.6272 21.7722C75.4598 21.7722 75.3016 21.8142 75.1625 21.9064C75.0237 21.988 74.9145 22.1117 74.8509 22.2597C74.7835 22.407 74.7503 22.6549 74.7503 22.9998V23.941H74.4001V22.7095C74.4001 22.4197 74.3761 22.2221 74.3381 22.1167C74.2948 22.0118 74.2192 21.9234 74.1221 21.8645C74.0101 21.8001 73.8823 21.7681 73.7532 21.7722C73.5901 21.7722 73.4366 21.8142 73.2928 21.9025C73.1544 21.9841 73.0441 22.1057 72.9763 22.2514C72.9094 22.3943 72.8758 22.6212 72.8758 22.9198V23.941H72.5208V21.5322V21.5327ZM53.0222 7.49202C55.6662 7.49202 57.8825 9.30885 58.4657 11.7438C58.5072 11.8591 58.5286 11.9806 58.5291 12.1032C58.5291 12.6833 58.0478 13.1576 57.4598 13.1576C56.8666 13.1576 56.4631 12.6785 56.3857 12.1032C56.1816 10.5119 54.3245 9.55322 53.0222 9.55322C51.083 9.55322 49.518 11.1012 49.518 13.009C49.518 14.9172 51.083 16.4651 53.0222 16.4651C56.3564 16.4651 55.8314 13.412 57.3042 13.412C57.897 13.412 58.3783 13.8863 58.3783 14.4664C58.3645 14.6385 58.3218 14.807 58.2519 14.9648C57.4498 17.0452 55.4087 18.5263 53.0222 18.5263C49.9311 18.5263 47.4279 16.0577 47.4279 13.0094C47.4279 10.4542 47.1604 5.25333 47.1604 2.64131C47.1604 2.36809 47.3842 2.14732 47.6561 2.14732H47.8651C48.1374 2.14732 48.1374 2.36809 48.1571 2.64131L48.5702 9.6682C48.6291 9.59103 48.6906 9.51594 48.7547 9.44306L48.4679 1.45224C48.4583 1.16459 48.7062 0.929836 48.9977 0.929836C49.2845 0.929836 49.5131 1.16459 49.5228 1.45224L49.8144 8.48918C49.8581 8.46033 49.9066 8.42667 49.9551 8.39301V0.522404C49.9551 0.234754 50.1934 0 50.4849 0C50.7765 0 51.0148 0.234754 51.0148 0.522404V7.86098C51.6555 7.61532 52.3361 7.49023 53.0222 7.49202ZM70.4001 7.31672C70.7354 7.31672 71.3247 7.32153 71.7317 7.32153V3.76831C71.7331 3.43874 71.8649 3.12311 72.0983 2.8904C72.3316 2.65768 72.6476 2.5268 72.9772 2.52634C73.3069 2.52599 73.6233 2.65656 73.8569 2.88935C74.0904 3.12215 74.222 3.43813 74.2227 3.76787H74.2275V7.32153C74.7114 7.32153 75.1328 7.3071 75.5494 7.3071C76.2681 7.35519 76.6659 7.84219 76.6323 8.50579C76.5986 9.16503 76.1916 9.5423 75.6312 9.58557L74.2275 9.58994V17.3801H74.2178C74.1936 17.6924 74.0523 17.984 73.8223 18.1965C73.5922 18.409 73.2904 18.5268 72.9772 18.5263C72.6637 18.5261 72.3618 18.4082 72.1311 18.1959C71.9004 17.9836 71.7579 17.6925 71.7317 17.3801V9.59038L70.2515 9.58557C69.8589 9.58557 69.3365 9.17464 69.3173 8.51541C69.2981 7.85661 69.806 7.33071 70.4001 7.31672ZM6.9903 7.31235H7.14899C7.20145 7.31672 7.25391 7.31672 7.3068 7.32153C7.35926 7.32153 7.41216 7.3259 7.46505 7.33115C7.51751 7.33552 7.56997 7.33552 7.61806 7.34557L7.77631 7.35956C7.8244 7.36918 7.87686 7.37399 7.92932 7.38361C7.9774 7.38841 8.02986 7.39803 8.07795 7.40765L8.23139 7.43607C8.33194 7.4553 8.42812 7.47934 8.52866 7.50295L8.67205 7.54623C8.72451 7.55541 8.7726 7.57465 8.82068 7.58907L8.96451 7.63191C9.0126 7.65115 9.06025 7.66557 9.10309 7.68437C9.15118 7.6988 9.19926 7.71803 9.24691 7.73683C9.38593 7.78929 9.52014 7.8518 9.65872 7.91388C9.79292 7.98076 9.92232 8.05246 10.0517 8.12372C10.3945 8.31896 10.7169 8.54785 11.0143 8.80699L11.1249 8.9023C11.163 8.93596 11.1966 8.96918 11.2351 9.00284C11.34 9.10339 11.4406 9.21268 11.5411 9.3176C11.6084 9.39454 11.671 9.46623 11.7335 9.54229C11.8285 9.65532 11.9195 9.77168 12.0063 9.89115C12.0351 9.93399 12.0587 9.97246 12.0876 10.0153C12.1164 10.0533 12.1448 10.0966 12.1689 10.1346V10.1395C12.2506 10.2636 12.3271 10.3878 12.3988 10.5167V10.5215C12.4181 10.5644 12.4421 10.6076 12.4661 10.6505C12.4902 10.6933 12.509 10.7366 12.533 10.7843C12.5523 10.8271 12.5763 10.8748 12.5955 10.918C12.6143 10.9661 12.6384 11.0085 12.6576 11.0566C12.6961 11.1471 12.7293 11.238 12.7678 11.3333C12.7822 11.3814 12.8014 11.4291 12.8159 11.4767C12.8303 11.5248 12.8491 11.5676 12.864 11.6201L12.9068 11.7635C12.9212 11.8111 12.9308 11.8588 12.9453 11.9064C12.9593 11.9589 12.9689 12.007 12.9833 12.0551L13.0122 12.2077C13.0218 12.2553 13.0314 12.303 13.041 12.3554C13.0506 12.4079 13.0602 12.456 13.0694 12.5084C13.0742 12.5565 13.0839 12.609 13.0887 12.6614C13.0935 12.7091 13.1031 12.7615 13.1079 12.8144L13.1223 12.967C13.1267 13.0195 13.1267 13.0719 13.1319 13.1244C13.1319 13.1768 13.1363 13.2293 13.1363 13.2817V13.4396C13.1363 14.734 13.0887 15.0636 13.055 16.3864H13.0506V16.4822C13.041 16.9119 13.0314 17.1795 13.0266 17.6092C12.8539 18.2015 12.2983 18.407 11.8004 18.407C11.5951 18.4071 11.3932 18.3555 11.2131 18.257C11.0331 18.1584 10.8809 18.016 10.7704 17.8431C10.7295 17.7531 10.7082 17.6555 10.7079 17.5567C10.6983 17.2319 10.6935 16.9023 10.6839 16.5775L10.6795 13.5064V13.4396C10.6795 12.7471 9.93194 10.8844 8.82549 10.254C8.80145 10.2348 8.77303 10.2208 8.74855 10.2059C8.72495 10.1919 8.69609 10.1823 8.67205 10.1679C8.6432 10.1539 8.61478 10.1395 8.59074 10.125C8.56189 10.1154 8.53828 10.1014 8.50899 10.0918C8.48057 10.0774 8.45653 10.063 8.42768 10.0533C8.39883 10.0437 8.37041 10.0297 8.34156 10.0201C8.31751 10.0105 8.2891 9.99607 8.26025 9.98645L8.17413 9.95803L8.08757 9.92918C8.05872 9.91956 8.0303 9.91038 8.00145 9.90557C7.9726 9.89596 7.94418 9.88634 7.91533 9.88153C7.88167 9.87191 7.85281 9.8671 7.8244 9.85749C7.79555 9.85312 7.76669 9.8435 7.73303 9.83869C7.70462 9.83388 7.67577 9.82907 7.6421 9.82426C7.61244 9.8151 7.58201 9.80867 7.55118 9.80503C7.52232 9.80066 7.49391 9.80066 7.46025 9.79541C7.43139 9.79104 7.39773 9.78579 7.36932 9.78579C7.33566 9.78142 7.3068 9.77661 7.27314 9.77661C7.24473 9.7718 7.21107 9.7718 7.18221 9.7718C7.14899 9.76699 7.12014 9.76699 7.08648 9.76699H6.895C6.86615 9.76699 6.83249 9.76699 6.80363 9.77137C6.77041 9.77137 6.74156 9.77137 6.7079 9.77661C6.67467 9.77661 6.64582 9.78098 6.61697 9.78623C6.58374 9.78623 6.55489 9.7906 6.52123 9.79541C6.49238 9.80022 6.45915 9.80022 6.4303 9.80503C6.40145 9.80984 6.36779 9.81464 6.33937 9.82426L6.24801 9.83869C6.21959 9.84831 6.19074 9.85268 6.15708 9.85749C6.12822 9.8671 6.09981 9.87191 6.07096 9.88153C6.0421 9.8859 6.01369 9.89596 5.98484 9.90557C5.95118 9.91519 5.92232 9.91956 5.89391 9.92918L5.80735 9.95803C5.77893 9.96765 5.75008 9.97727 5.72604 9.98645C5.69719 9.99607 5.66877 10.0105 5.63992 10.0201C5.61107 10.0297 5.58221 10.0437 5.55861 10.0533C5.52975 10.063 5.5009 10.0774 5.47686 10.0918H5.47249C5.44844 10.1014 5.41959 10.1154 5.39555 10.125C5.36669 10.1395 5.33828 10.1539 5.31423 10.1679C5.28538 10.1823 5.26178 10.1919 5.23249 10.2063C5.20888 10.2208 5.1844 10.2352 5.15598 10.2544C4.60179 10.5705 4.13968 11.0258 3.81537 11.5752C3.49105 12.1246 3.31575 12.7492 3.3068 13.3871V13.454L3.31161 17.5952C3.31161 18.0822 2.72232 18.4783 2.12866 18.4643C1.64954 18.4546 0.974125 18.1539 0.964508 17.5567C0.930847 15.8426 0.844727 15.1113 0.844727 13.4396V13.2822C0.849535 13.2297 0.849535 13.1773 0.854344 13.1248C0.854344 13.0723 0.858716 13.0195 0.863962 12.967L0.878388 12.814C0.882759 12.7615 0.888005 12.7091 0.892814 12.661C0.901994 12.6085 0.906803 12.5561 0.916421 12.5084C0.921229 12.456 0.930847 12.4079 0.940464 12.3554C0.959438 12.2548 0.980279 12.1545 1.00298 12.0546C1.0126 12.0066 1.02658 11.9593 1.0362 11.9064L1.07948 11.7635L1.12276 11.6201L1.1656 11.4767C1.18484 11.4286 1.19926 11.3814 1.21806 11.3333C1.25172 11.238 1.29019 11.1471 1.32866 11.0566C1.3479 11.0085 1.36669 10.9657 1.38593 10.918C1.40997 10.8748 1.42921 10.8271 1.45325 10.7843C1.47205 10.7362 1.49609 10.6933 1.51533 10.6505L1.58702 10.5215V10.5172C1.65915 10.3878 1.73128 10.2636 1.81216 10.1395V10.1351C1.84101 10.0966 1.86505 10.0533 1.89391 10.0153C1.92276 9.97246 1.95117 9.93399 1.98003 9.89115C2.06615 9.7718 2.15227 9.65727 2.24844 9.54229C2.31052 9.46579 2.37784 9.39454 2.43992 9.31803C2.54046 9.21311 2.64582 9.1082 2.75117 9.00284C2.78484 8.96918 2.82331 8.93596 2.85653 8.9023C2.895 8.86907 2.93347 8.84022 2.96669 8.80699C3.26594 8.55 3.58834 8.32127 3.92975 8.12372C4.05915 8.05246 4.19336 7.98076 4.32757 7.91388C4.46134 7.8518 4.60036 7.78973 4.73937 7.73727C4.78221 7.71803 4.8303 7.6988 4.87795 7.68481C4.92604 7.66557 4.97413 7.65115 5.02221 7.63235L5.1656 7.58863C5.21369 7.57464 5.26178 7.55541 5.30943 7.54623C5.35751 7.5318 5.40516 7.51738 5.45806 7.50295C5.5538 7.47934 5.65434 7.45486 5.75489 7.43607L5.90352 7.40765C5.95598 7.39803 6.00407 7.38841 6.05653 7.38361C6.10462 7.37399 6.15708 7.36918 6.20954 7.35956L6.36298 7.34557C6.41587 7.33596 6.46877 7.33596 6.51642 7.33115C6.56888 7.32634 6.62178 7.32153 6.67467 7.32153C6.72713 7.31716 6.77959 7.31716 6.83249 7.31191H6.99074L6.9903 7.31235ZM19.3689 7.21618C22.4683 7.21618 24.9785 9.71934 24.9785 12.8044C24.9785 14.5814 24.8635 16.4249 24.8635 18.2396H23.747C23.488 18.2393 23.237 18.1492 23.037 17.9845C22.837 17.8199 22.7003 17.591 22.6502 17.3368C21.6964 18.0291 20.5474 18.4005 19.3689 18.3974C16.2742 18.3974 13.7645 15.8946 13.7645 12.8044C13.7645 9.71934 16.2742 7.21661 19.3689 7.21661V7.21618ZM19.3689 9.4518C21.2277 9.4518 22.7315 10.9561 22.7315 12.8048C22.7315 14.6575 21.2277 16.1574 19.3689 16.1574C17.5101 16.1574 16.0063 14.6579 16.0063 12.8044C16.0063 10.9561 17.5101 9.45137 19.3689 9.45137V9.4518ZM28.1973 10.1919L28.2069 17.2035C28.205 17.5176 28.0791 17.8183 27.8567 18.0401C27.6343 18.262 27.3333 18.3871 27.0192 18.3882H25.831V8.92109C25.831 8.66798 25.9459 8.35716 26.109 8.09923C26.1374 8.12372 26.1614 8.14295 26.1855 8.16175C26.8325 8.58667 27.7518 8.88306 28.1973 10.1915V10.1919ZM29.0694 12.6802C29.0694 9.68131 31.5075 7.25508 34.516 7.25508V7.27388C34.554 7.26907 34.3149 7.26426 34.6358 7.26426C34.9566 7.26426 35.7278 7.75126 35.7278 8.35279C35.7278 8.95519 34.9663 9.43738 34.6358 9.43738C34.3048 9.43738 34.5208 9.43257 34.4631 9.42776C32.9016 9.4518 31.6084 11.2332 31.3112 12.2885C31.2628 12.4609 31.2433 12.6401 31.2535 12.8188L31.2679 17.4706C31.2679 18.0726 30.7748 18.4262 30.1706 18.4262H29.0738C29.0738 16.6684 29.0694 14.438 29.0694 12.6802ZM40.8342 7.25508C43.9289 7.25508 46.439 9.75738 46.439 12.8428C46.439 14.6195 46.3289 16.4581 46.3289 18.278H45.2124C44.9535 18.2769 44.703 18.1865 44.5032 18.022C44.3033 17.8575 44.1664 17.6291 44.1155 17.3753C43.1604 18.0647 42.0122 18.4356 40.8342 18.4354C37.7348 18.4354 35.2246 15.9283 35.2246 12.8428C35.2246 9.75738 37.7348 7.25464 40.8342 7.25464V7.25508ZM40.8342 9.48984C42.6878 9.48984 44.1969 10.9893 44.1969 12.8428C44.1969 14.696 42.6882 16.1958 40.8342 16.1958C38.9754 16.1958 37.4716 14.696 37.4716 12.8428C37.4716 10.9893 38.9754 9.48984 40.8342 9.48984ZM65.1451 7.37399C68.1964 7.37399 70.6681 9.83869 70.6681 12.8809C70.6681 13.0719 70.6589 13.2581 70.6397 13.4448H61.8734C62.0073 14.2148 62.4091 14.9127 63.0078 15.4152C63.6065 15.9176 64.3635 16.1923 65.1451 16.1906C65.6397 16.1919 66.1284 16.0823 66.5752 15.87C67.022 15.6576 67.4155 15.3479 67.7269 14.9635C68.728 14.5526 69.7199 15.5939 69.1643 16.6588C68.6479 17.2062 68.0249 17.642 67.3337 17.9394C66.6424 18.2367 65.8976 18.3893 65.1451 18.3878C62.0937 18.3878 59.622 15.9235 59.622 12.8809C59.622 9.83825 62.0937 7.37399 65.1451 7.37399ZM68.1247 11.4098C67.8485 10.8559 67.4234 10.39 66.8971 10.0643C66.3707 9.7387 65.764 9.56624 65.1451 9.56634C64.5266 9.56573 63.9204 9.73802 63.3947 10.0638C62.869 10.3895 62.4449 10.8558 62.1702 11.4098H68.1247Z"/>
</mask>
<path fill-rule="evenodd" clip-rule="evenodd" d="M64.7354 23.4536C64.8216 23.4536 64.8937 23.4789 64.9558 23.5336C64.9841 23.5572 65.007 23.5867 65.0228 23.6201C65.0386 23.6534 65.0469 23.6899 65.0471 23.7268C65.0471 23.8024 65.0135 23.8654 64.9558 23.92C64.8952 23.9737 64.8164 24.0023 64.7354 24C64.6544 24.0023 64.5754 23.9737 64.5147 23.92C64.486 23.8967 64.4629 23.8672 64.4471 23.8338C64.4314 23.8003 64.4234 23.7637 64.4237 23.7268C64.4237 23.6511 64.4526 23.5838 64.5147 23.5336C64.5754 23.4798 64.6544 23.4512 64.7354 23.4536ZM68.4509 22.0328L68.1728 22.184C67.928 21.9025 67.5975 21.7639 67.1757 21.7639C66.8399 21.7639 66.5571 21.8562 66.3363 22.0455C66.116 22.2343 66.001 22.4616 66.001 22.7305C66.001 22.9071 66.0535 23.071 66.1545 23.2267C66.2595 23.3833 66.4054 23.5084 66.5763 23.5882C66.7642 23.6743 66.969 23.7173 67.1757 23.7141C67.5831 23.7141 67.9136 23.5755 68.1728 23.294L68.4509 23.4536C68.3214 23.6302 68.144 23.7604 67.9232 23.857C67.6981 23.9537 67.4441 24 67.1612 24C66.7249 24 66.3652 23.882 66.0775 23.6385C65.7899 23.3945 65.646 23.1047 65.646 22.7554C65.646 22.5246 65.7134 22.306 65.8476 22.1084C65.9839 21.9043 66.1749 21.7426 66.3988 21.642C66.6336 21.5283 66.8976 21.4737 67.1901 21.4737C67.3719 21.4737 67.5494 21.4946 67.7173 21.5454C67.8709 21.583 68.0169 21.6469 68.1488 21.7342C68.2684 21.8126 68.3711 21.9141 68.4509 22.0328ZM70.4356 21.4737C70.8574 21.4737 71.2119 21.6039 71.49 21.8732C71.7444 22.1211 71.869 22.4066 71.869 22.7432C71.869 23.0798 71.7396 23.3736 71.4712 23.6262C71.2023 23.8737 70.8574 24 70.4356 24C70.0137 24 69.6683 23.8741 69.3999 23.6258C69.1315 23.3736 68.9973 23.0793 68.9973 22.7427C68.9973 22.4109 69.1219 22.1211 69.3759 21.8772C69.6539 21.6083 70.0089 21.4737 70.4356 21.4737ZM70.4356 21.7762C70.1383 21.7762 69.8891 21.8689 69.678 22.0621C69.4624 22.2514 69.3566 22.4826 69.3566 22.7515C69.3566 22.9237 69.4095 23.0837 69.5053 23.235C69.5996 23.3854 69.7343 23.5062 69.8939 23.5838C70.0627 23.6656 70.248 23.7073 70.4356 23.7058C70.6318 23.7058 70.8093 23.6638 70.9724 23.5838C71.1334 23.5065 71.2695 23.3857 71.3654 23.235C71.4594 23.0912 71.5093 22.9232 71.5092 22.7515C71.5092 22.4826 71.4039 22.2514 71.1883 22.0621C70.9772 21.8689 70.728 21.7762 70.4356 21.7762ZM72.5208 21.5327H72.8758V21.9489C73.0004 21.7932 73.1249 21.6796 73.2543 21.6122C73.4289 21.5209 73.623 21.4734 73.82 21.4737C73.9542 21.4737 74.0788 21.4946 74.1986 21.541C74.3076 21.58 74.4073 21.6416 74.4911 21.7215C74.5788 21.8159 74.6458 21.9276 74.6878 22.0494C74.7965 21.8718 74.9482 21.7245 75.1289 21.621C75.3028 21.5225 75.4996 21.4717 75.6994 21.4737C75.8913 21.4737 76.0587 21.5156 76.2025 21.6C76.3449 21.6796 76.4588 21.8015 76.5287 21.9489C76.6008 22.1001 76.634 22.327 76.634 22.6295V23.941H76.2747V22.6251C76.2747 22.369 76.2506 22.1924 76.2074 22.0962C76.1657 21.9945 76.0893 21.9108 75.9918 21.8601C75.8913 21.8015 75.7711 21.7722 75.6272 21.7722C75.4598 21.7722 75.3016 21.8142 75.1625 21.9064C75.0237 21.988 74.9145 22.1117 74.8509 22.2597C74.7835 22.407 74.7503 22.6549 74.7503 22.9998V23.941H74.4001V22.7095C74.4001 22.4197 74.3761 22.2221 74.3381 22.1167C74.2948 22.0118 74.2192 21.9234 74.1221 21.8645C74.0101 21.8001 73.8823 21.7681 73.7532 21.7722C73.5901 21.7722 73.4366 21.8142 73.2928 21.9025C73.1544 21.9841 73.0441 22.1057 72.9763 22.2514C72.9094 22.3943 72.8758 22.6212 72.8758 22.9198V23.941H72.5208V21.5322V21.5327ZM53.0222 7.49202C55.6662 7.49202 57.8825 9.30885 58.4657 11.7438C58.5072 11.8591 58.5286 11.9806 58.5291 12.1032C58.5291 12.6833 58.0478 13.1576 57.4598 13.1576C56.8666 13.1576 56.4631 12.6785 56.3857 12.1032C56.1816 10.5119 54.3245 9.55322 53.0222 9.55322C51.083 9.55322 49.518 11.1012 49.518 13.009C49.518 14.9172 51.083 16.4651 53.0222 16.4651C56.3564 16.4651 55.8314 13.412 57.3042 13.412C57.897 13.412 58.3783 13.8863 58.3783 14.4664C58.3645 14.6385 58.3218 14.807 58.2519 14.9648C57.4498 17.0452 55.4087 18.5263 53.0222 18.5263C49.9311 18.5263 47.4279 16.0577 47.4279 13.0094C47.4279 10.4542 47.1604 5.25333 47.1604 2.64131C47.1604 2.36809 47.3842 2.14732 47.6561 2.14732H47.8651C48.1374 2.14732 48.1374 2.36809 48.1571 2.64131L48.5702 9.6682C48.6291 9.59103 48.6906 9.51594 48.7547 9.44306L48.4679 1.45224C48.4583 1.16459 48.7062 0.929836 48.9977 0.929836C49.2845 0.929836 49.5131 1.16459 49.5228 1.45224L49.8144 8.48918C49.8581 8.46033 49.9066 8.42667 49.9551 8.39301V0.522404C49.9551 0.234754 50.1934 0 50.4849 0C50.7765 0 51.0148 0.234754 51.0148 0.522404V7.86098C51.6555 7.61532 52.3361 7.49023 53.0222 7.49202ZM70.4001 7.31672C70.7354 7.31672 71.3247 7.32153 71.7317 7.32153V3.76831C71.7331 3.43874 71.8649 3.12311 72.0983 2.8904C72.3316 2.65768 72.6476 2.5268 72.9772 2.52634C73.3069 2.52599 73.6233 2.65656 73.8569 2.88935C74.0904 3.12215 74.222 3.43813 74.2227 3.76787H74.2275V7.32153C74.7114 7.32153 75.1328 7.3071 75.5494 7.3071C76.2681 7.35519 76.6659 7.84219 76.6323 8.50579C76.5986 9.16503 76.1916 9.5423 75.6312 9.58557L74.2275 9.58994V17.3801H74.2178C74.1936 17.6924 74.0523 17.984 73.8223 18.1965C73.5922 18.409 73.2904 18.5268 72.9772 18.5263C72.6637 18.5261 72.3618 18.4082 72.1311 18.1959C71.9004 17.9836 71.7579 17.6925 71.7317 17.3801V9.59038L70.2515 9.58557C69.8589 9.58557 69.3365 9.17464 69.3173 8.51541C69.2981 7.85661 69.806 7.33071 70.4001 7.31672ZM6.9903 7.31235H7.14899C7.20145 7.31672 7.25391 7.31672 7.3068 7.32153C7.35926 7.32153 7.41216 7.3259 7.46505 7.33115C7.51751 7.33552 7.56997 7.33552 7.61806 7.34557L7.77631 7.35956C7.8244 7.36918 7.87686 7.37399 7.92932 7.38361C7.9774 7.38841 8.02986 7.39803 8.07795 7.40765L8.23139 7.43607C8.33194 7.4553 8.42812 7.47934 8.52866 7.50295L8.67205 7.54623C8.72451 7.55541 8.7726 7.57465 8.82068 7.58907L8.96451 7.63191C9.0126 7.65115 9.06025 7.66557 9.10309 7.68437C9.15118 7.6988 9.19926 7.71803 9.24691 7.73683C9.38593 7.78929 9.52014 7.8518 9.65872 7.91388C9.79292 7.98076 9.92232 8.05246 10.0517 8.12372C10.3945 8.31896 10.7169 8.54785 11.0143 8.80699L11.1249 8.9023C11.163 8.93596 11.1966 8.96918 11.2351 9.00284C11.34 9.10339 11.4406 9.21268 11.5411 9.3176C11.6084 9.39454 11.671 9.46623 11.7335 9.54229C11.8285 9.65532 11.9195 9.77168 12.0063 9.89115C12.0351 9.93399 12.0587 9.97246 12.0876 10.0153C12.1164 10.0533 12.1448 10.0966 12.1689 10.1346V10.1395C12.2506 10.2636 12.3271 10.3878 12.3988 10.5167V10.5215C12.4181 10.5644 12.4421 10.6076 12.4661 10.6505C12.4902 10.6933 12.509 10.7366 12.533 10.7843C12.5523 10.8271 12.5763 10.8748 12.5955 10.918C12.6143 10.9661 12.6384 11.0085 12.6576 11.0566C12.6961 11.1471 12.7293 11.238 12.7678 11.3333C12.7822 11.3814 12.8014 11.4291 12.8159 11.4767C12.8303 11.5248 12.8491 11.5676 12.864 11.6201L12.9068 11.7635C12.9212 11.8111 12.9308 11.8588 12.9453 11.9064C12.9593 11.9589 12.9689 12.007 12.9833 12.0551L13.0122 12.2077C13.0218 12.2553 13.0314 12.303 13.041 12.3554C13.0506 12.4079 13.0602 12.456 13.0694 12.5084C13.0742 12.5565 13.0839 12.609 13.0887 12.6614C13.0935 12.7091 13.1031 12.7615 13.1079 12.8144L13.1223 12.967C13.1267 13.0195 13.1267 13.0719 13.1319 13.1244C13.1319 13.1768 13.1363 13.2293 13.1363 13.2817V13.4396C13.1363 14.734 13.0887 15.0636 13.055 16.3864H13.0506V16.4822C13.041 16.9119 13.0314 17.1795 13.0266 17.6092C12.8539 18.2015 12.2983 18.407 11.8004 18.407C11.5951 18.4071 11.3932 18.3555 11.2131 18.257C11.0331 18.1584 10.8809 18.016 10.7704 17.8431C10.7295 17.7531 10.7082 17.6555 10.7079 17.5567C10.6983 17.2319 10.6935 16.9023 10.6839 16.5775L10.6795 13.5064V13.4396C10.6795 12.7471 9.93194 10.8844 8.82549 10.254C8.80145 10.2348 8.77303 10.2208 8.74855 10.2059C8.72495 10.1919 8.69609 10.1823 8.67205 10.1679C8.6432 10.1539 8.61478 10.1395 8.59074 10.125C8.56189 10.1154 8.53828 10.1014 8.50899 10.0918C8.48057 10.0774 8.45653 10.063 8.42768 10.0533C8.39883 10.0437 8.37041 10.0297 8.34156 10.0201C8.31751 10.0105 8.2891 9.99607 8.26025 9.98645L8.17413 9.95803L8.08757 9.92918C8.05872 9.91956 8.0303 9.91038 8.00145 9.90557C7.9726 9.89596 7.94418 9.88634 7.91533 9.88153C7.88167 9.87191 7.85281 9.8671 7.8244 9.85749C7.79555 9.85312 7.76669 9.8435 7.73303 9.83869C7.70462 9.83388 7.67577 9.82907 7.6421 9.82426C7.61244 9.8151 7.58201 9.80867 7.55118 9.80503C7.52232 9.80066 7.49391 9.80066 7.46025 9.79541C7.43139 9.79104 7.39773 9.78579 7.36932 9.78579C7.33566 9.78142 7.3068 9.77661 7.27314 9.77661C7.24473 9.7718 7.21107 9.7718 7.18221 9.7718C7.14899 9.76699 7.12014 9.76699 7.08648 9.76699H6.895C6.86615 9.76699 6.83249 9.76699 6.80363 9.77137C6.77041 9.77137 6.74156 9.77137 6.7079 9.77661C6.67467 9.77661 6.64582 9.78098 6.61697 9.78623C6.58374 9.78623 6.55489 9.7906 6.52123 9.79541C6.49238 9.80022 6.45915 9.80022 6.4303 9.80503C6.40145 9.80984 6.36779 9.81464 6.33937 9.82426L6.24801 9.83869C6.21959 9.84831 6.19074 9.85268 6.15708 9.85749C6.12822 9.8671 6.09981 9.87191 6.07096 9.88153C6.0421 9.8859 6.01369 9.89596 5.98484 9.90557C5.95118 9.91519 5.92232 9.91956 5.89391 9.92918L5.80735 9.95803C5.77893 9.96765 5.75008 9.97727 5.72604 9.98645C5.69719 9.99607 5.66877 10.0105 5.63992 10.0201C5.61107 10.0297 5.58221 10.0437 5.55861 10.0533C5.52975 10.063 5.5009 10.0774 5.47686 10.0918H5.47249C5.44844 10.1014 5.41959 10.1154 5.39555 10.125C5.36669 10.1395 5.33828 10.1539 5.31423 10.1679C5.28538 10.1823 5.26178 10.1919 5.23249 10.2063C5.20888 10.2208 5.1844 10.2352 5.15598 10.2544C4.60179 10.5705 4.13968 11.0258 3.81537 11.5752C3.49105 12.1246 3.31575 12.7492 3.3068 13.3871V13.454L3.31161 17.5952C3.31161 18.0822 2.72232 18.4783 2.12866 18.4643C1.64954 18.4546 0.974125 18.1539 0.964508 17.5567C0.930847 15.8426 0.844727 15.1113 0.844727 13.4396V13.2822C0.849535 13.2297 0.849535 13.1773 0.854344 13.1248C0.854344 13.0723 0.858716 13.0195 0.863962 12.967L0.878388 12.814C0.882759 12.7615 0.888005 12.7091 0.892814 12.661C0.901994 12.6085 0.906803 12.5561 0.916421 12.5084C0.921229 12.456 0.930847 12.4079 0.940464 12.3554C0.959438 12.2548 0.980279 12.1545 1.00298 12.0546C1.0126 12.0066 1.02658 11.9593 1.0362 11.9064L1.07948 11.7635L1.12276 11.6201L1.1656 11.4767C1.18484 11.4286 1.19926 11.3814 1.21806 11.3333C1.25172 11.238 1.29019 11.1471 1.32866 11.0566C1.3479 11.0085 1.36669 10.9657 1.38593 10.918C1.40997 10.8748 1.42921 10.8271 1.45325 10.7843C1.47205 10.7362 1.49609 10.6933 1.51533 10.6505L1.58702 10.5215V10.5172C1.65915 10.3878 1.73128 10.2636 1.81216 10.1395V10.1351C1.84101 10.0966 1.86505 10.0533 1.89391 10.0153C1.92276 9.97246 1.95117 9.93399 1.98003 9.89115C2.06615 9.7718 2.15227 9.65727 2.24844 9.54229C2.31052 9.46579 2.37784 9.39454 2.43992 9.31803C2.54046 9.21311 2.64582 9.1082 2.75117 9.00284C2.78484 8.96918 2.82331 8.93596 2.85653 8.9023C2.895 8.86907 2.93347 8.84022 2.96669 8.80699C3.26594 8.55 3.58834 8.32127 3.92975 8.12372C4.05915 8.05246 4.19336 7.98076 4.32757 7.91388C4.46134 7.8518 4.60036 7.78973 4.73937 7.73727C4.78221 7.71803 4.8303 7.6988 4.87795 7.68481C4.92604 7.66557 4.97413 7.65115 5.02221 7.63235L5.1656 7.58863C5.21369 7.57464 5.26178 7.55541 5.30943 7.54623C5.35751 7.5318 5.40516 7.51738 5.45806 7.50295C5.5538 7.47934 5.65434 7.45486 5.75489 7.43607L5.90352 7.40765C5.95598 7.39803 6.00407 7.38841 6.05653 7.38361C6.10462 7.37399 6.15708 7.36918 6.20954 7.35956L6.36298 7.34557C6.41587 7.33596 6.46877 7.33596 6.51642 7.33115C6.56888 7.32634 6.62178 7.32153 6.67467 7.32153C6.72713 7.31716 6.77959 7.31716 6.83249 7.31191H6.99074L6.9903 7.31235ZM19.3689 7.21618C22.4683 7.21618 24.9785 9.71934 24.9785 12.8044C24.9785 14.5814 24.8635 16.4249 24.8635 18.2396H23.747C23.488 18.2393 23.237 18.1492 23.037 17.9845C22.837 17.8199 22.7003 17.591 22.6502 17.3368C21.6964 18.0291 20.5474 18.4005 19.3689 18.3974C16.2742 18.3974 13.7645 15.8946 13.7645 12.8044C13.7645 9.71934 16.2742 7.21661 19.3689 7.21661V7.21618ZM19.3689 9.4518C21.2277 9.4518 22.7315 10.9561 22.7315 12.8048C22.7315 14.6575 21.2277 16.1574 19.3689 16.1574C17.5101 16.1574 16.0063 14.6579 16.0063 12.8044C16.0063 10.9561 17.5101 9.45137 19.3689 9.45137V9.4518ZM28.1973 10.1919L28.2069 17.2035C28.205 17.5176 28.0791 17.8183 27.8567 18.0401C27.6343 18.262 27.3333 18.3871 27.0192 18.3882H25.831V8.92109C25.831 8.66798 25.9459 8.35716 26.109 8.09923C26.1374 8.12372 26.1614 8.14295 26.1855 8.16175C26.8325 8.58667 27.7518 8.88306 28.1973 10.1915V10.1919ZM29.0694 12.6802C29.0694 9.68131 31.5075 7.25508 34.516 7.25508V7.27388C34.554 7.26907 34.3149 7.26426 34.6358 7.26426C34.9566 7.26426 35.7278 7.75126 35.7278 8.35279C35.7278 8.95519 34.9663 9.43738 34.6358 9.43738C34.3048 9.43738 34.5208 9.43257 34.4631 9.42776C32.9016 9.4518 31.6084 11.2332 31.3112 12.2885C31.2628 12.4609 31.2433 12.6401 31.2535 12.8188L31.2679 17.4706C31.2679 18.0726 30.7748 18.4262 30.1706 18.4262H29.0738C29.0738 16.6684 29.0694 14.438 29.0694 12.6802ZM40.8342 7.25508C43.9289 7.25508 46.439 9.75738 46.439 12.8428C46.439 14.6195 46.3289 16.4581 46.3289 18.278H45.2124C44.9535 18.2769 44.703 18.1865 44.5032 18.022C44.3033 17.8575 44.1664 17.6291 44.1155 17.3753C43.1604 18.0647 42.0122 18.4356 40.8342 18.4354C37.7348 18.4354 35.2246 15.9283 35.2246 12.8428C35.2246 9.75738 37.7348 7.25464 40.8342 7.25464V7.25508ZM40.8342 9.48984C42.6878 9.48984 44.1969 10.9893 44.1969 12.8428C44.1969 14.696 42.6882 16.1958 40.8342 16.1958C38.9754 16.1958 37.4716 14.696 37.4716 12.8428C37.4716 10.9893 38.9754 9.48984 40.8342 9.48984ZM65.1451 7.37399C68.1964 7.37399 70.6681 9.83869 70.6681 12.8809C70.6681 13.0719 70.6589 13.2581 70.6397 13.4448H61.8734C62.0073 14.2148 62.4091 14.9127 63.0078 15.4152C63.6065 15.9176 64.3635 16.1923 65.1451 16.1906C65.6397 16.1919 66.1284 16.0823 66.5752 15.87C67.022 15.6576 67.4155 15.3479 67.7269 14.9635C68.728 14.5526 69.7199 15.5939 69.1643 16.6588C68.6479 17.2062 68.0249 17.642 67.3337 17.9394C66.6424 18.2367 65.8976 18.3893 65.1451 18.3878C62.0937 18.3878 59.622 15.9235 59.622 12.8809C59.622 9.83825 62.0937 7.37399 65.1451 7.37399ZM68.1247 11.4098C67.8485 10.8559 67.4234 10.39 66.8971 10.0643C66.3707 9.7387 65.764 9.56624 65.1451 9.56634C64.5266 9.56573 63.9204 9.73802 63.3947 10.0638C62.869 10.3895 62.4449 10.8558 62.1702 11.4098H68.1247Z" fill="#BBBBBB" stroke="#BBBBBB" stroke-width="2" mask="url(#path-1-inside-1_2825_3537)"/>
<path d="M26.3174 6.24799L26.6045 6.40717C26.9976 6.66071 27.2672 6.89725 27.4336 7.22064L27.4355 7.22357C27.5885 7.51553 27.6871 7.85967 27.6904 8.15326L27.6934 8.41205C27.2817 8.05518 26.86 7.85669 26.5898 7.67279C26.5355 7.63467 26.4366 7.53037 26.3496 7.35541C26.2868 7.22904 26.2382 7.0826 26.2168 6.9267L26.2051 6.76849L26.1982 6.18451C26.24 6.20658 26.28 6.22866 26.3174 6.24799Z" fill="#BBBBBB" stroke="#BBBBBB"/>
</g>
<defs>
<clipPath id="clip0_2825_3537">
<rect width="75.8033" height="24" fill="white" transform="translate(0.844727)"/>
</clipPath>
</defs>
</svg>
