<svg width="68" height="24" viewBox="0 0 68 24" fill="none" xmlns="http://www.w3.org/2000/svg">
<g clip-path="url(#clip0_2825_3522)">
<mask id="mask0_2825_3522" style="mask-type:luminance" maskUnits="userSpaceOnUse" x="0" y="0" width="68" height="24">
<path d="M67.4891 0H0.289062V24H67.4891V0Z" fill="white"/>
</mask>
<g mask="url(#mask0_2825_3522)">
<path d="M31.0947 5.2854C33.0324 5.2854 34.6124 5.96248 35.709 7.11841C36.8079 8.27672 37.459 9.95636 37.459 12.0247C37.4589 14.0927 36.8078 15.7717 35.709 16.9299C34.6124 18.0859 33.0325 18.7629 31.0947 18.7629C29.1583 18.7629 27.5787 18.0804 26.4814 16.9211C25.3819 15.7594 24.7305 14.08 24.7305 12.0247C24.7305 9.95651 25.3817 8.27671 26.4805 7.11841C27.5771 5.96254 29.1571 5.28549 31.0947 5.2854ZM31.0947 6.88501C29.8352 6.88511 28.7647 7.41513 28.0195 8.34399C27.2818 9.26363 26.8857 10.543 26.8857 12.0247C26.8858 13.5061 27.2819 14.7848 28.0195 15.7043C28.7647 16.6333 29.8352 17.1642 31.0947 17.1643C32.3565 17.1643 33.4269 16.6255 34.1709 15.6946C34.9075 14.7728 35.3046 13.4949 35.3047 12.0247C35.3047 10.5431 34.9085 9.26361 34.1709 8.34399C33.4257 7.415 32.3543 6.88501 31.0947 6.88501Z" fill="#BBBBBB" stroke="#BBBBBB"/>
<path d="M41.916 5.45532V8.72095C41.916 10.2367 41.9045 11.1252 41.8926 11.6331C41.8867 11.8865 41.8803 12.0441 41.876 12.137C41.8738 12.1833 41.8722 12.2136 41.8711 12.2307C41.8706 12.2385 41.8703 12.2436 41.8701 12.2463L41.8213 12.7913H42.6318L42.7793 12.635L46.0029 9.22095H48.1904L44.5869 12.9143L44.2637 13.2454L44.5693 13.593L48.9229 18.5442H46.9307L43.5879 14.7083L43.2295 14.2961L42.8506 14.6897L42.0801 15.4915L41.9404 15.637V18.5442H40.002V5.45532H41.916Z" fill="#BBBBBB" stroke="#BBBBBB"/>
<path d="M56.9697 9.13232V11.1226C56.8532 11.1158 56.7159 11.1118 56.5547 11.1118C55.5843 11.1118 54.7069 11.4126 54.0742 12.0728C53.4434 12.7312 53.1162 13.6838 53.1162 14.8667V18.5444H51.1777V9.22021H53.0918V11.1401H53.9678L54.0986 10.8394C54.4596 10.0102 55.4171 9.13069 56.874 9.12354C56.9096 9.12675 56.9413 9.12984 56.9697 9.13232Z" fill="#BBBBBB" stroke="#BBBBBB"/>
<path d="M62.5752 9.05054C63.9583 9.05054 64.9782 9.42159 65.6455 10.0144C66.3059 10.6012 66.6757 11.4528 66.6758 12.5339V16.9558C66.6758 17.7225 66.6921 18.1787 66.751 18.4832C66.7518 18.4873 66.7531 18.4917 66.7539 18.4958H65.1211C65.0602 18.2733 65.002 17.9714 65.002 17.6843V17.1843H64.168L64.0225 17.4304C63.7111 17.9601 63.2189 18.3091 62.6035 18.5232C62.16 18.6716 61.6629 18.739 61.1777 18.739C60.7152 18.739 60.3136 18.6544 59.9219 18.5232C58.8863 18.1534 58.258 17.3173 58.2578 16.1785C58.2578 15.1894 58.6391 14.5667 59.3066 14.1394C60.0149 13.686 61.0794 13.4318 62.4629 13.324L62.4639 13.325L64.2939 13.2029L64.7607 13.1726V12.7048C64.7607 11.9204 64.6013 11.2716 64.2158 10.8152C63.8159 10.3418 63.251 10.1639 62.6475 10.1638C62.0192 10.1638 61.47 10.3336 61.0732 10.6951C60.7965 10.9472 60.6247 11.2673 60.543 11.6218H58.5938C58.8634 10.1832 60.3028 9.05054 62.5752 9.05054ZM64.2158 14.0525L62.3369 14.2224L62.333 14.2234C61.7903 14.2768 61.2963 14.4213 60.9268 14.7019C60.5361 14.9986 60.3174 15.4247 60.3174 15.9353C60.3174 16.4276 60.5147 16.8656 60.873 17.1736C61.2253 17.4763 61.6985 17.6257 62.2139 17.6257C62.9612 17.6257 63.6133 17.3404 64.0732 16.8181C64.528 16.3017 64.7607 15.593 64.7607 14.7937V14.0037L64.2158 14.0525Z" fill="#BBBBBB" stroke="#BBBBBB"/>
<path d="M8.28516 0.5C10.4415 0.5 12.4782 1.28607 14.0771 2.71094L14.3906 3.00488C15.9294 4.53642 16.8465 6.53081 17.0117 8.68945L17.0342 9.10938V9.32812C17.0341 11.2103 16.4198 13.0279 15.3223 14.5498L15.0703 14.8994L15.3789 15.2002L16.1191 15.9229H16.1201C16.2398 16.0437 16.2398 16.2639 16.1201 16.3848L13.8555 18.668L13.5068 19.0205L13.8555 19.3721L15.3008 20.8301C15.4313 20.9618 15.4261 21.1863 15.2783 21.3154L15.2773 21.3164C13.6804 22.7199 11.6538 23.5 9.53809 23.5H9.30762C7.17363 23.457 5.13958 22.6273 3.58008 21.1611L3.27441 20.8594C1.67793 19.2032 0.789062 17.0198 0.789062 14.6963C0.789079 12.8083 1.38284 10.9708 2.49609 9.48145L2.75391 9.13672L2.4502 8.83008L1.7041 8.07715C1.58423 7.95625 1.58423 7.73613 1.7041 7.61523L3.96777 5.33203L4.31738 4.97949L3.96777 4.62793L2.52246 3.16992C2.39225 3.03822 2.3975 2.81367 2.54492 2.68457L2.5459 2.68359C4.14268 1.28024 6.16962 0.500115 8.28516 0.5ZM16.3965 9.14551C16.3451 6.99864 15.4725 5.00544 13.9609 3.50684L13.958 3.50391L13.6641 3.23145C12.1702 1.90601 10.2843 1.17578 8.28516 1.17578C6.64375 1.17587 5.05007 1.66821 3.71191 2.60254L3.22461 2.94238L3.64355 3.36426L5.0166 4.74902C5.13609 4.86993 5.13624 5.09016 5.0166 5.21094L2.75195 7.49414L2.40332 7.8457L2.75195 8.19824L2.7998 8.24609L11.1572 16.7002H11.1582L11.2422 16.7852L10.79 17.2412L10.7119 17.1621L9.94141 16.3848L3.60645 9.99609L3.18164 9.56738L2.83984 10.0654C1.91401 11.4142 1.4268 13.0191 1.42676 14.6719C1.42676 16.8162 2.24685 18.8615 3.73633 20.3896C5.22234 21.9142 7.20044 22.7958 9.33301 22.8477V22.8486H9.53809C11.1796 22.8486 12.7731 22.3562 14.1113 21.4219L14.5986 21.082L14.1807 20.6602L12.8164 19.2842C12.6771 19.1286 12.6957 18.9263 12.8076 18.8135L15.0713 16.5303L15.4209 16.1777L15.0713 15.8262L11.0254 11.7451L6.53613 7.21777L7.00488 6.75488L7.08789 6.83789L10.7725 10.5547L10.7744 10.5557L14.2188 14.0049L14.6436 14.4307L14.9844 13.9346C15.9101 12.5859 16.3964 10.9808 16.3965 9.32812V9.14551Z" fill="#BBBBBB" stroke="#BBBBBB"/>
</g>
</g>
<defs>
<clipPath id="clip0_2825_3522">
<rect width="67.2" height="24" fill="white" transform="translate(0.289062)"/>
</clipPath>
</defs>
</svg>
