<svg width="486" height="486" viewBox="0 0 486 486" fill="none" xmlns="http://www.w3.org/2000/svg">
<rect width="486" height="486" rx="24" fill="#111114"/>
<path d="M32.832 77.24C28.128 77.24 24.936 73.856 24.936 68.6C24.936 63.32 28.128 59.984 32.832 59.984C37.536 59.984 40.752 63.32 40.752 68.6C40.752 73.856 37.536 77.24 32.832 77.24ZM28.176 68.6C28.176 72.272 29.952 74.504 32.832 74.504C35.712 74.504 37.488 72.272 37.488 68.6C37.488 64.904 35.712 62.72 32.832 62.72C29.952 62.72 28.176 64.904 28.176 68.6ZM42.9679 81.56V64.52H46.0399V66.32C46.6399 65.144 48.0799 64.28 49.9039 64.28C52.5919 64.28 55.3999 66.2 55.3999 70.76C55.3999 75.32 52.5919 77.24 49.9039 77.24C48.0799 77.24 46.6399 76.376 46.0399 75.2V81.56H42.9679ZM45.8959 70.76C45.8959 73.448 47.5039 74.672 49.1839 74.672C50.9119 74.672 52.5199 73.448 52.5199 70.76C52.5199 68.072 50.9119 66.848 49.1839 66.848C47.5039 66.848 45.8959 68.072 45.8959 70.76ZM63.0671 77.24C59.8271 77.24 56.8991 75.392 56.8991 70.736C56.8991 66.128 59.7551 64.28 63.0191 64.28C66.2351 64.28 68.8751 66.056 68.8751 70.616C68.8751 71.048 68.8511 71.288 68.8031 71.552H59.8031C59.9951 73.88 61.1711 74.888 63.1391 74.888C64.6991 74.888 65.6111 74.288 65.9711 73.088H68.7071C68.0351 75.92 65.8511 77.24 63.0671 77.24ZM59.8271 69.68H65.9711C65.8991 67.928 64.9871 66.632 62.9711 66.632C61.1711 66.632 60.0431 67.64 59.8271 69.68ZM73.9071 71.192V77H70.8351V64.52H73.9071V67.496H73.9791C74.3871 65.816 75.5631 64.424 77.6751 64.424C77.9631 64.424 78.2991 64.448 78.6351 64.544V67.136C78.2751 67.088 77.9871 67.064 77.6751 67.064C75.6111 67.064 73.9071 68.264 73.9071 71.192ZM83.1728 77.24C81.0608 77.24 79.1648 76.232 79.1648 73.736C79.1648 71.144 81.2048 70.4 83.4848 70.088L85.8128 69.776C87.0368 69.608 87.3968 69.392 87.3968 68.744V68.48C87.3968 66.968 86.4848 66.512 85.1408 66.512C83.7728 66.512 82.7168 66.968 82.7168 68.336V68.576L79.8368 68.6V68.048C79.8368 65.624 81.4928 64.28 85.2128 64.28C88.8848 64.28 90.4208 65.6 90.4208 68.36V77H87.4688V74.768H87.3488C87.0848 75.464 85.9568 77.24 83.1728 77.24ZM82.2368 73.472C82.2368 74.432 82.8848 75.008 84.1808 75.008C86.1488 75.008 87.3968 73.688 87.3968 72.68V71.096C87.2288 71.384 86.6288 71.528 85.9328 71.624L83.9408 71.936C82.6448 72.128 82.2368 72.728 82.2368 73.472ZM97.7679 77.168C95.4159 77.168 93.8799 76.136 93.8799 73.496V66.92H91.7919V64.52H93.8799V61.328H96.9519V64.52H99.3999V66.92H96.9519V73.016C96.9519 74.096 97.2879 74.696 98.5839 74.696C98.8719 74.696 99.0879 74.696 99.5439 74.648V76.952C99.0159 77.096 98.4159 77.168 97.7679 77.168ZM101.398 77V64.52H104.47V77H101.398ZM101.182 61.04C101.182 60.056 101.998 59.312 102.934 59.312C103.846 59.312 104.662 60.056 104.662 61.04C104.662 62.024 103.846 62.768 102.934 62.768C101.998 62.768 101.182 62.024 101.182 61.04ZM112.638 77.24C109.494 77.24 106.446 75.272 106.446 70.76C106.446 66.248 109.494 64.28 112.638 64.28C115.758 64.28 118.83 66.248 118.83 70.76C118.83 75.272 115.758 77.24 112.638 77.24ZM109.326 70.76C109.326 73.472 110.814 74.672 112.638 74.672C114.438 74.672 115.926 73.472 115.926 70.76C115.926 68.048 114.438 66.848 112.638 66.848C110.814 66.848 109.326 68.048 109.326 70.76ZM129.324 69.872C129.324 67.832 128.436 66.824 126.78 66.824C125.1 66.824 123.876 67.832 123.876 69.872V77H120.804V64.52H123.876V67.088H123.972C124.212 66.008 125.412 64.28 128.052 64.28C130.5 64.28 132.396 65.768 132.396 69.152V77H129.324V69.872ZM146.299 77.24C142.723 77.24 140.155 75.224 140.155 72.272C140.155 69.896 141.715 68.552 143.659 67.472C142.627 66.224 141.955 65.072 141.955 63.752C141.955 61.856 143.323 59.984 146.467 59.984C149.443 59.984 150.907 61.712 150.907 63.776C150.907 65.408 149.971 66.968 147.643 68.096L150.931 71.72C151.387 70.736 151.651 69.536 151.651 68.12H154.363C154.363 70.544 153.787 72.416 152.875 73.832L155.755 77H152.323L151.147 75.704C149.731 76.76 148.003 77.24 146.299 77.24ZM143.323 71.984C143.323 73.496 144.595 74.72 146.587 74.72C147.571 74.72 148.531 74.384 149.347 73.76L145.219 69.224C143.779 70.064 143.323 71.096 143.323 71.984ZM144.619 63.728C144.619 64.496 145.123 65.24 146.035 66.296C147.715 65.384 148.195 64.592 148.195 63.776C148.195 62.744 147.451 62.12 146.419 62.12C145.291 62.12 144.619 62.84 144.619 63.728ZM167.404 77V63.008H162.412V60.2H175.54V63.008H170.548V77H167.404ZM178.657 77.24C176.545 77.24 174.649 76.232 174.649 73.736C174.649 71.144 176.689 70.4 178.969 70.088L181.297 69.776C182.521 69.608 182.881 69.392 182.881 68.744V68.48C182.881 66.968 181.969 66.512 180.625 66.512C179.257 66.512 178.201 66.968 178.201 68.336V68.576L175.321 68.6V68.048C175.321 65.624 176.977 64.28 180.697 64.28C184.369 64.28 185.905 65.6 185.905 68.36V77H182.953V74.768H182.833C182.569 75.464 181.441 77.24 178.657 77.24ZM177.721 73.472C177.721 74.432 178.369 75.008 179.665 75.008C181.633 75.008 182.881 73.688 182.881 72.68V71.096C182.713 71.384 182.113 71.528 181.417 71.624L179.425 71.936C178.129 72.128 177.721 72.728 177.721 73.472ZM193.052 77.24C189.86 77.24 187.772 75.872 187.748 73.064H190.484C190.652 74.384 191.66 74.912 193.1 74.912C194.42 74.912 195.356 74.456 195.356 73.4C195.356 72.632 194.852 72.248 193.892 72.056L191.588 71.552C189.068 70.976 188.084 69.656 188.084 67.976C188.084 65.624 190.1 64.28 193.1 64.28C196.268 64.28 198.068 65.792 198.116 68.432H195.572C195.38 67.064 194.468 66.608 193.124 66.608C191.756 66.608 191.06 67.064 191.06 67.928C191.06 68.648 191.564 69.104 192.572 69.296L194.948 69.824C196.916 70.28 198.524 71.144 198.524 73.328C198.524 76.088 195.98 77.24 193.052 77.24ZM200.374 77V60.2H203.446V70.112L208.534 64.52H211.942L206.83 69.872L212.614 77H209.206L204.958 71.816L203.446 73.4V77H200.374ZM226.12 77.24C221.824 77.24 219.28 75.176 219.28 71.672H222.52C222.616 73.304 223.624 74.6 226.144 74.6C228.28 74.6 229.456 73.688 229.456 72.176C229.456 70.808 228.52 70.208 226.84 69.872L224.536 69.416C221.8 68.888 219.736 67.616 219.736 64.784C219.736 61.688 222.208 59.984 226.048 59.984C229.912 59.984 232.336 61.736 232.336 64.976H229.096C229.096 63.44 227.896 62.624 225.976 62.624C223.84 62.624 223.048 63.632 223.048 64.784C223.048 65.72 223.624 66.536 225.304 66.896L227.464 67.328C231.208 68.072 232.792 69.536 232.792 72.152C232.792 75.608 229.96 77.24 226.12 77.24ZM239.916 77.168C237.564 77.168 236.028 76.136 236.028 73.496V66.92H233.94V64.52H236.028V61.328H239.1V64.52H241.548V66.92H239.1V73.016C239.1 74.096 239.436 74.696 240.732 74.696C241.02 74.696 241.236 74.696 241.692 74.648V76.952C241.164 77.096 240.564 77.168 239.916 77.168ZM246.837 77.24C244.725 77.24 242.829 76.232 242.829 73.736C242.829 71.144 244.869 70.4 247.149 70.088L249.477 69.776C250.701 69.608 251.061 69.392 251.061 68.744V68.48C251.061 66.968 250.149 66.512 248.805 66.512C247.437 66.512 246.381 66.968 246.381 68.336V68.576L243.501 68.6V68.048C243.501 65.624 245.157 64.28 248.877 64.28C252.549 64.28 254.085 65.6 254.085 68.36V77H251.133V74.768H251.013C250.749 75.464 249.621 77.24 246.837 77.24ZM245.901 73.472C245.901 74.432 246.549 75.008 247.845 75.008C249.813 75.008 251.061 73.688 251.061 72.68V71.096C250.893 71.384 250.293 71.528 249.597 71.624L247.605 71.936C246.309 72.128 245.901 72.728 245.901 73.472ZM261.432 77.168C259.08 77.168 257.544 76.136 257.544 73.496V66.92H255.456V64.52H257.544V61.328H260.616V64.52H263.064V66.92H260.616V73.016C260.616 74.096 260.952 74.696 262.248 74.696C262.536 74.696 262.752 74.696 263.208 74.648V76.952C262.68 77.096 262.08 77.168 261.432 77.168ZM268.134 71.648C268.134 73.688 269.022 74.696 270.678 74.696C272.358 74.696 273.582 73.688 273.582 71.648V64.52H276.654V77H273.582V74.432H273.486C273.246 75.512 272.046 77.24 269.406 77.24C266.958 77.24 265.062 75.752 265.062 72.368V64.52H268.134V71.648ZM283.825 77.24C280.633 77.24 278.545 75.872 278.521 73.064H281.257C281.425 74.384 282.433 74.912 283.873 74.912C285.193 74.912 286.129 74.456 286.129 73.4C286.129 72.632 285.625 72.248 284.665 72.056L282.361 71.552C279.841 70.976 278.857 69.656 278.857 67.976C278.857 65.624 280.873 64.28 283.873 64.28C287.041 64.28 288.841 65.792 288.889 68.432H286.345C286.153 67.064 285.241 66.608 283.897 66.608C282.529 66.608 281.833 67.064 281.833 67.928C281.833 68.648 282.337 69.104 283.345 69.296L285.721 69.824C287.689 70.28 289.297 71.144 289.297 73.328C289.297 76.088 286.753 77.24 283.825 77.24Z" fill="#F9F9F9"/>
<path d="M287 243.5C287 278.376 273.146 311.824 248.485 336.485C223.824 361.146 190.376 375 155.5 375C120.624 375 87.1765 361.146 62.5155 336.485C37.8544 311.824 24 278.376 24 243.5H91.9693C91.9693 260.349 98.6627 276.509 110.577 288.423C122.491 300.337 138.651 307.031 155.5 307.031C172.349 307.031 188.509 300.337 200.423 288.423C212.337 276.509 219.031 260.349 219.031 243.5H287Z" fill="#34C759"/>
<path d="M24 243.5C24 222.748 28.9114 202.29 38.3326 183.8C47.7539 165.31 61.4175 149.312 78.2063 137.114C94.995 124.916 114.432 116.865 134.929 113.619C155.425 110.373 176.399 112.023 196.136 118.436L175.132 183.079C165.597 179.981 155.464 179.183 145.562 180.752C135.659 182.32 126.269 186.21 118.158 192.103C110.047 197.996 103.445 205.725 98.8938 214.658C94.3422 223.591 91.9693 233.474 91.9693 243.5L24 243.5Z" fill="#FF9500"/>
<path d="M196.307 118.492C222.706 127.11 245.7 143.863 261.992 166.352C278.284 188.841 287.038 215.91 287 243.68L219.031 243.587C219.049 230.171 214.82 217.093 206.949 206.228C199.078 195.363 187.969 187.269 175.215 183.106L196.307 118.492Z" fill="#007AFF"/>
<circle cx="326" cy="172" r="6" fill="#34C759"/>
<path d="M351.22 164.2C347.4 164.2 344.82 161.66 344.82 157C344.82 152.36 347.4 149.82 351.24 149.82C354.14 149.82 356.4 151.28 356.8 154.34H354.76C354.32 152.52 352.98 151.62 351.18 151.62C348.5 151.62 346.92 153.64 346.92 157C346.92 160.36 348.48 162.4 351.18 162.4C352.98 162.4 354.32 161.5 354.76 159.66H356.8C356.4 162.74 354.14 164.2 351.22 164.2ZM362.981 164.2C360.401 164.2 357.921 162.52 357.921 158.8C357.921 155.08 360.401 153.4 362.981 153.4C365.581 153.4 368.061 155.08 368.061 158.8C368.061 162.52 365.581 164.2 362.981 164.2ZM359.841 158.8C359.841 161.36 361.301 162.5 362.981 162.5C364.661 162.5 366.141 161.36 366.141 158.8C366.141 156.24 364.661 155.1 362.981 155.1C361.301 155.1 359.841 156.24 359.841 158.8ZM383.288 157.98C383.288 156.12 382.568 155.1 381.048 155.1C379.588 155.1 378.568 156.12 378.568 157.98V164H376.548V157.98C376.548 156.12 375.808 155.1 374.308 155.1C372.848 155.1 371.828 156.12 371.828 157.98V164H369.808V153.6H371.828V155.68H371.888C372.048 154.9 373.048 153.4 375.108 153.4C376.568 153.4 377.828 154.1 378.328 155.76C378.568 154.92 379.588 153.4 381.768 153.4C383.788 153.4 385.308 154.58 385.308 157.52V164H383.288V157.98ZM387.542 167.8V153.6H389.562V155.24C390.182 154.1 391.502 153.4 393.042 153.4C395.362 153.4 397.682 155.02 397.682 158.8C397.682 162.56 395.362 164.2 393.042 164.2C391.502 164.2 390.182 163.5 389.562 162.36V167.8H387.542ZM389.462 158.8C389.462 161.34 391.022 162.5 392.622 162.5C394.242 162.5 395.762 161.34 395.762 158.8C395.762 156.26 394.242 155.1 392.622 155.1C391.022 155.1 389.462 156.26 389.462 158.8ZM399.417 164V150H401.437V164H399.417ZM408.215 164.2C405.415 164.2 403.175 162.56 403.175 158.82C403.175 155 405.455 153.4 408.135 153.4C410.815 153.4 412.875 155.02 412.875 158.66C412.875 159.02 412.855 159.22 412.815 159.44H405.115C405.275 161.62 406.375 162.62 408.235 162.62C409.515 162.62 410.495 162.16 410.935 160.94H412.735C412.115 163.26 410.335 164.2 408.215 164.2ZM405.135 157.92H410.955C410.915 156.1 409.895 154.98 408.115 154.98C406.455 154.98 405.315 155.94 405.135 157.92ZM418.259 164.14C416.519 164.14 415.339 163.4 415.339 161.36V155.2H413.639V153.6H415.339V150.98H417.359V153.6H419.419V155.2H417.359V161.02C417.359 162.04 417.699 162.5 418.819 162.5C419.059 162.5 419.239 162.5 419.559 162.46V163.98C419.179 164.08 418.739 164.14 418.259 164.14ZM425.637 164.2C422.837 164.2 420.597 162.56 420.597 158.82C420.597 155 422.877 153.4 425.557 153.4C428.237 153.4 430.297 155.02 430.297 158.66C430.297 159.02 430.277 159.22 430.237 159.44H422.537C422.697 161.62 423.797 162.62 425.657 162.62C426.937 162.62 427.917 162.16 428.357 160.94H430.157C429.537 163.26 427.757 164.2 425.637 164.2ZM422.557 157.92H428.377C428.337 156.1 427.317 154.98 425.537 154.98C423.877 154.98 422.737 155.94 422.557 157.92ZM349.88 194.2C346.7 194.2 344.92 192.28 344.92 189.7H346.76C346.82 191.52 348.18 192.54 349.84 192.54C351.46 192.54 352.96 191.58 352.96 189.28C352.96 186.96 351.46 186.02 349.88 186.02C348.72 186.02 347.68 186.52 347.12 187.48H345.2L346.34 180H353.72V181.62H347.74L347.08 185.8C347.48 185.26 348.58 184.44 350.36 184.44C352.98 184.44 354.96 186.24 354.96 189.28C354.96 192.38 352.94 194.2 349.88 194.2ZM361.862 194.2C358.942 194.2 356.402 192 356.402 187C356.402 182.04 358.942 179.82 361.862 179.82C364.802 179.82 367.342 182.04 367.342 187C367.342 192 364.802 194.2 361.862 194.2ZM358.322 187C358.322 190.22 359.522 192.48 361.862 192.48C364.202 192.48 365.402 190.22 365.402 187C365.402 183.8 364.202 181.54 361.862 181.54C359.522 181.54 358.322 183.8 358.322 187ZM370.4 191.62L369.54 190.44L380.56 182.4L381.42 183.58L370.4 191.62ZM368.98 182.94C368.98 180.94 370.2 179.84 371.76 179.84C373.32 179.84 374.54 180.94 374.54 182.94C374.54 185 373.32 186.06 371.76 186.06C370.18 186.06 368.98 185 368.98 182.94ZM370.46 182.94C370.46 184.18 371.06 184.68 371.76 184.68C372.46 184.68 373.06 184.18 373.06 182.94C373.06 181.7 372.46 181.22 371.76 181.22C371.06 181.22 370.46 181.7 370.46 182.94ZM376.42 191.04C376.42 189.04 377.64 187.94 379.2 187.94C380.76 187.94 381.98 189.04 381.98 191.04C381.98 193.12 380.76 194.18 379.2 194.18C377.64 194.18 376.42 193.12 376.42 191.04ZM377.9 191.04C377.9 192.3 378.5 192.78 379.2 192.78C379.9 192.78 380.5 192.3 380.5 191.04C380.5 189.82 379.9 189.34 379.2 189.34C378.5 189.34 377.9 189.82 377.9 191.04Z" fill="#F9F9F9"/>
<circle cx="326" cy="244" r="6" fill="#FF9500"/>
<path d="M345.12 236V222H347.2V236H345.12ZM356.657 229.98C356.657 228.12 355.857 227.1 354.217 227.1C352.577 227.1 351.437 228.12 351.437 229.98V236H349.417V225.6H351.437V227.68H351.497C351.677 226.9 352.677 225.4 354.997 225.4C357.037 225.4 358.677 226.58 358.677 229.52V236H356.657V229.98ZM365.53 236V222H370.81C374.23 222 375.87 223.74 375.87 226.44C375.87 229.1 374.23 230.84 370.81 230.84H367.61V236H365.53ZM367.61 229.02H370.73C372.75 229.02 373.75 228.06 373.75 226.44C373.75 224.78 372.75 223.82 370.73 223.82H367.61V229.02ZM379.62 230.8V236H377.6V225.6H379.62V228H379.66C379.98 226.78 380.96 225.52 382.86 225.52C383.12 225.52 383.4 225.54 383.64 225.62V227.32C383.38 227.28 383.14 227.26 382.88 227.26C380.94 227.26 379.62 228.48 379.62 230.8ZM389.446 236.2C386.866 236.2 384.386 234.52 384.386 230.8C384.386 227.08 386.866 225.4 389.446 225.4C392.046 225.4 394.526 227.08 394.526 230.8C394.526 234.52 392.046 236.2 389.446 236.2ZM386.306 230.8C386.306 233.36 387.766 234.5 389.446 234.5C391.126 234.5 392.606 233.36 392.606 230.8C392.606 228.24 391.126 227.1 389.446 227.1C387.766 227.1 386.306 228.24 386.306 230.8ZM400.39 235.76C398.11 235.76 395.87 234.26 395.87 230.58C395.87 226.9 398.13 225.4 400.39 225.4C401.87 225.4 403.19 226.04 403.87 227.12V225.6H405.89V235.78C405.89 239.36 402.97 240.18 400.79 240.18C398.73 240.18 396.19 239.46 396.17 236.82H397.95C398.01 238 399.29 238.6 400.75 238.6C402.47 238.6 403.87 237.78 403.87 235.78V234.04C403.19 235.12 401.87 235.76 400.39 235.76ZM397.77 230.58C397.77 232.96 399.25 234.08 400.87 234.08C402.47 234.08 403.97 232.96 403.97 230.58C403.97 228.2 402.47 227.1 400.87 227.1C399.25 227.1 397.77 228.2 397.77 230.58ZM410.148 230.8V236H408.128V225.6H410.148V228H410.188C410.508 226.78 411.488 225.52 413.388 225.52C413.648 225.52 413.928 225.54 414.168 225.62V227.32C413.908 227.28 413.668 227.26 413.408 227.26C411.468 227.26 410.148 228.48 410.148 230.8ZM419.953 236.2C417.153 236.2 414.913 234.56 414.913 230.82C414.913 227 417.193 225.4 419.873 225.4C422.553 225.4 424.613 227.02 424.613 230.66C424.613 231.02 424.593 231.22 424.553 231.44H416.853C417.013 233.62 418.113 234.62 419.973 234.62C421.253 234.62 422.233 234.16 422.673 232.94H424.473C423.853 235.26 422.073 236.2 419.953 236.2ZM416.873 229.92H422.693C422.653 228.1 421.633 226.98 419.853 226.98C418.193 226.98 417.053 227.94 416.873 229.92ZM430.09 236.2C427.59 236.2 425.81 235.16 425.75 232.9H427.57C427.73 234.18 428.83 234.64 430.11 234.64C431.39 234.64 432.39 234.18 432.39 233.06C432.39 232.22 431.81 231.88 430.83 231.66L428.89 231.22C426.93 230.76 426.05 229.76 426.05 228.36C426.05 226.46 427.67 225.4 430.09 225.4C432.57 225.4 434.07 226.52 434.17 228.66H432.47C432.29 227.38 431.41 226.96 430.11 226.96C428.75 226.96 428.01 227.42 428.01 228.32C428.01 229.04 428.47 229.48 429.55 229.72L431.51 230.16C433.19 230.56 434.45 231.24 434.45 233.02C434.45 235.32 432.37 236.2 430.09 236.2ZM439.837 236.2C437.337 236.2 435.557 235.16 435.497 232.9H437.317C437.477 234.18 438.577 234.64 439.857 234.64C441.137 234.64 442.137 234.18 442.137 233.06C442.137 232.22 441.557 231.88 440.577 231.66L438.637 231.22C436.677 230.76 435.797 229.76 435.797 228.36C435.797 226.46 437.417 225.4 439.837 225.4C442.317 225.4 443.817 226.52 443.917 228.66H442.217C442.037 227.38 441.157 226.96 439.857 226.96C438.497 226.96 437.757 227.42 437.757 228.32C437.757 229.04 438.217 229.48 439.297 229.72L441.257 230.16C442.937 230.56 444.197 231.24 444.197 233.02C444.197 235.32 442.117 236.2 439.837 236.2ZM349.7 266.2C346.34 266.2 344.72 264.26 344.72 261.44H346.62C346.64 263.44 347.94 264.46 349.78 264.46C351.44 264.46 352.88 263.58 352.88 261.86C352.88 260.34 351.74 259.34 349.56 259.34H348.88V257.82H349.46C351.72 257.82 352.26 256.66 352.26 255.68C352.26 254.32 351.24 253.56 349.76 253.56C348.32 253.56 347.08 254.3 347.08 256.38H345.18C345.18 253.4 346.9 251.82 349.8 251.82C352.6 251.82 354.22 253.3 354.22 255.38C354.22 257 353.22 258.1 351.9 258.46C353.2 258.66 354.92 259.7 354.92 261.98C354.92 264.46 352.88 266.2 349.7 266.2ZM361.921 266.2C359.001 266.2 356.461 264 356.461 259C356.461 254.04 359.001 251.82 361.921 251.82C364.861 251.82 367.401 254.04 367.401 259C367.401 264 364.861 266.2 361.921 266.2ZM358.381 259C358.381 262.22 359.581 264.48 361.921 264.48C364.261 264.48 365.461 262.22 365.461 259C365.461 255.8 364.261 253.54 361.921 253.54C359.581 253.54 358.381 255.8 358.381 259ZM370.459 263.62L369.599 262.44L380.619 254.4L381.479 255.58L370.459 263.62ZM369.039 254.94C369.039 252.94 370.259 251.84 371.819 251.84C373.379 251.84 374.599 252.94 374.599 254.94C374.599 257 373.379 258.06 371.819 258.06C370.239 258.06 369.039 257 369.039 254.94ZM370.519 254.94C370.519 256.18 371.119 256.68 371.819 256.68C372.519 256.68 373.119 256.18 373.119 254.94C373.119 253.7 372.519 253.22 371.819 253.22C371.119 253.22 370.519 253.7 370.519 254.94ZM376.479 263.04C376.479 261.04 377.699 259.94 379.259 259.94C380.819 259.94 382.039 261.04 382.039 263.04C382.039 265.12 380.819 266.18 379.259 266.18C377.699 266.18 376.479 265.12 376.479 263.04ZM377.959 263.04C377.959 264.3 378.559 264.78 379.259 264.78C379.959 264.78 380.559 264.3 380.559 263.04C380.559 261.82 379.959 261.34 379.259 261.34C378.559 261.34 377.959 261.82 377.959 263.04Z" fill="#F9F9F9"/>
<circle cx="326" cy="316" r="6" fill="#007AFF"/>
<path d="M345.12 308V294H347.2V308H345.12ZM356.657 301.98C356.657 300.12 355.857 299.1 354.217 299.1C352.577 299.1 351.437 300.12 351.437 301.98V308H349.417V297.6H351.437V299.68H351.497C351.677 298.9 352.677 297.4 354.997 297.4C357.037 297.4 358.677 298.58 358.677 301.52V308H356.657V301.98ZM376.85 308.34L375.53 307C374.49 307.78 373.17 308.2 371.69 308.2C367.91 308.2 365.23 305.52 365.23 301C365.23 296.48 367.91 293.82 371.69 293.82C375.45 293.82 378.13 296.48 378.13 301C378.13 302.96 377.63 304.56 376.75 305.76L378.11 307.14L376.85 308.34ZM367.35 301C367.35 304.48 369.11 306.4 371.69 306.4C372.65 306.4 373.49 306.14 374.17 305.62L371.77 303.2L373.03 302L375.29 304.28C375.75 303.44 376.01 302.34 376.01 301C376.01 297.52 374.25 295.62 371.69 295.62C369.11 295.62 367.35 297.52 367.35 301ZM381.984 303.62C381.984 305.48 382.784 306.5 384.424 306.5C386.064 306.5 387.204 305.48 387.204 303.62V297.6H389.224V308H387.204V305.92H387.144C386.964 306.7 385.964 308.2 383.644 308.2C381.604 308.2 379.964 307.02 379.964 304.08V297.6H381.984V303.62ZM396.008 308.2C393.208 308.2 390.968 306.56 390.968 302.82C390.968 299 393.248 297.4 395.928 297.4C398.608 297.4 400.668 299.02 400.668 302.66C400.668 303.02 400.648 303.22 400.608 303.44H392.908C393.068 305.62 394.168 306.62 396.028 306.62C397.308 306.62 398.288 306.16 398.728 304.94H400.528C399.908 307.26 398.128 308.2 396.008 308.2ZM392.928 301.92H398.748C398.708 300.1 397.688 298.98 395.908 298.98C394.248 298.98 393.108 299.94 392.928 301.92ZM404.425 303.62C404.425 305.48 405.225 306.5 406.865 306.5C408.505 306.5 409.645 305.48 409.645 303.62V297.6H411.665V308H409.645V305.92H409.585C409.405 306.7 408.405 308.2 406.085 308.2C404.045 308.2 402.405 307.02 402.405 304.08V297.6H404.425V303.62ZM418.449 308.2C415.649 308.2 413.409 306.56 413.409 302.82C413.409 299 415.689 297.4 418.369 297.4C421.049 297.4 423.109 299.02 423.109 302.66C423.109 303.02 423.089 303.22 423.049 303.44H415.349C415.509 305.62 416.609 306.62 418.469 306.62C419.749 306.62 420.729 306.16 421.169 304.94H422.969C422.349 307.26 420.569 308.2 418.449 308.2ZM415.369 301.92H421.189C421.149 300.1 420.129 298.98 418.349 298.98C416.689 298.98 415.549 299.94 415.369 301.92ZM344.8 337.42C344.8 334.92 345.74 333.34 348.66 331.6C350.66 330.38 352.14 329.64 352.14 327.9C352.16 326.32 351.02 325.54 349.58 325.54C348.1 325.54 346.94 326.4 346.94 328.28V328.56H344.98V328.18C344.98 325.68 346.52 323.82 349.6 323.82C352.52 323.82 354.16 325.48 354.16 327.8C354.16 330.32 352.26 331.44 350.32 332.56C348.2 333.84 347.1 334.82 347.1 336.2V336.3H354.2V338H344.8V337.42ZM361.374 338.2C358.454 338.2 355.914 336 355.914 331C355.914 326.04 358.454 323.82 361.374 323.82C364.314 323.82 366.854 326.04 366.854 331C366.854 336 364.314 338.2 361.374 338.2ZM357.834 331C357.834 334.22 359.034 336.48 361.374 336.48C363.714 336.48 364.914 334.22 364.914 331C364.914 327.8 363.714 325.54 361.374 325.54C359.034 325.54 357.834 327.8 357.834 331ZM369.912 335.62L369.052 334.44L380.072 326.4L380.932 327.58L369.912 335.62ZM368.492 326.94C368.492 324.94 369.712 323.84 371.272 323.84C372.832 323.84 374.052 324.94 374.052 326.94C374.052 329 372.832 330.06 371.272 330.06C369.692 330.06 368.492 329 368.492 326.94ZM369.972 326.94C369.972 328.18 370.572 328.68 371.272 328.68C371.972 328.68 372.572 328.18 372.572 326.94C372.572 325.7 371.972 325.22 371.272 325.22C370.572 325.22 369.972 325.7 369.972 326.94ZM375.932 335.04C375.932 333.04 377.152 331.94 378.712 331.94C380.272 331.94 381.492 333.04 381.492 335.04C381.492 337.12 380.272 338.18 378.712 338.18C377.152 338.18 375.932 337.12 375.932 335.04ZM377.412 335.04C377.412 336.3 378.012 336.78 378.712 336.78C379.412 336.78 380.012 336.3 380.012 335.04C380.012 333.82 379.412 333.34 378.712 333.34C378.012 333.34 377.412 333.82 377.412 335.04Z" fill="#F9F9F9"/>
<rect x="124" y="395" width="239" height="61" rx="16" fill="#0A090E"/>
<rect x="136" y="413.5" width="24" height="24" rx="12" fill="#34C759"/>
<path d="M152.499 422.2L146.199 429.4L143.499 426.7" stroke="#F9F9F9" stroke-width="1.2375" stroke-miterlimit="10" stroke-linecap="square"/>
<path d="M172.272 421L176.32 409.8H179.408L183.456 421H180.944L180.224 418.904H175.504L174.784 421H172.272ZM176.112 417.128H179.616L177.936 412.248H177.792L176.112 417.128ZM184.566 421V409.8H186.902V421H184.566ZM188.566 421V409.8H190.902V421H188.566ZM200.686 421.16C197.79 421.16 196.014 419.8 196.014 417.336H198.494C198.542 418.344 199.15 419.176 200.702 419.176C201.966 419.176 202.702 418.632 202.702 417.72C202.702 416.952 202.174 416.6 201.15 416.392L199.582 416.072C197.806 415.736 196.318 414.936 196.318 412.936C196.318 410.776 198.062 409.656 200.638 409.656C203.262 409.656 204.942 410.808 204.942 413.112H202.478C202.51 412.104 201.694 411.64 200.59 411.64C199.294 411.64 198.83 412.28 198.83 412.936C198.83 413.448 199.15 413.944 200.158 414.152L201.598 414.44C204.238 414.984 205.246 416.008 205.246 417.704C205.246 420.12 203.246 421.16 200.686 421.16ZM206.713 422.232C208.361 422.44 208.761 421.832 208.953 421.384C209.129 420.968 209.129 420.712 208.937 420.248L205.881 412.68H208.281L210.217 418.056L212.201 412.68H214.601L211.193 421.064C210.153 423.64 209.097 424.456 206.713 424.2V422.232ZM218.421 421.16C216.197 421.16 214.837 420.184 214.821 418.264H216.917C216.997 419.048 217.525 419.416 218.437 419.416C219.221 419.416 219.749 419.144 219.749 418.552C219.749 418.168 219.493 417.928 218.949 417.816L217.413 417.496C215.669 417.096 215.045 416.168 215.045 415.064C215.045 413.448 216.437 412.52 218.453 412.52C220.677 412.52 221.845 413.608 221.877 415.4H219.925C219.829 414.568 219.285 414.264 218.485 414.264C217.685 414.264 217.317 414.552 217.317 415C217.317 415.416 217.621 415.688 218.181 415.8L219.749 416.136C221.061 416.424 222.149 417.032 222.149 418.504C222.149 420.36 220.437 421.16 218.421 421.16ZM226.948 421.112C225.284 421.112 224.18 420.36 224.18 418.504V414.488H222.772V412.68H224.18V410.536H226.516V412.68H228.164V414.488H226.516V418.168C226.516 418.808 226.708 419.24 227.572 419.24C227.748 419.24 227.892 419.24 228.228 419.208V420.952C227.86 421.048 227.412 421.112 226.948 421.112ZM233.124 421.16C231.012 421.16 228.932 419.992 228.932 416.824C228.932 413.72 230.9 412.52 233.108 412.52C235.252 412.52 237.06 413.64 237.06 416.792C237.06 417.096 237.044 417.256 237.012 417.432H231.156C231.284 418.824 232.004 419.384 233.156 419.384C234.228 419.384 234.692 418.952 234.884 418.28H236.948C236.532 420.184 235.06 421.16 233.124 421.16ZM231.156 416.056H234.852C234.82 415.096 234.324 414.296 233.044 414.296C231.956 414.296 231.316 414.904 231.156 416.056ZM248.748 416.28C248.748 415.016 248.22 414.456 247.372 414.456C246.54 414.456 245.868 415.016 245.868 416.28V421H243.532V416.28C243.532 415.016 243.004 414.456 242.156 414.456C241.324 414.456 240.652 415.016 240.652 416.28V421H238.316V412.68H240.652V414.424H240.748C240.876 413.64 241.724 412.52 243.18 412.52C244.332 412.52 245.308 413.144 245.692 414.424C245.852 413.656 246.764 412.52 248.332 412.52C249.916 412.52 251.084 413.56 251.084 415.72V421H248.748V416.28ZM255.874 421.16C253.65 421.16 252.29 420.184 252.274 418.264H254.37C254.45 419.048 254.978 419.416 255.89 419.416C256.674 419.416 257.202 419.144 257.202 418.552C257.202 418.168 256.946 417.928 256.402 417.816L254.866 417.496C253.122 417.096 252.498 416.168 252.498 415.064C252.498 413.448 253.89 412.52 255.906 412.52C258.13 412.52 259.298 413.608 259.33 415.4H257.378C257.282 414.568 256.738 414.264 255.938 414.264C255.138 414.264 254.77 414.552 254.77 415C254.77 415.416 255.074 415.688 255.634 415.8L257.202 416.136C258.514 416.424 259.602 417.032 259.602 418.504C259.602 420.36 257.89 421.16 255.874 421.16ZM269.577 421.16C266.345 421.16 264.233 418.824 264.233 415.4C264.233 411.96 266.345 409.656 269.577 409.656C272.809 409.656 274.921 411.96 274.921 415.4C274.921 418.824 272.809 421.16 269.577 421.16ZM266.697 415.4C266.697 417.624 267.737 419.096 269.577 419.096C271.417 419.096 272.457 417.624 272.457 415.4C272.457 413.16 271.417 411.72 269.577 411.72C267.737 411.72 266.697 413.16 266.697 415.4ZM276.348 424.04V412.68H278.684V413.88C278.988 413.16 279.9 412.52 281.132 412.52C282.876 412.52 284.78 413.784 284.78 416.84C284.78 419.896 282.876 421.16 281.132 421.16C279.9 421.16 278.988 420.52 278.684 419.8V424.04H276.348ZM278.588 416.84C278.588 418.472 279.548 419.224 280.572 419.224C281.612 419.224 282.572 418.472 282.572 416.84C282.572 415.208 281.612 414.456 280.572 414.456C279.548 414.456 278.588 415.208 278.588 416.84ZM289.921 421.16C287.809 421.16 285.729 419.992 285.729 416.824C285.729 413.72 287.697 412.52 289.905 412.52C292.049 412.52 293.857 413.64 293.857 416.792C293.857 417.096 293.841 417.256 293.809 417.432H287.953C288.081 418.824 288.801 419.384 289.953 419.384C291.025 419.384 291.489 418.952 291.681 418.28H293.745C293.329 420.184 291.857 421.16 289.921 421.16ZM287.953 416.056H291.649C291.617 415.096 291.121 414.296 289.841 414.296C288.753 414.296 288.113 414.904 287.953 416.056ZM297.449 417.32V421H295.113V412.68H297.449V414.696H297.513C297.801 413.48 298.585 412.616 299.913 412.616C300.105 412.616 300.313 412.632 300.553 412.696V414.664C300.297 414.632 300.105 414.616 299.897 414.616C298.649 414.616 297.449 415.304 297.449 417.32ZM303.526 421.16C302.166 421.16 300.854 420.504 300.854 418.792C300.854 416.952 302.358 416.552 303.798 416.344L305.206 416.136C305.974 416.024 306.214 415.896 306.214 415.432V415.32C306.214 414.44 305.638 414.2 304.918 414.2C304.166 414.2 303.494 414.44 303.494 415.304V415.448L301.302 415.464V415.08C301.302 413.448 302.39 412.52 304.982 412.52C307.494 412.52 308.502 413.416 308.502 415.224V421H306.278V419.528H306.182C306.022 419.976 305.35 421.16 303.526 421.16ZM303.19 418.6C303.19 419.112 303.526 419.496 304.326 419.496C305.43 419.496 306.214 418.76 306.214 418.104V417.176C306.086 417.368 305.686 417.432 305.318 417.496L304.15 417.704C303.43 417.816 303.19 418.168 303.19 418.6ZM313.542 421.112C311.878 421.112 310.774 420.36 310.774 418.504V414.488H309.366V412.68H310.774V410.536H313.11V412.68H314.758V414.488H313.11V418.168C313.11 418.808 313.302 419.24 314.166 419.24C314.342 419.24 314.486 419.24 314.822 419.208V420.952C314.454 421.048 314.006 421.112 313.542 421.112ZM316.004 421V412.68H318.34V421H316.004ZM315.892 410.424C315.892 409.688 316.5 409.128 317.172 409.128C317.844 409.128 318.452 409.688 318.452 410.424C318.452 411.144 317.844 411.704 317.172 411.704C316.5 411.704 315.892 411.144 315.892 410.424ZM323.78 421.16C321.684 421.16 319.604 419.864 319.604 416.84C319.604 413.816 321.684 412.52 323.78 412.52C325.876 412.52 327.956 413.816 327.956 416.84C327.956 419.864 325.876 421.16 323.78 421.16ZM321.796 416.84C321.796 418.488 322.66 419.224 323.78 419.224C324.9 419.224 325.764 418.488 325.764 416.84C325.764 415.192 324.9 414.456 323.78 414.456C322.66 414.456 321.796 415.192 321.796 416.84ZM334.839 416.28C334.839 415.016 334.279 414.456 333.303 414.456C332.327 414.456 331.559 415.016 331.559 416.28V421H329.223V412.68H331.559V414.424H331.655C331.799 413.64 332.599 412.52 334.311 412.52C335.927 412.52 337.175 413.56 337.175 415.72V421H334.839V416.28ZM341.104 421.16C339.744 421.16 338.432 420.504 338.432 418.792C338.432 416.952 339.936 416.552 341.376 416.344L342.784 416.136C343.552 416.024 343.792 415.896 343.792 415.432V415.32C343.792 414.44 343.216 414.2 342.496 414.2C341.744 414.2 341.072 414.44 341.072 415.304V415.448L338.88 415.464V415.08C338.88 413.448 339.968 412.52 342.56 412.52C345.072 412.52 346.08 413.416 346.08 415.224V421H343.856V419.528H343.76C343.6 419.976 342.928 421.16 341.104 421.16ZM340.768 418.6C340.768 419.112 341.104 419.496 341.904 419.496C343.008 419.496 343.792 418.76 343.792 418.104V417.176C343.664 417.368 343.264 417.432 342.896 417.496L341.728 417.704C341.008 417.816 340.768 418.168 340.768 418.6ZM347.738 421V409.8H350.074V421H347.738Z" fill="#F9F9F9"/>
<path d="M172.784 442V432.2H174.352L179.14 439.718H179.182V432.2H180.638V442H179.014L174.268 434.552H174.24V442H172.784ZM185.396 442.14C183.59 442.14 181.854 440.964 181.854 438.36C181.854 435.756 183.59 434.58 185.396 434.58C187.216 434.58 188.952 435.756 188.952 438.36C188.952 440.964 187.216 442.14 185.396 442.14ZM183.198 438.36C183.198 440.152 184.22 440.95 185.396 440.95C186.572 440.95 187.608 440.152 187.608 438.36C187.608 436.568 186.572 435.77 185.396 435.77C184.22 435.77 183.198 436.568 183.198 438.36ZM193.401 442V434.72H194.815V442H193.401ZM193.261 432.62C193.261 432.158 193.653 431.78 194.101 431.78C194.549 431.78 194.941 432.158 194.941 432.62C194.941 433.096 194.549 433.46 194.101 433.46C193.653 433.46 193.261 433.096 193.261 432.62ZM199 442.14C197.25 442.14 196.004 441.412 195.962 439.83H197.236C197.348 440.726 198.118 441.048 199.014 441.048C199.91 441.048 200.61 440.726 200.61 439.942C200.61 439.354 200.204 439.116 199.518 438.962L198.16 438.654C196.788 438.332 196.172 437.632 196.172 436.652C196.172 435.322 197.306 434.58 199 434.58C200.736 434.58 201.786 435.364 201.856 436.862H200.666C200.54 435.966 199.924 435.672 199.014 435.672C198.062 435.672 197.544 435.994 197.544 436.624C197.544 437.128 197.866 437.436 198.622 437.604L199.994 437.912C201.17 438.192 202.052 438.668 202.052 439.914C202.052 441.524 200.596 442.14 199 442.14ZM205.822 442.14C204.072 442.14 202.826 441.412 202.784 439.83H204.058C204.17 440.726 204.94 441.048 205.836 441.048C206.732 441.048 207.432 440.726 207.432 439.942C207.432 439.354 207.026 439.116 206.34 438.962L204.982 438.654C203.61 438.332 202.994 437.632 202.994 436.652C202.994 435.322 204.128 434.58 205.822 434.58C207.558 434.58 208.608 435.364 208.678 436.862H207.488C207.362 435.966 206.746 435.672 205.836 435.672C204.884 435.672 204.366 435.994 204.366 436.624C204.366 437.128 204.688 437.436 205.444 437.604L206.816 437.912C207.992 438.192 208.874 438.668 208.874 439.914C208.874 441.524 207.418 442.14 205.822 442.14ZM211.44 438.934C211.44 440.236 212 440.95 213.148 440.95C214.296 440.95 215.094 440.236 215.094 438.934V434.72H216.508V442H215.094V440.544H215.052C214.926 441.09 214.226 442.14 212.602 442.14C211.174 442.14 210.026 441.314 210.026 439.256V434.72H211.44V438.934ZM221.257 442.14C219.297 442.14 217.729 440.992 217.729 438.374C217.729 435.7 219.325 434.58 221.201 434.58C223.077 434.58 224.519 435.714 224.519 438.262C224.519 438.514 224.505 438.654 224.477 438.808H219.087C219.199 440.334 219.969 441.034 221.271 441.034C222.167 441.034 222.853 440.712 223.161 439.858H224.421C223.987 441.482 222.741 442.14 221.257 442.14ZM219.101 437.744H223.175C223.147 436.47 222.433 435.686 221.187 435.686C220.025 435.686 219.227 436.358 219.101 437.744ZM231.86 442.14C230.236 442.14 228.612 440.992 228.612 438.36C228.612 435.714 230.236 434.58 231.86 434.58C232.938 434.58 233.862 435.07 234.296 435.868V432.2H235.71V442H234.296V440.852C233.862 441.65 232.938 442.14 231.86 442.14ZM229.956 438.36C229.956 440.138 231.02 440.95 232.154 440.95C233.274 440.95 234.366 440.138 234.366 438.36C234.366 436.582 233.274 435.77 232.154 435.77C231.02 435.77 229.956 436.582 229.956 438.36ZM240.452 442.14C238.492 442.14 236.924 440.992 236.924 438.374C236.924 435.7 238.52 434.58 240.396 434.58C242.272 434.58 243.714 435.714 243.714 438.262C243.714 438.514 243.7 438.654 243.672 438.808H238.282C238.394 440.334 239.164 441.034 240.466 441.034C241.362 441.034 242.048 440.712 242.356 439.858H243.616C243.182 441.482 241.936 442.14 240.452 442.14ZM238.296 437.744H242.37C242.342 436.47 241.628 435.686 240.382 435.686C239.22 435.686 238.422 436.358 238.296 437.744ZM247.483 442.098C246.265 442.098 245.439 441.58 245.439 440.152V435.84H244.249V434.72H245.439V432.886H246.853V434.72H248.295V435.84H246.853V439.914C246.853 440.628 247.091 440.95 247.875 440.95C248.043 440.95 248.169 440.95 248.393 440.922V441.986C248.127 442.056 247.819 442.098 247.483 442.098ZM252.648 442.14C250.688 442.14 249.12 440.992 249.12 438.374C249.12 435.7 250.716 434.58 252.592 434.58C254.468 434.58 255.91 435.714 255.91 438.262C255.91 438.514 255.896 438.654 255.868 438.808H250.478C250.59 440.334 251.36 441.034 252.662 441.034C253.558 441.034 254.244 440.712 254.552 439.858H255.812C255.378 441.482 254.132 442.14 252.648 442.14ZM250.492 437.744H254.566C254.538 436.47 253.824 435.686 252.578 435.686C251.416 435.686 250.618 436.358 250.492 437.744ZM260.4 442.14C258.566 442.14 256.844 441.006 256.844 438.374C256.844 435.742 258.566 434.58 260.4 434.58C261.702 434.58 263.312 435.14 263.578 437.31H262.29C262.094 436.19 261.296 435.784 260.386 435.784C259.056 435.784 258.174 436.736 258.174 438.374C258.174 440.012 259.056 440.936 260.386 440.936C261.31 440.936 262.094 440.516 262.29 439.382H263.578C263.34 441.58 261.702 442.14 260.4 442.14ZM267.526 442.098C266.308 442.098 265.482 441.58 265.482 440.152V435.84H264.292V434.72H265.482V432.886H266.896V434.72H268.338V435.84H266.896V439.914C266.896 440.628 267.134 440.95 267.918 440.95C268.086 440.95 268.212 440.95 268.436 440.922V441.986C268.17 442.056 267.862 442.098 267.526 442.098ZM272.691 442.14C270.731 442.14 269.163 440.992 269.163 438.374C269.163 435.7 270.759 434.58 272.635 434.58C274.511 434.58 275.953 435.714 275.953 438.262C275.953 438.514 275.939 438.654 275.911 438.808H270.521C270.633 440.334 271.403 441.034 272.705 441.034C273.601 441.034 274.287 440.712 274.595 439.858H275.855C275.421 441.482 274.175 442.14 272.691 442.14ZM270.535 437.744H274.609C274.581 436.47 273.867 435.686 272.621 435.686C271.459 435.686 270.661 436.358 270.535 437.744ZM280.135 442.14C278.511 442.14 276.887 440.992 276.887 438.36C276.887 435.714 278.511 434.58 280.135 434.58C281.213 434.58 282.137 435.07 282.571 435.868V432.2H283.985V442H282.571V440.852C282.137 441.65 281.213 442.14 280.135 442.14ZM278.231 438.36C278.231 440.138 279.295 440.95 280.429 440.95C281.549 440.95 282.641 440.138 282.641 438.36C282.641 436.582 281.549 435.77 280.429 435.77C279.295 435.77 278.231 436.582 278.231 438.36ZM291.394 442.14C289.644 442.14 288.398 441.412 288.356 439.83H289.63C289.742 440.726 290.512 441.048 291.408 441.048C292.304 441.048 293.004 440.726 293.004 439.942C293.004 439.354 292.598 439.116 291.912 438.962L290.554 438.654C289.182 438.332 288.566 437.632 288.566 436.652C288.566 435.322 289.7 434.58 291.394 434.58C293.13 434.58 294.18 435.364 294.25 436.862H293.06C292.934 435.966 292.318 435.672 291.408 435.672C290.456 435.672 289.938 435.994 289.938 436.624C289.938 437.128 290.26 437.436 291.016 437.604L292.388 437.912C293.564 438.192 294.446 438.668 294.446 439.914C294.446 441.524 292.99 442.14 291.394 442.14ZM298.79 442.14C296.984 442.14 295.248 440.964 295.248 438.36C295.248 435.756 296.984 434.58 298.79 434.58C300.61 434.58 302.346 435.756 302.346 438.36C302.346 440.964 300.61 442.14 298.79 442.14ZM296.592 438.36C296.592 440.152 297.614 440.95 298.79 440.95C299.966 440.95 301.002 440.152 301.002 438.36C301.002 436.568 299.966 435.77 298.79 435.77C297.614 435.77 296.592 436.568 296.592 438.36ZM307.314 433.908C307.314 432.48 308.168 431.976 309.372 431.976H310.254V433.082H309.722C308.994 433.082 308.728 433.39 308.728 434.104V434.72H310.212V435.826H308.728V442H307.314V435.826H306.306V434.72H307.314V433.908ZM312.915 442.14C311.557 442.14 310.479 441.538 310.479 440.096C310.479 438.696 311.501 438.122 312.803 437.968L314.609 437.758C315.281 437.674 315.505 437.548 315.505 437.324V437.128C315.505 435.966 314.903 435.658 313.881 435.658C312.831 435.658 312.243 435.966 312.243 436.89V437.058H310.885V436.764C310.885 435.308 311.907 434.58 313.909 434.58C315.967 434.58 316.919 435.35 316.919 437.114V442H315.589V440.824H315.533C315.393 441.104 314.707 442.14 312.915 442.14ZM311.893 440.026C311.893 440.712 312.383 441.034 313.265 441.034C314.805 441.034 315.505 440.082 315.505 439.298V438.5C315.407 438.654 315.225 438.752 314.511 438.836L313.139 439.018C312.229 439.13 311.893 439.452 311.893 440.026ZM319.954 438.36V442H318.54V434.72H319.954V436.4H319.982C320.206 435.546 320.892 434.664 322.222 434.664C322.404 434.664 322.6 434.678 322.768 434.734V435.924C322.586 435.896 322.418 435.882 322.236 435.882C320.878 435.882 319.954 436.736 319.954 438.36Z" fill="#BBBBBB"/>
</svg>
