<svg width="32" height="32" viewBox="0 0 32 32" fill="none" xmlns="http://www.w3.org/2000/svg">
<path d="M16 11.5625C17.2476 10.7937 18.6424 10.2949 20.0946 10.0981C21.5468 9.90135 23.024 10.011 24.4312 10.42C23.8975 6.23938 20.32 3 16 3C11.68 3 8.1025 6.23938 7.56875 10.4169C8.97617 10.0083 10.4536 9.8992 11.9057 10.0965C13.3579 10.2938 14.7526 10.7932 16 11.5625ZM21 20.7331C20.97 22.1187 20.6653 23.4845 20.1034 24.7513C19.5415 26.0182 18.7338 27.1609 17.7269 28.1131C18.8987 28.6975 20.1905 29.0012 21.5 29C26.1875 29 30 25.1875 30 20.5C29.9994 19.1205 29.663 17.7619 29.0199 16.5414C28.3768 15.321 27.4463 14.2754 26.3088 13.495C26.0117 15.018 25.3817 16.4566 24.464 17.7079C23.5463 18.9591 22.3634 19.9922 21 20.7331ZM17.7237 12.8869C19.3129 14.3919 20.3916 16.3563 20.8088 18.505C21.803 17.8222 22.6407 16.9358 23.2663 15.9046C23.8919 14.8734 24.2911 13.721 24.4375 12.5238C23.3526 12.124 22.1974 11.95 21.0428 12.0124C19.8883 12.0749 18.7586 12.3724 17.7231 12.8869H17.7237ZM11.0031 20.7331C9.63902 19.9926 8.45543 18.9597 7.53703 17.7085C6.61863 16.4572 5.98813 15.0184 5.69063 13.495C4.55322 14.2755 3.62286 15.3211 2.97987 16.5415C2.33688 17.762 2.00058 19.1206 2 20.5C2 25.1875 5.8125 29 10.5 29C11.8105 29.0017 13.1035 28.698 14.2762 28.1131C13.2694 27.1609 12.4616 26.0182 11.8997 24.7513C11.3378 23.4845 11.0331 22.1187 11.0031 20.7331ZM11.1912 18.505C11.6084 16.3563 12.6871 14.3919 14.2762 12.8869C13.2408 12.3725 12.1113 12.075 10.9568 12.0126C9.80239 11.9501 8.64735 12.1241 7.5625 12.5238C7.70887 13.721 8.10811 14.8734 8.73372 15.9046C9.35933 16.9358 10.197 17.8222 11.1912 18.505ZM18.9312 21.5831C17.0166 22.139 14.9834 22.139 13.0688 21.5831C13.3397 23.6829 14.3851 25.6059 16 26.975C17.6149 25.6059 18.6603 23.6829 18.9312 21.5831ZM13.0625 19.4762C14.9586 20.1745 17.0414 20.1745 18.9375 19.4762C18.679 17.3543 17.6301 15.4078 16 14.025C14.3699 15.4078 13.321 17.3543 13.0625 19.4762Z" fill="#F9F9F9"/>
</svg>
