<svg width="323" height="772" viewBox="0 0 323 772" fill="none" xmlns="http://www.w3.org/2000/svg">
<mask id="mask0_2825_3947" style="mask-type:alpha" maskUnits="userSpaceOnUse" x="-1" y="-335" width="324" height="1442">
<g opacity="0.5">
<path d="M322.527 547.286L0.000123864 1106" stroke="#B3B3B3" stroke-width="0.403217"/>
<path d="M322.527 517.962L0.00010926 890.231" stroke="#B3B3B3" stroke-width="0.403217"/>
<path d="M322.527 488.637L9.75982e-05 742.311" stroke="#B3B3B3" stroke-width="0.403217"/>
<path d="M322.527 459.311L6.59726e-05 625.609" stroke="#B3B3B3" stroke-width="0.403217"/>
<path d="M322.527 429.986L0.000146415 524.702" stroke="#B3B3B3" stroke-width="0.403217"/>
<path d="M322.527 400.662L0.000120653 431.464" stroke="#B3B3B3" stroke-width="0.403217"/>
<path d="M322.527 371.337L0.000120653 340.535" stroke="#B3B3B3" stroke-width="0.403217"/>
<path d="M322.527 342.013L0.000146415 247.297" stroke="#B3B3B3" stroke-width="0.403217"/>
<path d="M322.527 312.688L6.59726e-05 146.39" stroke="#B3B3B3" stroke-width="0.403217"/>
<path d="M322.527 283.362L9.75982e-05 29.6879" stroke="#B3B3B3" stroke-width="0.403217"/>
<path d="M322.527 254.037L0.00010926 -118.232" stroke="#B3B3B3" stroke-width="0.403217"/>
<path d="M322.527 224.713L0.000123864 -334" stroke="#B3B3B3" stroke-width="0.403217"/>
<path d="M322.527 547.286L322.527 224.713" stroke="#B3B3B3" stroke-width="0.403217"/>
<path d="M322.527 547.286L322.527 224.713" stroke="#B3B3B3" stroke-width="0.403217"/>
<path d="M322.527 547.286L322.527 224.713" stroke="#B3B3B3" stroke-width="0.403217"/>
<path d="M322.527 547.286L322.527 224.713" stroke="#B3B3B3" stroke-width="0.403217"/>
<path d="M322.527 547.286L322.527 224.713" stroke="#B3B3B3" stroke-width="0.403217"/>
<path d="M322.527 547.286L322.527 224.711" stroke="#B3B3B3" stroke-width="0.403217"/>
<path d="M322.525 547.289L322.525 224.711" stroke="#B3B3B3" stroke-width="0.403217"/>
<path d="M322.523 547.294L322.523 224.706" stroke="#B3B3B3" stroke-width="0.403217"/>
<path d="M322.518 547.305L322.518 224.695" stroke="#B3B3B3" stroke-width="0.403217"/>
<path d="M322.504 547.327L322.504 224.671" stroke="#B3B3B3" stroke-width="0.403217"/>
<path d="M322.477 547.373L322.477 224.626" stroke="#B3B3B3" stroke-width="0.403217"/>
<path d="M322.43 547.455L322.43 224.543" stroke="#B3B3B3" stroke-width="0.403217"/>
<path d="M322.348 547.598L322.348 224.402" stroke="#B3B3B3" stroke-width="0.403217"/>
<path d="M322.211 547.831L322.211 224.168" stroke="#B3B3B3" stroke-width="0.403217"/>
<path d="M321.998 548.201L321.998 223.797" stroke="#B3B3B3" stroke-width="0.403217"/>
<path d="M321.67 548.77L321.67 223.229" stroke="#B3B3B3" stroke-width="0.403217"/>
<path d="M321.184 549.617L321.184 222.382" stroke="#B3B3B3" stroke-width="0.403217"/>
<path d="M320.473 550.849L320.473 221.149" stroke="#B3B3B3" stroke-width="0.403217"/>
<path d="M319.459 552.602L319.459 219.395" stroke="#B3B3B3" stroke-width="0.403217"/>
<path d="M318.047 555.048L318.047 216.95" stroke="#B3B3B3" stroke-width="0.403217"/>
<path d="M316.111 558.401L316.111 213.597" stroke="#B3B3B3" stroke-width="0.403217"/>
<path d="M313.498 562.927L313.498 209.073" stroke="#B3B3B3" stroke-width="0.403217"/>
<path d="M310.023 568.946L310.023 203.052" stroke="#B3B3B3" stroke-width="0.403217"/>
<path d="M305.461 576.854L305.461 195.146" stroke="#B3B3B3" stroke-width="0.403217"/>
<path d="M299.535 587.115L299.535 184.885" stroke="#B3B3B3" stroke-width="0.403217"/>
<path d="M291.932 600.289L291.932 171.712" stroke="#B3B3B3" stroke-width="0.403217"/>
<path d="M282.264 617.033L282.264 154.966" stroke="#B3B3B3" stroke-width="0.403217"/>
<path d="M270.09 638.122L270.09 133.876" stroke="#B3B3B3" stroke-width="0.403217"/>
<path d="M254.889 664.457L254.889 107.542" stroke="#B3B3B3" stroke-width="0.403217"/>
<path d="M236.057 697.081L236.057 74.9168" stroke="#B3B3B3" stroke-width="0.403217"/>
<path d="M212.895 737.203L212.895 34.7978" stroke="#B3B3B3" stroke-width="0.403217"/>
<path d="M184.609 786.201L184.609 -14.2034" stroke="#B3B3B3" stroke-width="0.403217"/>
<path d="M150.285 845.662L150.285 -73.6614" stroke="#B3B3B3" stroke-width="0.403217"/>
<path d="M108.885 917.379L108.885 -145.379" stroke="#B3B3B3" stroke-width="0.403217"/>
<path d="M59.2324 1003.39L59.2324 -231.392" stroke="#B3B3B3" stroke-width="0.403217"/>
<path d="M0 1106L0 -334" stroke="#B3B3B3" stroke-width="0.403217"/>
</g>
</mask>
<g mask="url(#mask0_2825_3947)">
<g filter="url(#filter0_f_2825_3947)">
<ellipse cx="338.299" cy="84.2602" rx="338.299" ry="84.2602" transform="matrix(0 -1 -1 0 224.158 711.654)" fill="#BBBBBB"/>
</g>
</g>
<defs>
<filter id="filter0_f_2825_3947" x="-25.0056" y="-45.5867" width="329.807" height="837.884" filterUnits="userSpaceOnUse" color-interpolation-filters="sRGB">
<feFlood flood-opacity="0" result="BackgroundImageFix"/>
<feBlend mode="normal" in="SourceGraphic" in2="BackgroundImageFix" result="shape"/>
<feGaussianBlur stdDeviation="40.3217" result="effect1_foregroundBlur_2825_3947"/>
</filter>
</defs>
</svg>
