<svg width="33" height="33" viewBox="0 0 33 33" fill="none" xmlns="http://www.w3.org/2000/svg">
<path d="M22.6895 9.01025H29.6895V16.0103" stroke="#F9F9F9" stroke-width="2" stroke-linecap="round" stroke-linejoin="round"/>
<path d="M3.68945 23.0103L11.2751 15.4246C11.4608 15.2389 11.6813 15.0915 11.924 14.991C12.1667 14.8904 12.4268 14.8387 12.6895 14.8387C12.9521 14.8387 13.2122 14.8904 13.4549 14.991C13.6976 15.0915 13.9181 15.2389 14.1038 15.4246L17.2751 18.5959C17.4608 18.7816 17.6813 18.929 17.924 19.0295C18.1667 19.1301 18.4268 19.1818 18.6895 19.1818C18.9521 19.1818 19.2122 19.1301 19.4549 19.0295C19.6976 18.929 19.9181 18.7816 20.1038 18.5959L28.6895 10.0103" stroke="#F9F9F9" stroke-width="2" stroke-linecap="round" stroke-linejoin="round"/>
</svg>
