<svg width="486" height="486" viewBox="0 0 486 486" fill="none" xmlns="http://www.w3.org/2000/svg">
<g clip-path="url(#clip0_2825_3693)">
<rect width="486" height="486" rx="24" fill="#111114"/>
<path d="M82.0002 236C27.9167 238.365 37 332 -17.9998 332C-126.924 332 -34.317 590.026 -19.8331 628.679C-18.6973 631.71 -15.8894 633.542 -12.6532 633.607L623.84 646.337C628.32 646.427 632 642.819 632 638.339V299.946C632 299.318 631.947 298.777 631.794 298.168C629.017 287.14 598.123 170.043 536 159.5C461.124 146.793 475.568 310.525 400.5 299C351.514 291.48 353.874 220.293 304.5 216C245.619 210.88 246.582 313.584 187.5 312C136.741 310.64 132.729 233.782 82.0002 236Z" fill="url(#paint0_linear_2825_3693)" stroke="#0064E0" stroke-width="2"/>
<circle cx="298" cy="215" r="4" fill="#F9F9F9"/>
<line x1="298.25" y1="218" x2="298.25" y2="451" stroke="url(#paint1_linear_2825_3693)" stroke-opacity="0.5" stroke-width="0.5" stroke-dasharray="2 2"/>
<rect x="265.5" y="165" width="66.4142" height="40.5105" rx="10.5105" fill="#0A090E"/>
<rect x="273.383" y="177.372" width="15.7657" height="15.7657" rx="7.88285" fill="#1E1E1E"/>
<g clip-path="url(#clip1_2825_3693)">
<path d="M280.571 190.169C280.518 190.169 280.467 190.157 280.419 190.135C280.372 190.113 280.33 190.081 280.296 190.041C280.262 190.001 280.238 189.954 280.224 189.903C280.21 189.853 280.208 189.8 280.217 189.748V189.746L280.766 186.731H278.641C278.582 186.731 278.524 186.714 278.474 186.683C278.424 186.651 278.384 186.606 278.359 186.553C278.333 186.5 278.323 186.441 278.33 186.382C278.337 186.323 278.361 186.268 278.398 186.222L282.678 180.93C282.727 180.868 282.795 180.824 282.871 180.805C282.947 180.785 283.028 180.79 283.1 180.821C283.173 180.851 283.234 180.905 283.273 180.973C283.313 181.041 283.329 181.12 283.319 181.198C283.319 181.204 283.317 181.21 283.316 181.215L282.765 184.231H284.891C284.95 184.231 285.007 184.248 285.057 184.279C285.107 184.311 285.147 184.356 285.173 184.409C285.198 184.462 285.208 184.522 285.201 184.58C285.194 184.639 285.171 184.694 285.134 184.74L280.852 190.032C280.819 190.074 280.776 190.109 280.727 190.132C280.678 190.156 280.625 190.168 280.571 190.169Z" fill="#F9F9F9"/>
</g>
<path d="M300.058 182.36C298.534 182.36 297.368 181.561 297.368 180.143C297.368 179.26 297.788 178.587 298.66 178.219C297.946 177.83 297.756 177.221 297.756 176.685C297.756 175.634 298.587 174.803 300.058 174.803C301.53 174.803 302.36 175.634 302.36 176.685C302.36 177.221 302.171 177.83 301.456 178.219C302.329 178.587 302.749 179.26 302.749 180.143C302.749 181.561 301.582 182.36 300.058 182.36ZM298.829 179.964C298.829 180.552 299.228 181.078 300.058 181.078C300.889 181.078 301.288 180.552 301.288 179.964C301.288 179.386 300.868 178.85 300.058 178.85C299.249 178.85 298.829 179.386 298.829 179.964ZM299.102 176.821C299.102 177.284 299.417 177.694 300.058 177.694C300.699 177.694 301.015 177.284 301.015 176.821C301.015 176.327 300.678 175.98 300.058 175.98C299.438 175.98 299.102 176.327 299.102 176.821ZM306.251 182.36C304.495 182.36 303.507 181.341 303.529 179.901H304.916C304.947 180.794 305.652 181.12 306.209 181.12C306.745 181.12 307.533 180.836 307.533 179.722C307.533 178.587 306.745 178.345 306.23 178.345C305.725 178.345 305.242 178.587 305.053 179.007H303.634L304.254 174.898H308.363V176.117H305.305L305.063 177.746C305.095 177.694 305.568 177.168 306.629 177.168C308.016 177.168 309.057 178.135 309.057 179.722C309.057 181.414 307.932 182.36 306.251 182.36ZM310.673 181.109L310.042 180.237L315.844 176.022L316.475 176.884L310.673 181.109ZM309.727 176.464C309.727 175.36 310.431 174.782 311.282 174.782C312.144 174.782 312.838 175.36 312.838 176.464C312.838 177.631 312.144 178.177 311.282 178.177C310.431 178.177 309.727 177.631 309.727 176.464ZM310.809 176.464C310.809 177.031 311.083 177.168 311.282 177.168C311.493 177.168 311.755 177.031 311.755 176.464C311.755 175.928 311.493 175.791 311.282 175.791C311.083 175.791 310.809 175.928 310.809 176.464ZM313.689 180.637C313.689 179.522 314.383 178.944 315.245 178.944C316.096 178.944 316.8 179.522 316.8 180.637C316.8 181.803 316.096 182.35 315.245 182.35C314.393 182.35 313.689 181.803 313.689 180.637ZM314.772 180.637C314.772 181.194 315.035 181.33 315.245 181.33C315.445 181.33 315.718 181.194 315.718 180.637C315.718 180.1 315.445 179.964 315.245 179.964C315.035 179.964 314.772 180.1 314.772 180.637Z" fill="#F9F9F9"/>
<path d="M299.937 196.347C298.31 196.347 297.408 195.547 297.408 194.305H298.383C298.42 194.995 298.88 195.538 299.947 195.538C300.903 195.538 301.4 195.115 301.4 194.453C301.4 193.818 300.949 193.551 300.241 193.413L299.376 193.239C298.282 193.018 297.592 192.503 297.592 191.51C297.592 190.397 298.448 189.735 299.901 189.735C301.354 189.735 302.218 190.406 302.218 191.537H301.243C301.234 190.93 300.765 190.544 299.882 190.544C298.953 190.544 298.585 190.976 298.585 191.51C298.585 191.96 298.861 192.31 299.625 192.466L300.452 192.632C301.74 192.889 302.402 193.413 302.402 194.443C302.402 195.694 301.418 196.347 299.937 196.347ZM303.294 198.002V191.473H304.223V192.227C304.508 191.703 305.115 191.381 305.823 191.381C306.89 191.381 307.957 192.126 307.957 193.864C307.957 195.593 306.89 196.347 305.823 196.347C305.115 196.347 304.508 196.025 304.223 195.501V198.002H303.294ZM304.177 193.864C304.177 195.032 304.894 195.565 305.63 195.565C306.375 195.565 307.074 195.032 307.074 193.864C307.074 192.696 306.375 192.163 305.63 192.163C304.894 192.163 304.177 192.696 304.177 193.864ZM310.887 196.347C309.6 196.347 308.57 195.593 308.57 193.873C308.57 192.117 309.618 191.381 310.85 191.381C312.083 191.381 313.03 192.126 313.03 193.8C313.03 193.965 313.021 194.057 313.002 194.158H309.462C309.535 195.161 310.041 195.621 310.896 195.621C311.485 195.621 311.936 195.409 312.138 194.848H312.966C312.681 195.915 311.862 196.347 310.887 196.347ZM309.471 193.459H312.147C312.129 192.622 311.66 192.107 310.841 192.107C310.078 192.107 309.554 192.549 309.471 193.459ZM315.962 196.347C314.674 196.347 313.644 195.593 313.644 193.873C313.644 192.117 314.692 191.381 315.925 191.381C317.157 191.381 318.104 192.126 318.104 193.8C318.104 193.965 318.095 194.057 318.077 194.158H314.536C314.61 195.161 315.115 195.621 315.971 195.621C316.559 195.621 317.01 195.409 317.212 194.848H318.04C317.755 195.915 316.936 196.347 315.962 196.347ZM314.545 193.459H317.221C317.203 192.622 316.734 192.107 315.916 192.107C315.152 192.107 314.628 192.549 314.545 193.459ZM320.852 196.347C319.785 196.347 318.718 195.593 318.718 193.864C318.718 192.126 319.785 191.381 320.852 191.381C321.56 191.381 322.167 191.703 322.452 192.227V189.817H323.381V196.255H322.452V195.501C322.167 196.025 321.56 196.347 320.852 196.347ZM319.601 193.864C319.601 195.032 320.3 195.565 321.045 195.565C321.781 195.565 322.498 195.032 322.498 193.864C322.498 192.696 321.781 192.163 321.045 192.163C320.3 192.163 319.601 192.696 319.601 193.864Z" fill="#BBBBBB"/>
<path d="M25.296 67V50.2H29.232L34.128 62.752L39.024 50.2H42.96V67H39.816V55.72H39.696L35.328 67H32.928L28.536 55.72H28.44V67H25.296ZM51.0906 67.24C47.8506 67.24 44.9226 65.392 44.9226 60.736C44.9226 56.128 47.7786 54.28 51.0426 54.28C54.2586 54.28 56.8986 56.056 56.8986 60.616C56.8986 61.048 56.8746 61.288 56.8266 61.552H47.8266C48.0186 63.88 49.1946 64.888 51.1626 64.888C52.7226 64.888 53.6346 64.288 53.9946 63.088H56.7306C56.0586 65.92 53.8746 67.24 51.0906 67.24ZM47.8506 59.68H53.9946C53.9226 57.928 53.0106 56.632 50.9946 56.632C49.1946 56.632 48.0666 57.64 47.8506 59.68ZM63.5961 67.168C61.2441 67.168 59.7081 66.136 59.7081 63.496V56.92H57.6201V54.52H59.7081V51.328H62.7801V54.52H65.2281V56.92H62.7801V63.016C62.7801 64.096 63.1161 64.696 64.4121 64.696C64.7001 64.696 64.9161 64.696 65.3721 64.648V66.952C64.8441 67.096 64.2441 67.168 63.5961 67.168ZM70.2977 61.192V67H67.2257V54.52H70.2977V57.496H70.3697C70.7777 55.816 71.9537 54.424 74.0657 54.424C74.3537 54.424 74.6897 54.448 75.0257 54.544V57.136C74.6657 57.088 74.3777 57.064 74.0657 57.064C72.0017 57.064 70.2977 58.264 70.2977 61.192ZM76.7648 67V54.52H79.8368V67H76.7648ZM76.5488 51.04C76.5488 50.056 77.3648 49.312 78.3008 49.312C79.2128 49.312 80.0288 50.056 80.0288 51.04C80.0288 52.024 79.2128 52.768 78.3008 52.768C77.3648 52.768 76.5488 52.024 76.5488 51.04ZM88.0292 67.24C84.9092 67.24 81.8132 65.392 81.8132 60.784C81.8132 56.176 84.9092 54.28 88.0292 54.28C90.2132 54.28 93.1652 55.168 93.6212 59.2H90.8372C90.5252 57.52 89.4212 56.872 88.0052 56.872C85.8692 56.872 84.6932 58.432 84.6932 60.784C84.6932 63.136 85.8692 64.648 88.0052 64.648C89.4692 64.648 90.5252 63.952 90.8372 62.296H93.6212C93.2372 66.304 90.2372 67.24 88.0292 67.24ZM100.216 67.24C97.0239 67.24 94.9359 65.872 94.9119 63.064H97.6479C97.8159 64.384 98.8239 64.912 100.264 64.912C101.584 64.912 102.52 64.456 102.52 63.4C102.52 62.632 102.016 62.248 101.056 62.056L98.7519 61.552C96.2319 60.976 95.2479 59.656 95.2479 57.976C95.2479 55.624 97.2639 54.28 100.264 54.28C103.432 54.28 105.232 55.792 105.28 58.432H102.736C102.544 57.064 101.632 56.608 100.288 56.608C98.9199 56.608 98.2239 57.064 98.2239 57.928C98.2239 58.648 98.7279 59.104 99.7359 59.296L102.112 59.824C104.08 60.28 105.688 61.144 105.688 63.328C105.688 66.088 103.144 67.24 100.216 67.24Z" fill="#F9F9F9"/>
<rect x="327" y="40" width="135" height="38" rx="8" stroke="#BBBBBB" stroke-opacity="0.4" stroke-width="0.3"/>
<path d="M337.896 65V53.8H339.56V63.544H345.112V65H337.896ZM348.301 65.16C346.749 65.16 345.517 64.472 345.517 62.824C345.517 61.224 346.685 60.568 348.173 60.392L350.237 60.152C351.005 60.056 351.261 59.912 351.261 59.656V59.432C351.261 58.104 350.573 57.752 349.405 57.752C348.205 57.752 347.533 58.104 347.533 59.16V59.352H345.981V59.016C345.981 57.352 347.149 56.52 349.437 56.52C351.789 56.52 352.877 57.4 352.877 59.416V65H351.357V63.656H351.293C351.133 63.976 350.349 65.16 348.301 65.16ZM347.133 62.744C347.133 63.528 347.693 63.896 348.701 63.896C350.461 63.896 351.261 62.808 351.261 61.912V61C351.149 61.176 350.941 61.288 350.125 61.384L348.557 61.592C347.517 61.72 347.133 62.088 347.133 62.744ZM357.227 65.16C355.227 65.16 353.803 64.328 353.755 62.52H355.211C355.339 63.544 356.219 63.912 357.243 63.912C358.267 63.912 359.067 63.544 359.067 62.648C359.067 61.976 358.603 61.704 357.819 61.528L356.267 61.176C354.699 60.808 353.995 60.008 353.995 58.888C353.995 57.368 355.291 56.52 357.227 56.52C359.211 56.52 360.411 57.416 360.491 59.128H359.131C358.987 58.104 358.283 57.768 357.243 57.768C356.155 57.768 355.563 58.136 355.563 58.856C355.563 59.432 355.931 59.784 356.795 59.976L358.363 60.328C359.707 60.648 360.715 61.192 360.715 62.616C360.715 64.456 359.051 65.16 357.227 65.16ZM364.752 65.112C363.36 65.112 362.416 64.52 362.416 62.888V57.96H361.056V56.68H362.416V54.584H364.032V56.68H365.68V57.96H364.032V62.616C364.032 63.432 364.304 63.8 365.2 63.8C365.392 63.8 365.536 63.8 365.792 63.768V64.984C365.488 65.064 365.136 65.112 364.752 65.112ZM373.619 65.16C370.931 65.16 369.635 63.608 369.635 61.352H371.155C371.171 62.952 372.211 63.768 373.683 63.768C375.011 63.768 376.163 63.064 376.163 61.688C376.163 60.472 375.251 59.672 373.507 59.672H372.963V58.456H373.427C375.235 58.456 375.667 57.528 375.667 56.744C375.667 55.656 374.851 55.048 373.667 55.048C372.515 55.048 371.523 55.64 371.523 57.304H370.003C370.003 54.92 371.379 53.656 373.699 53.656C375.939 53.656 377.235 54.84 377.235 56.504C377.235 57.8 376.435 58.68 375.379 58.968C376.419 59.128 377.795 59.96 377.795 61.784C377.795 63.768 376.163 65.16 373.619 65.16ZM382.979 65.16C380.643 65.16 378.611 63.4 378.611 59.4C378.611 55.432 380.643 53.656 382.979 53.656C385.331 53.656 387.363 55.432 387.363 59.4C387.363 63.4 385.331 65.16 382.979 65.16ZM380.147 59.4C380.147 61.976 381.107 63.784 382.979 63.784C384.851 63.784 385.811 61.976 385.811 59.4C385.811 56.84 384.851 55.032 382.979 55.032C381.107 55.032 380.147 56.84 380.147 59.4ZM395.08 65.16C393.224 65.16 391.368 63.848 391.368 60.84C391.368 57.816 393.224 56.52 395.08 56.52C396.312 56.52 397.368 57.08 397.864 57.992V53.8H399.48V65H397.864V63.688C397.368 64.6 396.312 65.16 395.08 65.16ZM392.904 60.84C392.904 62.872 394.12 63.8 395.416 63.8C396.696 63.8 397.944 62.872 397.944 60.84C397.944 58.808 396.696 57.88 395.416 57.88C394.12 57.88 392.904 58.808 392.904 60.84ZM403.236 65.16C401.684 65.16 400.452 64.472 400.452 62.824C400.452 61.224 401.62 60.568 403.108 60.392L405.172 60.152C405.94 60.056 406.196 59.912 406.196 59.656V59.432C406.196 58.104 405.508 57.752 404.34 57.752C403.14 57.752 402.468 58.104 402.468 59.16V59.352H400.916V59.016C400.916 57.352 402.084 56.52 404.372 56.52C406.724 56.52 407.812 57.4 407.812 59.416V65H406.292V63.656H406.228C406.068 63.976 405.284 65.16 403.236 65.16ZM402.068 62.744C402.068 63.528 402.628 63.896 403.636 63.896C405.396 63.896 406.196 62.808 406.196 61.912V61C406.084 61.176 405.876 61.288 405.06 61.384L403.492 61.592C402.452 61.72 402.068 62.088 402.068 62.744ZM408.973 66.728C410.349 66.92 410.893 66.376 411.213 65.592C411.389 65.144 411.389 64.872 411.245 64.488L408.125 56.68H409.789L412.173 63.032L414.573 56.68H416.237L412.717 65.48C411.853 67.624 410.829 68.344 408.973 68.12V66.728ZM419.636 65.16C417.636 65.16 416.212 64.328 416.164 62.52H417.62C417.748 63.544 418.628 63.912 419.652 63.912C420.676 63.912 421.476 63.544 421.476 62.648C421.476 61.976 421.012 61.704 420.228 61.528L418.676 61.176C417.108 60.808 416.404 60.008 416.404 58.888C416.404 57.368 417.7 56.52 419.636 56.52C421.62 56.52 422.82 57.416 422.9 59.128H421.54C421.396 58.104 420.692 57.768 419.652 57.768C418.564 57.768 417.972 58.136 417.972 58.856C417.972 59.432 418.34 59.784 419.204 59.976L420.772 60.328C422.116 60.648 423.124 61.192 423.124 62.616C423.124 64.456 421.46 65.16 419.636 65.16Z" fill="#F9F9F9"/>
<path d="M437.938 56.4688L443 61.5312L448.062 56.4688" stroke="#F9F9F9" stroke-width="1.6875" stroke-linecap="round" stroke-linejoin="round"/>
</g>
<defs>
<linearGradient id="paint0_linear_2825_3693" x1="307" y1="159.5" x2="307" y2="646.5" gradientUnits="userSpaceOnUse">
<stop stop-color="#0064E0" stop-opacity="0.4"/>
<stop offset="0.584568" stop-color="#0064E0" stop-opacity="0"/>
</linearGradient>
<linearGradient id="paint1_linear_2825_3693" x1="297.5" y1="218" x2="297.5" y2="451" gradientUnits="userSpaceOnUse">
<stop stop-color="#BBBBBB" stop-opacity="0.5"/>
<stop offset="0.718712" stop-color="#BBBBBB" stop-opacity="0"/>
</linearGradient>
<clipPath id="clip0_2825_3693">
<rect width="486" height="486" rx="24" fill="white"/>
</clipPath>
<clipPath id="clip1_2825_3693">
<rect width="10" height="10" fill="white" transform="translate(276.766 180.481)"/>
</clipPath>
</defs>
</svg>
