<svg width="33" height="33" viewBox="0 0 33 33" fill="none" xmlns="http://www.w3.org/2000/svg">
<path d="M21.3154 16.5962C20.0304 16.5962 18.7879 16.0224 17.8154 14.9812C16.8697 13.9656 16.2922 12.6112 16.1904 11.1687C16.0816 9.62994 16.551 8.21494 17.5116 7.18369C18.4722 6.15244 19.8154 5.59619 21.3154 5.59619C22.8047 5.59619 24.1516 6.16244 25.1091 7.19119C26.076 8.22994 26.5466 9.64244 26.4379 11.1681C26.3335 12.6124 25.7566 13.9662 24.8129 14.9806C23.8429 16.0224 22.601 16.5962 21.3154 16.5962ZM29.5547 27.5962H13.0766C12.8117 27.5976 12.55 27.5382 12.3116 27.4226C12.0732 27.307 11.8645 27.1382 11.7016 26.9293C11.5288 26.7028 11.4095 26.4402 11.3525 26.1611C11.2956 25.8819 11.3025 25.5935 11.3729 25.3174C11.8991 23.2043 13.2029 21.4518 15.1429 20.2499C16.8647 19.1837 19.0566 18.5962 21.3154 18.5962C23.6185 18.5962 25.7529 19.1587 27.4847 20.2243C29.4291 21.4199 30.7347 23.1824 31.2585 25.3212C31.3279 25.5975 31.3341 25.8859 31.2765 26.1649C31.219 26.4438 31.0991 26.7062 30.926 26.9324C30.7632 27.1404 30.555 27.3083 30.3174 27.4234C30.0797 27.5384 29.8188 27.5975 29.5547 27.5962ZM9.50286 16.8462C7.30348 16.8462 5.36973 14.8012 5.19036 12.2881C5.10161 11.0006 5.50286 9.80994 6.31536 8.93682C7.11911 8.07244 8.25286 7.59619 9.50286 7.59619C10.7529 7.59619 11.8779 8.07494 12.686 8.94432C13.5047 9.82432 13.9047 11.0124 13.811 12.2893C13.6316 14.8018 11.6985 16.8462 9.50286 16.8462ZM13.6066 18.8118C12.5072 18.2743 11.0804 18.0056 9.50348 18.0056C7.66223 18.0056 5.87411 18.4856 4.46786 19.3568C2.87348 20.3462 1.80098 21.7868 1.36786 23.5262C1.30447 23.7764 1.29848 24.0377 1.35032 24.2905C1.40216 24.5433 1.5105 24.7811 1.66723 24.9862C1.81595 25.1771 2.00647 25.3314 2.22415 25.4371C2.44183 25.5429 2.68086 25.5973 2.92286 25.5962H9.86036C9.97745 25.5962 10.0908 25.5551 10.1807 25.48C10.2706 25.405 10.3313 25.3008 10.3522 25.1856C10.3591 25.1462 10.3679 25.1068 10.3779 25.0681C10.9079 22.9393 12.1497 21.1406 13.9847 19.8293C14.0522 19.7807 14.1065 19.7159 14.1427 19.641C14.1788 19.5661 14.1957 19.4833 14.1918 19.4002C14.1879 19.3171 14.1633 19.2363 14.1203 19.1651C14.0772 19.0939 14.0171 19.0345 13.9454 18.9924C13.8472 18.9349 13.7347 18.8743 13.6066 18.8118Z" fill="#F9F9F9"/>
</svg>
